<?xml version="1.0" encoding="UTF-8" standalone="no"?>
<!-- Created with Inkscape (http://www.inkscape.org/) -->

<svg
   xmlns:dc="http://purl.org/dc/elements/1.1/"
   xmlns:cc="http://creativecommons.org/ns#"
   xmlns:rdf="http://www.w3.org/1999/02/22-rdf-syntax-ns#"
   xmlns:svg="http://www.w3.org/2000/svg"
   xmlns="http://www.w3.org/2000/svg"
   xmlns:xlink="http://www.w3.org/1999/xlink"
   xmlns:sodipodi="http://sodipodi.sourceforge.net/DTD/sodipodi-0.dtd"
   xmlns:inkscape="http://www.inkscape.org/namespaces/inkscape"
   version="1.0"
   width="900"
   height="600"
   id="svg2"
   inkscape:version="0.47 r22583"
   sodipodi:docname="bndtools_swirl_lined.svg">
  <metadata
     id="metadata10">
    <rdf:RDF>
      <cc:Work
         rdf:about="">
        <dc:format>image/svg+xml</dc:format>
        <dc:type
           rdf:resource="http://purl.org/dc/dcmitype/StillImage" />
        <dc:title></dc:title>
      </cc:Work>
    </rdf:RDF>
  </metadata>
  <sodipodi:namedview
     pagecolor="#000000"
     bordercolor="#666666"
     borderopacity="1"
     objecttolerance="10"
     gridtolerance="10"
     guidetolerance="10"
     inkscape:pageopacity="0"
     inkscape:pageshadow="2"
     inkscape:window-width="1089"
     inkscape:window-height="749"
     id="namedview8"
     showgrid="false"
     inkscape:zoom="0.78666669"
     inkscape:cx="528.76472"
     inkscape:cy="386.54153"
     inkscape:window-x="112"
     inkscape:window-y="0"
     inkscape:window-maximized="0"
     inkscape:current-layer="g2403" />
  <defs
     id="defs5">
    <linearGradient
       id="linearGradient3595">
      <stop
         style="stop-color:#168aff;stop-opacity:1;"
         offset="0"
         id="stop3597" />
      <stop
         style="stop-color:#002f5e;stop-opacity:1;"
         offset="1"
         id="stop3599" />
    </linearGradient>
    <linearGradient
       id="linearGradient3587">
      <stop
         style="stop-color:#330066;stop-opacity:1;"
         offset="0"
         id="stop3589" />
      <stop
         style="stop-color:#aa58ff;stop-opacity:1;"
         offset="1"
         id="stop3591" />
    </linearGradient>
    <inkscape:perspective
       sodipodi:type="inkscape:persp3d"
       inkscape:vp_x="0 : 300 : 1"
       inkscape:vp_y="0 : 1000 : 0"
       inkscape:vp_z="900 : 300 : 1"
       inkscape:persp3d-origin="450 : 200 : 1"
       id="perspective12" />
    <linearGradient
       inkscape:collect="always"
       xlink:href="#linearGradient3587"
       id="linearGradient3593"
       x1="322.22677"
       y1="299.75"
       x2="695.02323"
       y2="299.75"
       gradientUnits="userSpaceOnUse" />
    <linearGradient
       inkscape:collect="always"
       xlink:href="#linearGradient3595"
       id="linearGradient3601"
       x1="205.17714"
       y1="299.75"
       x2="577.9736"
       y2="299.75"
       gradientUnits="userSpaceOnUse" />
  </defs>
  <rect
     width="900"
     height="600"
     x="0"
     y="0"
     id="rect2407"
     style="fill:none;stroke:none" />
  <g
     id="g2403"
     transform="translate(60.223926,-76.403486)"
     style="stroke-width:13.04645669;stroke-miterlimit:4;stroke-dasharray:none;stroke:#ffffff;stroke-opacity:1;stroke-linejoin:round"
     inkscape:export-filename="/Users/neil/Pictures/Bndlogo/favicon-lined.png"
     inkscape:export-xdpi="2.9400001"
     inkscape:export-ydpi="2.9400001">
    <path
       d="m 508.625,119.875 c -99.29326,0 -179.87499,80.58173 -179.875,179.875 0,25.28396 21.67053,57.25 57.25,57.25 39.23735,0 58,-32.00633 58,-56.65625 -10e-6,-37.7851 30.68364,-68.4375 68.46875,-68.4375 37.7851,0 68.4375,30.65239 68.4375,68.4375 0,129.46829 -112.9375,174.6875 -112.9375,174.6875 13.06905,3.02386 26.67207,4.59375 40.65625,4.59375 99.29326,0 179.87499,-80.58175 179.875,-179.875 0,-99.29326 -80.58172,-179.875 -179.875,-179.875 z"
       id="path2392"
       style="fill:url(#linearGradient3593);stroke:#ffffff;stroke-width:13.04645668999999941;stroke-miterlimit:4;stroke-dasharray:none;stroke-opacity:1;stroke-linejoin:round;fill-opacity:1" />
    <path
       d="m 391.57537,479.625 c 99.29326,0 179.87499,-80.58173 179.875,-179.875 0,-25.28396 -21.67053,-57.25 -57.25,-57.25 -39.23735,0 -58,32.00633 -58,56.65625 10e-6,37.7851 -30.68364,68.4375 -68.46875,68.4375 -37.7851,0 -68.4375,-30.65239 -68.4375,-68.4375 0,-129.46829 112.9375,-174.6875 112.9375,-174.6875 -13.06905,-3.02386 -26.67207,-4.59375 -40.65625,-4.59375 -99.29326,0 -179.87499,80.58175 -179.875,179.875 0,99.29326 80.58172,179.875 179.875,179.875 z"
       id="path2401"
       style="fill:url(#linearGradient3601);stroke:#ffffff;stroke-width:13.04645668999999941;stroke-miterlimit:4;stroke-dasharray:none;stroke-opacity:1;stroke-linejoin:round;fill-opacity:1" />
  </g>
</svg>
