<?xml version="1.0" encoding="UTF-8" standalone="no"?>
<!DOCTYPE svg PUBLIC "-//W3C//DTD SVG 1.1//EN"
 "http://www.w3.org/Graphics/SVG/1.1/DTD/svg11.dtd">
<!-- Generated by graphviz version 2.34.0 (20140110.0949)
 -->
<!-- Title: GradleSetup Pages: 1 -->
<svg width="1809pt" height="633pt"
 viewBox="0.00 0.00 1809.00 633.00" xmlns="http://www.w3.org/2000/svg" xmlns:xlink="http://www.w3.org/1999/xlink">
<g id="graph0" class="graph" transform="scale(1 1) rotate(0) translate(4 629)">
<title>GradleSetup</title>
<polygon fill="white" stroke="white" points="-4,4 -4,-629 1805,-629 1805,4 -4,4"/>
<text text-anchor="middle" x="61" y="-609.8" font-family="Times,serif" font-size="14.00">Gradle Build Setup</text>
<g id="clust1" class="cluster"><title>cluster1</title>
<polygon fill="lightgrey" stroke="black" points="254,-8 254,-594 859,-594 859,-8 254,-8"/>
<text text-anchor="middle" x="294" y="-15.8" font-family="Times,serif" font-size="14.00">Java Plugin</text>
</g>
<g id="clust2" class="cluster"><title>cluster11</title>
</g>
<g id="clust3" class="cluster"><title>cluster12</title>
</g>
<g id="clust4" class="cluster"><title>cluster13</title>
</g>
<g id="clust5" class="cluster"><title>cluster2</title>
<polygon fill="lightgrey" stroke="black" points="879,-241 879,-503 1387,-503 1387,-241 879,-241"/>
<text text-anchor="middle" x="922" y="-248.8" font-family="Times,serif" font-size="14.00">Bnd Projects</text>
</g>
<g id="clust6" class="cluster"><title>cluster21</title>
</g>
<g id="clust7" class="cluster"><title>cluster22</title>
</g>
<g id="clust8" class="cluster"><title>cluster23</title>
</g>
<g id="clust9" class="cluster"><title>cluster3</title>
<polygon fill="lightgrey" stroke="black" points="1084,-511 1084,-586 1169,-586 1169,-511 1084,-511"/>
<text text-anchor="middle" x="1126.5" y="-518.8" font-family="Times,serif" font-size="14.00">Root Project</text>
</g>
<g id="clust10" class="cluster"><title>cluster4</title>
<polygon fill="lightgrey" stroke="black" points="8,-158 8,-332 246,-332 246,-158 8,-158"/>
<text text-anchor="middle" x="52" y="-165.8" font-family="Times,serif" font-size="14.00">Java Projects</text>
</g>
<g id="clust11" class="cluster"><title>cluster41</title>
</g>
<g id="clust12" class="cluster"><title>cluster42</title>
</g>
<g id="clust13" class="cluster"><title>cluster5</title>
<polygon fill="lightgrey" stroke="black" points="1395,-340 1395,-594 1793,-594 1793,-340 1395,-340"/>
<text text-anchor="middle" x="1435.5" y="-347.8" font-family="Times,serif" font-size="14.00">All Projects</text>
</g>
<g id="clust14" class="cluster"><title>cluster21</title>
</g>
<g id="clust15" class="cluster"><title>cluster22</title>
</g>
<g id="clust16" class="cluster"><title>cluster100</title>
<polygon fill="lightgrey" stroke="black" points="1395,-83 1395,-324 1565,-324 1565,-83 1395,-83"/>
<text text-anchor="middle" x="1435.5" y="-90.8" font-family="Times,serif" font-size="14.00">Dist Project</text>
</g>
<!-- compileJava -->
<g id="node1" class="node"><title>compileJava</title>
<polygon fill="lightcyan" stroke="black" points="842.25,-578 757.75,-578 757.75,-542 842.25,-542 842.25,-578"/>
<text text-anchor="middle" x="800" y="-556.3" font-family="Times,serif" font-size="14.00">compileJava</text>
</g>
<!-- classes -->
<g id="node3" class="node"><title>classes</title>
<polygon fill="lightcyan" stroke="black" points="680,-487 626,-487 626,-451 680,-451 680,-487"/>
<text text-anchor="middle" x="653" y="-465.3" font-family="Times,serif" font-size="14.00">classes</text>
</g>
<!-- compileJava&#45;&gt;classes -->
<g id="edge1" class="edge"><title>compileJava&#45;&gt;classes</title>
<path fill="none" stroke="black" d="M784.341,-541.889C774.591,-531.947 761.391,-519.705 748,-511 729.872,-499.215 707.789,-489.449 689.478,-482.407"/>
<polygon fill="black" stroke="black" points="690.608,-479.093 680.015,-478.879 688.162,-485.652 690.608,-479.093"/>
</g>
<!-- processResources -->
<g id="node2" class="node"><title>processResources</title>
<polygon fill="lightcyan" stroke="black" points="739.25,-578 626.75,-578 626.75,-542 739.25,-542 739.25,-578"/>
<text text-anchor="middle" x="683" y="-556.3" font-family="Times,serif" font-size="14.00">processResources</text>
</g>
<!-- processResources&#45;&gt;classes -->
<g id="edge2" class="edge"><title>processResources&#45;&gt;classes</title>
<path fill="none" stroke="black" d="M677.216,-541.84C672.899,-529.035 666.921,-511.299 661.984,-496.654"/>
<polygon fill="black" stroke="black" points="665.277,-495.466 658.767,-487.107 658.644,-497.702 665.277,-495.466"/>
</g>
<!-- jar -->
<g id="node4" class="node"><title>jar</title>
<polygon fill="lightcyan" stroke="black" points="752,-415 698,-415 698,-379 752,-379 752,-415"/>
<text text-anchor="middle" x="725" y="-393.3" font-family="Times,serif" font-size="14.00">jar</text>
</g>
<!-- classes&#45;&gt;jar -->
<g id="edge6" class="edge"><title>classes&#45;&gt;jar</title>
<path fill="none" stroke="black" d="M670.798,-450.697C679.604,-442.135 690.382,-431.656 700.001,-422.304"/>
<polygon fill="black" stroke="black" points="702.677,-424.585 707.407,-415.104 697.797,-419.566 702.677,-424.585"/>
</g>
<!-- compileTestJava -->
<g id="node5" class="node"><title>compileTestJava</title>
<polygon fill="lightcyan" stroke="black" points="602,-415 494,-415 494,-379 602,-379 602,-415"/>
<text text-anchor="middle" x="548" y="-393.3" font-family="Times,serif" font-size="14.00">compileTestJava</text>
</g>
<!-- classes&#45;&gt;compileTestJava -->
<g id="edge5" class="edge"><title>classes&#45;&gt;compileTestJava</title>
<path fill="none" stroke="black" d="M627.314,-450.876C613.712,-441.808 596.828,-430.552 582.139,-420.759"/>
<polygon fill="black" stroke="black" points="584.047,-417.825 573.785,-415.19 580.164,-423.649 584.047,-417.825"/>
</g>
<!-- test -->
<g id="node8" class="node"><title>test</title>
<polygon fill="lightcyan" stroke="black" points="602,-233 548,-233 548,-197 602,-197 602,-233"/>
<text text-anchor="middle" x="575" y="-211.3" font-family="Times,serif" font-size="14.00">test</text>
</g>
<!-- classes&#45;&gt;test -->
<g id="edge4" class="edge"><title>classes&#45;&gt;test</title>
<path fill="none" stroke="black" d="M649.571,-450.711C640.804,-407.248 616.963,-293.696 594.522,-242.252"/>
<polygon fill="black" stroke="black" points="597.641,-240.661 590.205,-233.115 591.312,-243.652 597.641,-240.661"/>
</g>
<!-- javadoc -->
<g id="node13" class="node"><title>javadoc</title>
<polygon fill="lightcyan" stroke="black" points="321.25,-415 262.75,-415 262.75,-379 321.25,-379 321.25,-415"/>
<text text-anchor="middle" x="292" y="-393.3" font-family="Times,serif" font-size="14.00">javadoc</text>
</g>
<!-- classes&#45;&gt;javadoc -->
<g id="edge3" class="edge"><title>classes&#45;&gt;javadoc</title>
<path fill="none" stroke="black" d="M625.825,-468.435C568.639,-468.463 432.528,-463.818 328,-423 325.927,-422.19 323.857,-421.239 321.818,-420.19"/>
<polygon fill="black" stroke="black" points="323.544,-417.145 313.15,-415.091 319.995,-423.178 323.544,-417.145"/>
</g>
<!-- bundle -->
<g id="node15" class="node"><title>bundle</title>
<polygon fill="cyan" stroke="black" points="1087,-487 1033,-487 1033,-451 1087,-451 1087,-487"/>
<text text-anchor="middle" x="1060" y="-465.3" font-family="Times,serif" font-size="14.00">bundle</text>
</g>
<!-- classes&#45;&gt;bundle -->
<g id="edge15" class="edge"><title>classes&#45;&gt;bundle</title>
<path fill="none" stroke="black" d="M680.027,-469C794.209,-469 908.392,-469 1022.57,-469"/>
<polygon fill="black" stroke="black" points="1022.91,-472.5 1032.91,-469 1022.91,-465.5 1022.91,-472.5"/>
</g>
<!-- findbugsMain -->
<g id="node26" class="node"><title>findbugsMain</title>
<polygon fill="cyan" stroke="black" points="117.25,-316 24.75,-316 24.75,-280 117.25,-280 117.25,-316"/>
<text text-anchor="middle" x="71" y="-294.3" font-family="Times,serif" font-size="14.00">findbugsMain</text>
</g>
<!-- classes&#45;&gt;findbugsMain -->
<g id="edge25" class="edge"><title>classes&#45;&gt;findbugsMain</title>
<path fill="none" stroke="black" d="M625.909,-466.705C547.141,-462.667 319.385,-448.999 250,-423 189.299,-400.254 129.608,-352.348 96.8062,-323.191"/>
<polygon fill="black" stroke="black" points="98.8327,-320.306 89.0619,-316.209 94.1453,-325.505 98.8327,-320.306"/>
</g>
<!-- uploadArchives -->
<g id="node10" class="node"><title>uploadArchives</title>
<polygon fill="lightcyan" stroke="black" points="828,-316 726,-316 726,-280 828,-280 828,-316"/>
<text text-anchor="middle" x="777" y="-294.3" font-family="Times,serif" font-size="14.00">uploadArchives</text>
</g>
<!-- jar&#45;&gt;uploadArchives -->
<g id="edge9" class="edge"><title>jar&#45;&gt;uploadArchives</title>
<path fill="none" stroke="black" d="M734.297,-378.658C742.283,-363.761 753.915,-342.063 763.023,-325.073"/>
<polygon fill="black" stroke="black" points="766.144,-326.659 767.784,-316.192 759.974,-323.351 766.144,-326.659"/>
</g>
<!-- assemble -->
<g id="node11" class="node"><title>assemble</title>
<polygon fill="lightcyan" stroke="black" points="707.25,-316 640.75,-316 640.75,-280 707.25,-280 707.25,-316"/>
<text text-anchor="middle" x="674" y="-294.3" font-family="Times,serif" font-size="14.00">assemble</text>
</g>
<!-- jar&#45;&gt;assemble -->
<g id="edge10" class="edge"><title>jar&#45;&gt;assemble</title>
<path fill="none" stroke="black" d="M715.882,-378.658C708.05,-363.761 696.641,-342.063 687.708,-325.073"/>
<polygon fill="black" stroke="black" points="690.791,-323.414 683.039,-316.192 684.595,-326.672 690.791,-323.414"/>
</g>
<!-- testClasses -->
<g id="node7" class="node"><title>testClasses</title>
<polygon fill="lightcyan" stroke="black" points="586,-316 510,-316 510,-280 586,-280 586,-316"/>
<text text-anchor="middle" x="548" y="-294.3" font-family="Times,serif" font-size="14.00">testClasses</text>
</g>
<!-- compileTestJava&#45;&gt;testClasses -->
<g id="edge7" class="edge"><title>compileTestJava&#45;&gt;testClasses</title>
<path fill="none" stroke="black" d="M548,-378.658C548,-364.175 548,-343.263 548,-326.499"/>
<polygon fill="black" stroke="black" points="551.5,-326.191 548,-316.192 544.5,-326.192 551.5,-326.191"/>
</g>
<!-- processTestResources -->
<g id="node6" class="node"><title>processTestResources</title>
<polygon fill="lightcyan" stroke="black" points="476,-415 340,-415 340,-379 476,-379 476,-415"/>
<text text-anchor="middle" x="408" y="-393.3" font-family="Times,serif" font-size="14.00">processTestResources</text>
</g>
<!-- processTestResources&#45;&gt;testClasses -->
<g id="edge8" class="edge"><title>processTestResources&#45;&gt;testClasses</title>
<path fill="none" stroke="black" d="M431.026,-378.775C446.211,-367.534 466.619,-352.653 485,-340 493.879,-333.888 503.587,-327.452 512.665,-321.537"/>
<polygon fill="black" stroke="black" points="514.639,-324.428 521.128,-316.053 510.832,-318.554 514.639,-324.428"/>
</g>
<!-- testClasses&#45;&gt;test -->
<g id="edge11" class="edge"><title>testClasses&#45;&gt;test</title>
<path fill="none" stroke="black" d="M553.726,-279.822C557.306,-269.083 561.992,-255.025 566.054,-242.837"/>
<polygon fill="black" stroke="black" points="569.44,-243.747 569.282,-233.153 562.8,-241.533 569.44,-243.747"/>
</g>
<!-- findbugsTest -->
<g id="node24" class="node"><title>findbugsTest</title>
<polygon fill="cyan" stroke="black" points="229.25,-316 142.75,-316 142.75,-280 229.25,-280 229.25,-316"/>
<text text-anchor="middle" x="186" y="-294.3" font-family="Times,serif" font-size="14.00">findbugsTest</text>
</g>
<!-- testClasses&#45;&gt;findbugsTest -->
<g id="edge26" class="edge"><title>testClasses&#45;&gt;findbugsTest</title>
<path fill="none" stroke="black" d="M509.741,-298C419.697,-298 329.653,-298 239.609,-298"/>
<polygon fill="black" stroke="black" points="239.482,-294.5 229.482,-298 239.482,-301.5 239.482,-294.5"/>
</g>
<!-- check -->
<g id="node9" class="node"><title>check</title>
<polygon fill="lightcyan" stroke="black" points="602,-150 548,-150 548,-114 602,-114 602,-150"/>
<text text-anchor="middle" x="575" y="-128.3" font-family="Times,serif" font-size="14.00">check</text>
</g>
<!-- test&#45;&gt;check -->
<g id="edge13" class="edge"><title>test&#45;&gt;check</title>
<path fill="none" stroke="black" d="M575,-196.822C575,-186.19 575,-172.306 575,-160.204"/>
<polygon fill="black" stroke="black" points="578.5,-160.153 575,-150.153 571.5,-160.153 578.5,-160.153"/>
</g>
<!-- build -->
<g id="node12" class="node"><title>build</title>
<polygon fill="lightcyan" stroke="black" points="638,-75 584,-75 584,-39 638,-39 638,-75"/>
<text text-anchor="middle" x="611" y="-53.3" font-family="Times,serif" font-size="14.00">build</text>
</g>
<!-- check&#45;&gt;build -->
<g id="edge14" class="edge"><title>check&#45;&gt;build</title>
<path fill="none" stroke="black" d="M583.531,-113.7C587.88,-104.882 593.26,-93.9727 598.103,-84.153"/>
<polygon fill="black" stroke="black" points="601.246,-85.6926 602.53,-75.1758 594.968,-82.5965 601.246,-85.6926"/>
</g>
<!-- assemble&#45;&gt;build -->
<g id="edge12" class="edge"><title>assemble&#45;&gt;build</title>
<path fill="none" stroke="black" d="M669.469,-279.812C658.617,-238.643 631.072,-134.145 618.039,-84.7043"/>
<polygon fill="black" stroke="black" points="621.423,-83.8101 615.49,-75.0325 614.654,-85.5944 621.423,-83.8101"/>
</g>
<!-- cleanJava -->
<g id="node14" class="node"><title>cleanJava</title>
<polygon fill="lightcyan" stroke="black" points="462,-578 408,-578 408,-542 462,-542 462,-578"/>
<text text-anchor="middle" x="435" y="-556.3" font-family="Times,serif" font-size="14.00">clean</text>
</g>
<!-- bundle&#45;&gt;compileJava -->
<g id="edge16" class="edge"><title>bundle&#45;&gt;compileJava</title>
<path fill="none" stroke="red" d="M1032.82,-479.305C990.063,-493.94 906.367,-522.59 851.843,-541.254"/>
<polygon fill="red" stroke="red" points="850.68,-537.953 842.352,-544.503 852.947,-544.575 850.68,-537.953"/>
</g>
<!-- bundle&#45;&gt;jar -->
<g id="edge17" class="edge"><title>bundle&#45;&gt;jar</title>
<path fill="none" stroke="black" stroke-dasharray="5,2" d="M1032.87,-462.331C973.161,-449.855 830.291,-420.001 762.25,-405.784"/>
<polygon fill="black" stroke="black" points="762.888,-402.341 752.384,-403.722 761.457,-409.193 762.888,-402.341"/>
</g>
<!-- bundle&#45;&gt;test -->
<g id="edge19" class="edge"><title>bundle&#45;&gt;test</title>
<path fill="none" stroke="black" d="M1032.89,-464.562C988.649,-458.407 903.784,-444.14 883,-423 824.729,-363.732 902.683,-295.582 840,-241 823.177,-226.351 680.975,-219.578 612.099,-217.133"/>
<polygon fill="black" stroke="black" points="612.212,-213.635 602.098,-216.791 611.972,-220.631 612.212,-213.635"/>
</g>
<!-- bundleTest -->
<g id="node16" class="node"><title>bundleTest</title>
<polygon fill="cyan" stroke="black" points="1110.25,-415 1033.75,-415 1033.75,-379 1110.25,-379 1110.25,-415"/>
<text text-anchor="middle" x="1072" y="-393.3" font-family="Times,serif" font-size="14.00">bundleTest</text>
</g>
<!-- bundle&#45;&gt;bundleTest -->
<g id="edge18" class="edge"><title>bundle&#45;&gt;bundleTest</title>
<path fill="none" stroke="black" d="M1062.97,-450.697C1064.29,-442.983 1065.88,-433.712 1067.35,-425.112"/>
<polygon fill="black" stroke="black" points="1070.83,-425.552 1069.07,-415.104 1063.93,-424.369 1070.83,-425.552"/>
</g>
<!-- release -->
<g id="node17" class="node"><title>release</title>
<polygon fill="cyan" stroke="black" points="1009,-415 955,-415 955,-379 1009,-379 1009,-415"/>
<text text-anchor="middle" x="982" y="-393.3" font-family="Times,serif" font-size="14.00">release</text>
</g>
<!-- bundle&#45;&gt;release -->
<g id="edge20" class="edge"><title>bundle&#45;&gt;release</title>
<path fill="none" stroke="black" d="M1040.72,-450.697C1031.08,-442.05 1019.27,-431.449 1008.77,-422.027"/>
<polygon fill="black" stroke="black" points="1010.84,-419.179 1001.06,-415.104 1006.16,-424.388 1010.84,-419.179"/>
</g>
<!-- export -->
<g id="node21" class="node"><title>export</title>
<polygon fill="cyan" stroke="black" points="1189,-415 1135,-415 1135,-379 1189,-379 1189,-415"/>
<text text-anchor="middle" x="1162" y="-393.3" font-family="Times,serif" font-size="14.00">export</text>
</g>
<!-- bundle&#45;&gt;export -->
<g id="edge21" class="edge"><title>bundle&#45;&gt;export</title>
<path fill="none" stroke="black" d="M1084.95,-450.876C1098.04,-441.893 1114.26,-430.763 1128.44,-421.034"/>
<polygon fill="black" stroke="black" points="1130.69,-423.734 1136.95,-415.19 1126.73,-417.962 1130.69,-423.734"/>
</g>
<!-- bundleTest&#45;&gt;check -->
<g id="edge22" class="edge"><title>bundleTest&#45;&gt;check</title>
<path fill="none" stroke="black" d="M1071.53,-378.697C1069.67,-346.63 1060.97,-277.886 1021,-241 960.615,-185.279 707.993,-149.236 612.119,-137.335"/>
<polygon fill="black" stroke="black" points="612.368,-133.84 602.016,-136.099 611.517,-140.788 612.368,-133.84"/>
</g>
<!-- releaseNeeded -->
<g id="node18" class="node"><title>releaseNeeded</title>
<polygon fill="cyan" stroke="black" points="990.25,-316 895.75,-316 895.75,-280 990.25,-280 990.25,-316"/>
<text text-anchor="middle" x="943" y="-294.3" font-family="Times,serif" font-size="14.00">releaseNeeded</text>
</g>
<!-- release&#45;&gt;releaseNeeded -->
<g id="edge23" class="edge"><title>release&#45;&gt;releaseNeeded</title>
<path fill="none" stroke="black" d="M975.028,-378.658C969.093,-363.899 960.475,-342.464 953.673,-325.546"/>
<polygon fill="black" stroke="black" points="956.89,-324.164 949.912,-316.192 950.395,-326.775 956.89,-324.164"/>
</g>
<!-- distIndexOBR -->
<g id="node34" class="node"><title>distIndexOBR</title>
<polygon fill="cyan" stroke="black" points="1477,-316 1403,-316 1403,-280 1477,-280 1477,-316"/>
<text text-anchor="middle" x="1440" y="-294.3" font-family="Times,serif" font-size="14.00">indexOBR</text>
</g>
<!-- release&#45;&gt;distIndexOBR -->
<g id="edge38" class="edge"><title>release&#45;&gt;distIndexOBR</title>
<path fill="none" stroke="red" d="M989.018,-378.977C995.345,-365.962 1005.97,-348.804 1021,-340 1082.99,-303.68 1296.86,-298.964 1392.79,-298.731"/>
<polygon fill="red" stroke="red" points="1392.79,-302.231 1402.79,-298.722 1392.79,-295.231 1392.79,-302.231"/>
</g>
<!-- distIndexR5 -->
<g id="node35" class="node"><title>distIndexR5</title>
<polygon fill="cyan" stroke="black" points="1557,-316 1495,-316 1495,-280 1557,-280 1557,-316"/>
<text text-anchor="middle" x="1526" y="-294.3" font-family="Times,serif" font-size="14.00">indexR5</text>
</g>
<!-- release&#45;&gt;distIndexR5 -->
<g id="edge39" class="edge"><title>release&#45;&gt;distIndexR5</title>
<path fill="none" stroke="red" d="M988.706,-378.914C994.91,-365.677 1005.53,-348.25 1021,-340 1043.8,-327.844 1461.76,-340.944 1486,-332 1491.74,-329.884 1497.24,-326.568 1502.24,-322.838"/>
<polygon fill="red" stroke="red" points="1504.65,-325.386 1510.12,-316.309 1500.18,-319.997 1504.65,-325.386"/>
</g>
<!-- releaseNeeded&#45;&gt;releaseNeeded -->
<g id="edge24" class="edge"><title>releaseNeeded&#45;&gt;releaseNeeded</title>
<path fill="none" stroke="red" d="M990.326,-312.921C1000.57,-311.462 1008,-306.488 1008,-298 1008,-292.562 1004.95,-288.567 1000.07,-286.014"/>
<polygon fill="red" stroke="red" points="1000.91,-282.613 990.326,-283.079 998.891,-289.315 1000.91,-282.613"/>
</g>
<!-- cleanBnd -->
<g id="node19" class="node"><title>cleanBnd</title>
<polygon fill="cyan" stroke="black" points="1371,-415 1317,-415 1317,-379 1371,-379 1371,-415"/>
<text text-anchor="middle" x="1344" y="-393.3" font-family="Times,serif" font-size="14.00">clean</text>
</g>
<!-- bndproperties -->
<g id="node20" class="node"><title>bndproperties</title>
<polygon fill="cyan" stroke="black" points="1298.25,-415 1207.75,-415 1207.75,-379 1298.25,-379 1298.25,-415"/>
<text text-anchor="middle" x="1253" y="-393.3" font-family="Times,serif" font-size="14.00">bndproperties</text>
</g>
<!-- wrapper -->
<g id="node22" class="node"><title>wrapper</title>
<polygon fill="cyan" stroke="black" points="1156.25,-578 1095.75,-578 1095.75,-542 1156.25,-542 1156.25,-578"/>
<text text-anchor="middle" x="1126" y="-556.3" font-family="Times,serif" font-size="14.00">wrapper</text>
</g>
<!-- findbugstest -->
<g id="node23" class="node"><title>findbugstest</title>
<polygon fill="cyan" stroke="black" points="228.25,-233 145.75,-233 145.75,-197 228.25,-197 228.25,-233"/>
<text text-anchor="middle" x="187" y="-211.3" font-family="Times,serif" font-size="14.00">findbugstest</text>
</g>
<!-- findbugstest&#45;&gt;check -->
<g id="edge30" class="edge"><title>findbugstest&#45;&gt;check</title>
<path fill="none" stroke="green" d="M222.035,-196.919C250.034,-184.053 290.642,-167.121 328,-158 400.947,-140.19 489,-135.043 537.816,-133.571"/>
<polygon fill="green" stroke="green" points="538.002,-137.068 547.906,-133.303 537.816,-130.07 538.002,-137.068"/>
</g>
<!-- findbugsTest&#45;&gt;findbugstest -->
<g id="edge28" class="edge"><title>findbugsTest&#45;&gt;findbugstest</title>
<path fill="none" stroke="black" d="M186.212,-279.822C186.343,-269.19 186.515,-255.306 186.664,-243.204"/>
<polygon fill="black" stroke="black" points="190.164,-243.196 186.788,-233.153 183.165,-243.109 190.164,-243.196"/>
</g>
<!-- findbugs -->
<g id="node25" class="node"><title>findbugs</title>
<polygon fill="cyan" stroke="black" points="110,-233 46,-233 46,-197 110,-197 110,-233"/>
<text text-anchor="middle" x="78" y="-211.3" font-family="Times,serif" font-size="14.00">findbugs</text>
</g>
<!-- findbugs&#45;&gt;check -->
<g id="edge29" class="edge"><title>findbugs&#45;&gt;check</title>
<path fill="none" stroke="green" d="M88.467,-196.968C97.6254,-183.763 112.228,-166.351 130,-158 166.404,-140.894 437.227,-135.083 537.664,-133.504"/>
<polygon fill="green" stroke="green" points="537.999,-137 547.944,-133.348 537.892,-130 537.999,-137"/>
</g>
<!-- findbugsMain&#45;&gt;findbugs -->
<g id="edge27" class="edge"><title>findbugsMain&#45;&gt;findbugs</title>
<path fill="none" stroke="black" d="M72.4845,-279.822C73.4033,-269.19 74.6032,-255.306 75.6491,-243.204"/>
<polygon fill="black" stroke="black" points="79.1435,-243.417 76.5176,-233.153 72.1695,-242.815 79.1435,-243.417"/>
</g>
<!-- indexOBR -->
<g id="node27" class="node"><title>indexOBR</title>
<polygon fill="cyan" stroke="black" points="1777,-578 1703,-578 1703,-542 1777,-542 1777,-578"/>
<text text-anchor="middle" x="1740" y="-556.3" font-family="Times,serif" font-size="14.00">indexOBR</text>
</g>
<!-- index -->
<g id="node29" class="node"><title>index</title>
<polygon fill="cyan" stroke="black" points="1724,-487 1670,-487 1670,-451 1724,-451 1724,-487"/>
<text text-anchor="middle" x="1697" y="-465.3" font-family="Times,serif" font-size="14.00">index</text>
</g>
<!-- indexOBR&#45;&gt;index -->
<g id="edge31" class="edge"><title>indexOBR&#45;&gt;index</title>
<path fill="none" stroke="black" d="M1731.71,-541.84C1725.46,-528.912 1716.79,-510.958 1709.67,-496.232"/>
<polygon fill="black" stroke="black" points="1712.77,-494.589 1705.27,-487.107 1706.46,-497.634 1712.77,-494.589"/>
</g>
<!-- indexR5 -->
<g id="node28" class="node"><title>indexR5</title>
<polygon fill="cyan" stroke="black" points="1685,-578 1623,-578 1623,-542 1685,-542 1685,-578"/>
<text text-anchor="middle" x="1654" y="-556.3" font-family="Times,serif" font-size="14.00">indexR5</text>
</g>
<!-- indexR5&#45;&gt;index -->
<g id="edge32" class="edge"><title>indexR5&#45;&gt;index</title>
<path fill="none" stroke="black" d="M1662.29,-541.84C1668.54,-528.912 1677.21,-510.958 1684.33,-496.232"/>
<polygon fill="black" stroke="black" points="1687.54,-497.634 1688.73,-487.107 1681.23,-494.589 1687.54,-497.634"/>
</g>
<!-- clean -->
<g id="node30" class="node"><title>clean</title>
<polygon fill="lightcyan" stroke="black" points="1537,-578 1483,-578 1483,-542 1537,-542 1537,-578"/>
<text text-anchor="middle" x="1510" y="-556.3" font-family="Times,serif" font-size="14.00">clean</text>
</g>
<!-- cleanNeeded -->
<g id="node31" class="node"><title>cleanNeeded</title>
<polygon fill="cyan" stroke="black" points="1497,-487 1411,-487 1411,-451 1497,-451 1497,-487"/>
<text text-anchor="middle" x="1454" y="-465.3" font-family="Times,serif" font-size="14.00">cleanNeeded</text>
</g>
<!-- clean&#45;&gt;cleanNeeded -->
<g id="edge33" class="edge"><title>clean&#45;&gt;cleanNeeded</title>
<path fill="none" stroke="blue" d="M1499.2,-541.84C1490.99,-528.789 1479.56,-510.615 1470.24,-495.813"/>
<polygon fill="blue" stroke="blue" points="1473.05,-493.707 1464.76,-487.107 1467.13,-497.435 1473.05,-493.707"/>
</g>
<!-- distclean -->
<g id="node32" class="node"><title>distclean</title>
<polygon fill="cyan" stroke="black" points="1598.25,-487 1533.75,-487 1533.75,-451 1598.25,-451 1598.25,-487"/>
<text text-anchor="middle" x="1566" y="-465.3" font-family="Times,serif" font-size="14.00">distclean</text>
</g>
<!-- clean&#45;&gt;distclean -->
<g id="edge35" class="edge"><title>clean&#45;&gt;distclean</title>
<path fill="none" stroke="blue" d="M1520.8,-541.84C1529.01,-528.789 1540.44,-510.615 1549.76,-495.813"/>
<polygon fill="blue" stroke="blue" points="1552.87,-497.435 1555.24,-487.107 1546.95,-493.707 1552.87,-497.435"/>
</g>
<!-- cleanNeeded&#45;&gt;cleanNeeded -->
<g id="edge34" class="edge"><title>cleanNeeded&#45;&gt;cleanNeeded</title>
<path fill="none" stroke="red" d="M1497.04,-482.262C1507.35,-481.225 1515,-476.805 1515,-469 1515,-464 1511.86,-460.389 1506.89,-458.167"/>
<polygon fill="red" stroke="red" points="1507.58,-454.732 1497.04,-455.738 1505.91,-461.529 1507.58,-454.732"/>
</g>
<!-- distcleanNeeded -->
<g id="node33" class="node"><title>distcleanNeeded</title>
<polygon fill="cyan" stroke="black" points="1581,-415 1475,-415 1475,-379 1581,-379 1581,-415"/>
<text text-anchor="middle" x="1528" y="-393.3" font-family="Times,serif" font-size="14.00">distcleanNeeded</text>
</g>
<!-- distclean&#45;&gt;distcleanNeeded -->
<g id="edge36" class="edge"><title>distclean&#45;&gt;distcleanNeeded</title>
<path fill="none" stroke="black" d="M1556.61,-450.697C1552.24,-442.644 1546.94,-432.894 1542.1,-423.982"/>
<polygon fill="black" stroke="black" points="1545.13,-422.223 1537.29,-415.104 1538.98,-425.563 1545.13,-422.223"/>
</g>
<!-- distcleanNeeded&#45;&gt;distcleanNeeded -->
<g id="edge37" class="edge"><title>distcleanNeeded&#45;&gt;distcleanNeeded</title>
<path fill="none" stroke="red" d="M1581.26,-409.899C1591.63,-408.401 1599,-404.102 1599,-397 1599,-392.451 1595.98,-389.051 1591.08,-386.801"/>
<polygon fill="red" stroke="red" points="1591.83,-383.378 1581.26,-384.101 1589.97,-390.128 1591.83,-383.378"/>
</g>
<!-- distIndex -->
<g id="node36" class="node"><title>distIndex</title>
<polygon fill="cyan" stroke="black" points="1510,-233 1456,-233 1456,-197 1510,-197 1510,-233"/>
<text text-anchor="middle" x="1483" y="-211.3" font-family="Times,serif" font-size="14.00">index</text>
</g>
<!-- distIndexOBR&#45;&gt;distIndex -->
<g id="edge40" class="edge"><title>distIndexOBR&#45;&gt;distIndex</title>
<path fill="none" stroke="black" d="M1449.12,-279.822C1454.93,-268.868 1462.58,-254.462 1469.14,-242.108"/>
<polygon fill="black" stroke="black" points="1472.3,-243.627 1473.89,-233.153 1466.11,-240.345 1472.3,-243.627"/>
</g>
<!-- distIndexR5&#45;&gt;distIndex -->
<g id="edge41" class="edge"><title>distIndexR5&#45;&gt;distIndex</title>
<path fill="none" stroke="black" d="M1516.88,-279.822C1511.07,-268.868 1503.42,-254.462 1496.86,-242.108"/>
<polygon fill="black" stroke="black" points="1499.89,-240.345 1492.11,-233.153 1493.7,-243.627 1499.89,-240.345"/>
</g>
<!-- distDist -->
<g id="node37" class="node"><title>distDist</title>
<polygon fill="cyan" stroke="black" points="1510,-150 1456,-150 1456,-114 1510,-114 1510,-150"/>
<text text-anchor="middle" x="1483" y="-128.3" font-family="Times,serif" font-size="14.00">dist</text>
</g>
<!-- distIndex&#45;&gt;distDist -->
<g id="edge42" class="edge"><title>distIndex&#45;&gt;distDist</title>
<path fill="none" stroke="black" d="M1483,-196.822C1483,-186.19 1483,-172.306 1483,-160.204"/>
<polygon fill="black" stroke="black" points="1486.5,-160.153 1483,-150.153 1479.5,-160.153 1486.5,-160.153"/>
</g>
</g>
</svg>
