<?xml version="1.0" encoding="UTF-8" standalone="no"?>
<!DOCTYPE svg PUBLIC "-//W3C//DTD SVG 1.1//EN"
 "http://www.w3.org/Graphics/SVG/1.1/DTD/svg11.dtd">
<!-- Generated by graphviz version 2.34.0 (20140110.0949)
 -->
<!-- Title: GradleSetup Pages: 1 -->
<svg width="1761pt" height="630pt"
 viewBox="0.00 0.00 1760.85 630.00" xmlns="http://www.w3.org/2000/svg" xmlns:xlink="http://www.w3.org/1999/xlink">
<g id="graph0" class="graph" transform="scale(1 1) rotate(0) translate(4 626)">
<title>GradleSetup</title>
<polygon fill="white" stroke="white" points="-4,4 -4,-626 1756.85,-626 1756.85,4 -4,4"/>
<text text-anchor="middle" x="61" y="-606.8" font-family="Times,serif" font-size="14.00">Gradle Build Setup</text>
<g id="clust1" class="cluster"><title>cluster1</title>
<polygon fill="lightgrey" stroke="black" points="656.852,-8 656.852,-591 1345.85,-591 1345.85,-8 656.852,-8"/>
<text text-anchor="middle" x="696.852" y="-15.8" font-family="Times,serif" font-size="14.00">Java Plugin</text>
</g>
<g id="clust2" class="cluster"><title>cluster11</title>
</g>
<g id="clust3" class="cluster"><title>cluster12</title>
</g>
<g id="clust4" class="cluster"><title>cluster13</title>
</g>
<g id="clust5" class="cluster"><title>cluster2</title>
<polygon fill="lightgrey" stroke="black" points="140.852,-238 140.852,-500 648.852,-500 648.852,-238 140.852,-238"/>
<text text-anchor="middle" x="183.852" y="-245.8" font-family="Times,serif" font-size="14.00">Bnd Projects</text>
</g>
<g id="clust6" class="cluster"><title>cluster21</title>
</g>
<g id="clust7" class="cluster"><title>cluster22</title>
</g>
<g id="clust8" class="cluster"><title>cluster23</title>
</g>
<g id="clust9" class="cluster"><title>cluster3</title>
<polygon fill="lightgrey" stroke="black" points="1353.85,-508 1353.85,-583 1438.85,-583 1438.85,-508 1353.85,-508"/>
<text text-anchor="middle" x="1396.35" y="-515.8" font-family="Times,serif" font-size="14.00">Root Project</text>
</g>
<g id="clust10" class="cluster"><title>cluster4</title>
<polygon fill="lightgrey" stroke="black" points="1353.85,-155 1353.85,-329 1591.85,-329 1591.85,-155 1353.85,-155"/>
<text text-anchor="middle" x="1397.85" y="-162.8" font-family="Times,serif" font-size="14.00">Java Projects</text>
</g>
<g id="clust11" class="cluster"><title>cluster41</title>
</g>
<g id="clust12" class="cluster"><title>cluster42</title>
</g>
<g id="clust13" class="cluster"><title>cluster5</title>
<polygon fill="lightgrey" stroke="black" points="1446.85,-337 1446.85,-591 1744.85,-591 1744.85,-337 1446.85,-337"/>
<text text-anchor="middle" x="1487.35" y="-344.8" font-family="Times,serif" font-size="14.00">All Projects</text>
</g>
<g id="clust14" class="cluster"><title>cluster21</title>
</g>
<g id="clust15" class="cluster"><title>cluster22</title>
</g>
<g id="clust16" class="cluster"><title>cluster100</title>
<polygon fill="lightgrey" stroke="black" points="40.8515,-163 40.8515,-321 121.852,-321 121.852,-163 40.8515,-163"/>
<text text-anchor="middle" x="81.3515" y="-170.8" font-family="Times,serif" font-size="14.00">Dist Project</text>
</g>
<!-- compileJava -->
<g id="node1" class="node"><title>compileJava</title>
<polygon fill="lightcyan" stroke="black" points="822.102,-575 737.602,-575 737.602,-539 822.102,-539 822.102,-575"/>
<text text-anchor="middle" x="779.852" y="-553.3" font-family="Times,serif" font-size="14.00">compileJava</text>
</g>
<!-- classes -->
<g id="node3" class="node"><title>classes</title>
<polygon fill="lightcyan" stroke="black" points="953.852,-484 899.852,-484 899.852,-448 953.852,-448 953.852,-484"/>
<text text-anchor="middle" x="926.852" y="-462.3" font-family="Times,serif" font-size="14.00">classes</text>
</g>
<!-- compileJava&#45;&gt;classes -->
<g id="edge1" class="edge"><title>compileJava&#45;&gt;classes</title>
<path fill="none" stroke="black" d="M795.141,-538.852C804.679,-528.897 817.624,-516.654 830.852,-508 849.106,-496.057 871.417,-486.281 889.935,-479.274"/>
<polygon fill="black" stroke="black" points="891.32,-482.494 899.507,-475.768 888.913,-475.921 891.32,-482.494"/>
</g>
<!-- processResources -->
<g id="node2" class="node"><title>processResources</title>
<polygon fill="lightcyan" stroke="black" points="953.102,-575 840.602,-575 840.602,-539 953.102,-539 953.102,-575"/>
<text text-anchor="middle" x="896.852" y="-553.3" font-family="Times,serif" font-size="14.00">processResources</text>
</g>
<!-- processResources&#45;&gt;classes -->
<g id="edge2" class="edge"><title>processResources&#45;&gt;classes</title>
<path fill="none" stroke="black" d="M902.636,-538.84C906.952,-526.035 912.93,-508.299 917.867,-493.654"/>
<polygon fill="black" stroke="black" points="921.207,-494.702 921.085,-484.107 914.574,-492.466 921.207,-494.702"/>
</g>
<!-- jar -->
<g id="node4" class="node"><title>jar</title>
<polygon fill="lightcyan" stroke="black" points="878.852,-412 824.852,-412 824.852,-376 878.852,-376 878.852,-412"/>
<text text-anchor="middle" x="851.852" y="-390.3" font-family="Times,serif" font-size="14.00">jar</text>
</g>
<!-- classes&#45;&gt;jar -->
<g id="edge6" class="edge"><title>classes&#45;&gt;jar</title>
<path fill="none" stroke="black" d="M908.312,-447.697C899.048,-439.05 887.689,-428.449 877.595,-419.027"/>
<polygon fill="black" stroke="black" points="879.876,-416.369 870.178,-412.104 875.1,-421.486 879.876,-416.369"/>
</g>
<!-- compileTestJava -->
<g id="node5" class="node"><title>compileTestJava</title>
<polygon fill="lightcyan" stroke="black" points="1239.85,-412 1131.85,-412 1131.85,-376 1239.85,-376 1239.85,-412"/>
<text text-anchor="middle" x="1185.85" y="-390.3" font-family="Times,serif" font-size="14.00">compileTestJava</text>
</g>
<!-- classes&#45;&gt;compileTestJava -->
<g id="edge5" class="edge"><title>classes&#45;&gt;compileTestJava</title>
<path fill="none" stroke="black" d="M954.146,-460.096C992.336,-452.928 1063.68,-438.416 1122.85,-420 1127.14,-418.666 1131.55,-417.174 1135.95,-415.601"/>
<polygon fill="black" stroke="black" points="1137.35,-418.814 1145.51,-412.058 1134.92,-412.25 1137.35,-418.814"/>
</g>
<!-- test -->
<g id="node8" class="node"><title>test</title>
<polygon fill="lightcyan" stroke="black" points="1212.85,-230 1158.85,-230 1158.85,-194 1212.85,-194 1212.85,-230"/>
<text text-anchor="middle" x="1185.85" y="-208.3" font-family="Times,serif" font-size="14.00">test</text>
</g>
<!-- classes&#45;&gt;test -->
<g id="edge4" class="edge"><title>classes&#45;&gt;test</title>
<path fill="none" stroke="black" d="M954.022,-465.535C1024.54,-466.284 1210.6,-463.97 1248.85,-420 1275.5,-389.369 1256.48,-271.018 1232.85,-238 1229.84,-233.786 1225.89,-230.219 1221.56,-227.217"/>
<polygon fill="black" stroke="black" points="1223.3,-224.183 1212.91,-222.121 1219.75,-230.214 1223.3,-224.183"/>
</g>
<!-- javadoc -->
<g id="node13" class="node"><title>javadoc</title>
<polygon fill="lightcyan" stroke="black" points="1337.1,-412 1278.6,-412 1278.6,-376 1337.1,-376 1337.1,-412"/>
<text text-anchor="middle" x="1307.85" y="-390.3" font-family="Times,serif" font-size="14.00">javadoc</text>
</g>
<!-- classes&#45;&gt;javadoc -->
<g id="edge3" class="edge"><title>classes&#45;&gt;javadoc</title>
<path fill="none" stroke="black" d="M953.852,-464.859C1012.07,-463.815 1153.09,-457.287 1263.85,-420 1266.76,-419.022 1269.68,-417.847 1272.58,-416.546"/>
<polygon fill="black" stroke="black" points="1274.23,-419.635 1281.63,-412.052 1271.11,-413.366 1274.23,-419.635"/>
</g>
<!-- bundle -->
<g id="node15" class="node"><title>bundle</title>
<polygon fill="cyan" stroke="black" points="234.852,-484 180.852,-484 180.852,-448 234.852,-448 234.852,-484"/>
<text text-anchor="middle" x="207.852" y="-462.3" font-family="Times,serif" font-size="14.00">bundle</text>
</g>
<!-- classes&#45;&gt;bundle -->
<g id="edge15" class="edge"><title>classes&#45;&gt;bundle</title>
<path fill="none" stroke="black" d="M899.822,-466C681.531,-466 463.24,-466 244.949,-466"/>
<polygon fill="black" stroke="black" points="244.884,-462.5 234.884,-466 244.884,-469.5 244.884,-462.5"/>
</g>
<!-- findbugsMain -->
<g id="node26" class="node"><title>findbugsMain</title>
<polygon fill="cyan" stroke="black" points="1463.1,-313 1370.6,-313 1370.6,-277 1463.1,-277 1463.1,-313"/>
<text text-anchor="middle" x="1416.85" y="-291.3" font-family="Times,serif" font-size="14.00">findbugsMain</text>
</g>
<!-- classes&#45;&gt;findbugsMain -->
<g id="edge25" class="edge"><title>classes&#45;&gt;findbugsMain</title>
<path fill="none" stroke="black" d="M953.988,-465.331C1036.83,-465.853 1284.76,-463.65 1349.85,-420 1383.52,-397.424 1401.67,-352.143 1410.29,-322.995"/>
<polygon fill="black" stroke="black" points="1413.74,-323.629 1413.04,-313.058 1407,-321.759 1413.74,-323.629"/>
</g>
<!-- uploadArchives -->
<g id="node10" class="node"><title>uploadArchives</title>
<polygon fill="lightcyan" stroke="black" points="953.852,-313 851.852,-313 851.852,-277 953.852,-277 953.852,-313"/>
<text text-anchor="middle" x="902.852" y="-291.3" font-family="Times,serif" font-size="14.00">uploadArchives</text>
</g>
<!-- jar&#45;&gt;uploadArchives -->
<g id="edge9" class="edge"><title>jar&#45;&gt;uploadArchives</title>
<path fill="none" stroke="black" d="M860.969,-375.658C868.802,-360.761 880.21,-339.063 889.143,-322.073"/>
<polygon fill="black" stroke="black" points="892.257,-323.672 893.813,-313.192 886.061,-320.414 892.257,-323.672"/>
</g>
<!-- assemble -->
<g id="node11" class="node"><title>assemble</title>
<polygon fill="lightcyan" stroke="black" points="833.102,-313 766.602,-313 766.602,-277 833.102,-277 833.102,-313"/>
<text text-anchor="middle" x="799.852" y="-291.3" font-family="Times,serif" font-size="14.00">assemble</text>
</g>
<!-- jar&#45;&gt;assemble -->
<g id="edge10" class="edge"><title>jar&#45;&gt;assemble</title>
<path fill="none" stroke="black" d="M842.555,-375.658C834.569,-360.761 822.937,-339.063 813.829,-322.073"/>
<polygon fill="black" stroke="black" points="816.877,-320.351 809.068,-313.192 810.708,-323.659 816.877,-320.351"/>
</g>
<!-- testClasses -->
<g id="node7" class="node"><title>testClasses</title>
<polygon fill="lightcyan" stroke="black" points="1223.85,-313 1147.85,-313 1147.85,-277 1223.85,-277 1223.85,-313"/>
<text text-anchor="middle" x="1185.85" y="-291.3" font-family="Times,serif" font-size="14.00">testClasses</text>
</g>
<!-- compileTestJava&#45;&gt;testClasses -->
<g id="edge7" class="edge"><title>compileTestJava&#45;&gt;testClasses</title>
<path fill="none" stroke="black" d="M1185.85,-375.658C1185.85,-361.175 1185.85,-340.263 1185.85,-323.499"/>
<polygon fill="black" stroke="black" points="1189.35,-323.191 1185.85,-313.192 1182.35,-323.192 1189.35,-323.191"/>
</g>
<!-- processTestResources -->
<g id="node6" class="node"><title>processTestResources</title>
<polygon fill="lightcyan" stroke="black" points="1113.85,-412 977.852,-412 977.852,-376 1113.85,-376 1113.85,-412"/>
<text text-anchor="middle" x="1045.85" y="-390.3" font-family="Times,serif" font-size="14.00">processTestResources</text>
</g>
<!-- processTestResources&#45;&gt;testClasses -->
<g id="edge8" class="edge"><title>processTestResources&#45;&gt;testClasses</title>
<path fill="none" stroke="black" d="M1068.88,-375.775C1084.06,-364.534 1104.47,-349.653 1122.85,-337 1131.73,-330.888 1141.44,-324.452 1150.52,-318.537"/>
<polygon fill="black" stroke="black" points="1152.49,-321.428 1158.98,-313.053 1148.68,-315.554 1152.49,-321.428"/>
</g>
<!-- testClasses&#45;&gt;test -->
<g id="edge11" class="edge"><title>testClasses&#45;&gt;test</title>
<path fill="none" stroke="black" d="M1185.85,-276.822C1185.85,-266.19 1185.85,-252.306 1185.85,-240.204"/>
<polygon fill="black" stroke="black" points="1189.35,-240.153 1185.85,-230.153 1182.35,-240.153 1189.35,-240.153"/>
</g>
<!-- findbugsTest -->
<g id="node24" class="node"><title>findbugsTest</title>
<polygon fill="cyan" stroke="black" points="1575.1,-313 1488.6,-313 1488.6,-277 1575.1,-277 1575.1,-313"/>
<text text-anchor="middle" x="1531.85" y="-291.3" font-family="Times,serif" font-size="14.00">findbugsTest</text>
</g>
<!-- testClasses&#45;&gt;findbugsTest -->
<g id="edge26" class="edge"><title>testClasses&#45;&gt;findbugsTest</title>
<path fill="none" stroke="black" d="M1223.97,-305.407C1260.36,-314.764 1316.87,-327.81 1366.85,-333 1388.95,-335.295 1445.11,-337.613 1466.85,-333 1478.72,-330.481 1490.53,-324.794 1500.75,-318.567"/>
<polygon fill="black" stroke="black" points="1502.82,-321.401 1509.3,-313.022 1499.01,-315.529 1502.82,-321.401"/>
</g>
<!-- check -->
<g id="node9" class="node"><title>check</title>
<polygon fill="lightcyan" stroke="black" points="1212.85,-147 1158.85,-147 1158.85,-111 1212.85,-111 1212.85,-147"/>
<text text-anchor="middle" x="1185.85" y="-125.3" font-family="Times,serif" font-size="14.00">check</text>
</g>
<!-- test&#45;&gt;check -->
<g id="edge13" class="edge"><title>test&#45;&gt;check</title>
<path fill="none" stroke="black" d="M1185.85,-193.822C1185.85,-183.19 1185.85,-169.306 1185.85,-157.204"/>
<polygon fill="black" stroke="black" points="1189.35,-157.153 1185.85,-147.153 1182.35,-157.153 1189.35,-157.153"/>
</g>
<!-- build -->
<g id="node12" class="node"><title>build</title>
<polygon fill="lightcyan" stroke="black" points="1099.85,-75 1045.85,-75 1045.85,-39 1099.85,-39 1099.85,-75"/>
<text text-anchor="middle" x="1072.85" y="-53.3" font-family="Times,serif" font-size="14.00">build</text>
</g>
<!-- check&#45;&gt;build -->
<g id="edge14" class="edge"><title>check&#45;&gt;build</title>
<path fill="none" stroke="black" d="M1165.56,-110.799C1162.07,-108.083 1158.41,-105.386 1154.85,-103 1140.46,-93.3613 1123.83,-83.9441 1109.33,-76.2366"/>
<polygon fill="black" stroke="black" points="1110.63,-72.9672 1100.14,-71.4334 1107.38,-79.1699 1110.63,-72.9672"/>
</g>
<!-- assemble&#45;&gt;build -->
<g id="edge12" class="edge"><title>assemble&#45;&gt;build</title>
<path fill="none" stroke="black" d="M810.612,-276.759C834.355,-239.999 894.802,-153.188 965.852,-103 987.262,-87.8759 1014.54,-76.5032 1036.2,-68.9744"/>
<polygon fill="black" stroke="black" points="1037.34,-72.2826 1045.71,-65.786 1035.11,-65.6455 1037.34,-72.2826"/>
</g>
<!-- cleanJava -->
<g id="node14" class="node"><title>cleanJava</title>
<polygon fill="lightcyan" stroke="black" points="718.852,-575 664.852,-575 664.852,-539 718.852,-539 718.852,-575"/>
<text text-anchor="middle" x="691.852" y="-553.3" font-family="Times,serif" font-size="14.00">clean</text>
</g>
<!-- bundle&#45;&gt;compileJava -->
<g id="edge16" class="edge"><title>bundle&#45;&gt;compileJava</title>
<path fill="none" stroke="red" d="M235.087,-466.636C329.693,-465.753 643.183,-466.122 732.852,-508 743.855,-513.139 753.683,-522.038 761.471,-530.789"/>
<polygon fill="red" stroke="red" points="758.94,-533.22 768.025,-538.672 764.323,-528.745 758.94,-533.22"/>
</g>
<!-- bundle&#45;&gt;jar -->
<g id="edge17" class="edge"><title>bundle&#45;&gt;jar</title>
<path fill="none" stroke="black" stroke-dasharray="5,2" d="M234.973,-462.374C303.625,-455.692 489.848,-437.34 644.852,-420 704.254,-413.355 773.148,-404.881 814.574,-399.702"/>
<polygon fill="black" stroke="black" points="815.257,-403.144 824.744,-398.428 814.386,-396.198 815.257,-403.144"/>
</g>
<!-- bundle&#45;&gt;test -->
<g id="edge19" class="edge"><title>bundle&#45;&gt;test</title>
<path fill="none" stroke="black" d="M180.646,-452.038C168.233,-444.557 154.781,-433.859 147.852,-420 131.354,-387.006 133.735,-371.081 147.852,-337 171.664,-279.511 189.685,-262.576 246.852,-238 288.883,-219.931 978.943,-214.329 1148.47,-213.222"/>
<polygon fill="black" stroke="black" points="1148.67,-216.721 1158.64,-213.157 1148.62,-209.721 1148.67,-216.721"/>
</g>
<!-- bundleTest -->
<g id="node16" class="node"><title>bundleTest</title>
<polygon fill="cyan" stroke="black" points="234.102,-412 157.602,-412 157.602,-376 234.102,-376 234.102,-412"/>
<text text-anchor="middle" x="195.852" y="-390.3" font-family="Times,serif" font-size="14.00">bundleTest</text>
</g>
<!-- bundle&#45;&gt;bundleTest -->
<g id="edge18" class="edge"><title>bundle&#45;&gt;bundleTest</title>
<path fill="none" stroke="black" d="M204.885,-447.697C203.563,-439.983 201.974,-430.712 200.499,-422.112"/>
<polygon fill="black" stroke="black" points="203.923,-421.369 198.784,-412.104 197.024,-422.552 203.923,-421.369"/>
</g>
<!-- release -->
<g id="node17" class="node"><title>release</title>
<polygon fill="cyan" stroke="black" points="312.852,-412 258.852,-412 258.852,-376 312.852,-376 312.852,-412"/>
<text text-anchor="middle" x="285.852" y="-390.3" font-family="Times,serif" font-size="14.00">release</text>
</g>
<!-- bundle&#45;&gt;release -->
<g id="edge20" class="edge"><title>bundle&#45;&gt;release</title>
<path fill="none" stroke="black" d="M227.132,-447.697C236.767,-439.05 248.58,-428.449 259.079,-419.027"/>
<polygon fill="black" stroke="black" points="261.688,-421.388 266.792,-412.104 257.012,-416.179 261.688,-421.388"/>
</g>
<!-- export -->
<g id="node21" class="node"><title>export</title>
<polygon fill="cyan" stroke="black" points="450.852,-412 396.852,-412 396.852,-376 450.852,-376 450.852,-412"/>
<text text-anchor="middle" x="423.852" y="-390.3" font-family="Times,serif" font-size="14.00">export</text>
</g>
<!-- bundle&#45;&gt;export -->
<g id="edge21" class="edge"><title>bundle&#45;&gt;export</title>
<path fill="none" stroke="black" d="M235.121,-460.868C270.661,-454.861 334.243,-441.966 384.852,-420 386.89,-419.115 388.942,-418.131 390.982,-417.078"/>
<polygon fill="black" stroke="black" points="392.773,-420.086 399.761,-412.122 389.332,-413.989 392.773,-420.086"/>
</g>
<!-- bundleTest&#45;&gt;check -->
<g id="edge22" class="edge"><title>bundleTest&#45;&gt;check</title>
<path fill="none" stroke="black" d="M157.493,-389.502C119.642,-383.778 63.6671,-368.7 36.8515,-329 -6.43438,-264.916 -17.2334,-210.274 36.8515,-155 56.7519,-134.662 953.993,-130.718 1148.79,-130.101"/>
<polygon fill="black" stroke="black" points="1148.83,-133.601 1158.82,-130.07 1148.81,-126.601 1148.83,-133.601"/>
</g>
<!-- releaseNeeded -->
<g id="node18" class="node"><title>releaseNeeded</title>
<polygon fill="cyan" stroke="black" points="354.102,-313 259.602,-313 259.602,-277 354.102,-277 354.102,-313"/>
<text text-anchor="middle" x="306.852" y="-291.3" font-family="Times,serif" font-size="14.00">releaseNeeded</text>
</g>
<!-- release&#45;&gt;releaseNeeded -->
<g id="edge23" class="edge"><title>release&#45;&gt;releaseNeeded</title>
<path fill="none" stroke="black" d="M289.606,-375.658C292.771,-361.037 297.355,-339.864 301.002,-323.021"/>
<polygon fill="black" stroke="black" points="304.434,-323.706 303.13,-313.192 297.593,-322.224 304.434,-323.706"/>
</g>
<!-- distIndex -->
<g id="node32" class="node"><title>distIndex</title>
<polygon fill="cyan" stroke="black" points="111.852,-313 57.8515,-313 57.8515,-277 111.852,-277 111.852,-313"/>
<text text-anchor="middle" x="84.8515" y="-291.3" font-family="Times,serif" font-size="14.00">index</text>
</g>
<!-- release&#45;&gt;distIndex -->
<g id="edge36" class="edge"><title>release&#45;&gt;distIndex</title>
<path fill="none" stroke="red" d="M278.045,-375.796C271.468,-363.211 260.882,-346.706 246.852,-337 209.445,-311.123 157.095,-301.564 122.135,-298.041"/>
<polygon fill="red" stroke="red" points="122.15,-294.529 111.88,-297.13 121.531,-301.501 122.15,-294.529"/>
</g>
<!-- releaseNeeded&#45;&gt;releaseNeeded -->
<g id="edge24" class="edge"><title>releaseNeeded&#45;&gt;releaseNeeded</title>
<path fill="none" stroke="red" d="M354.178,-309.921C364.422,-308.462 371.852,-303.488 371.852,-295 371.852,-289.562 368.802,-285.567 363.918,-283.014"/>
<polygon fill="red" stroke="red" points="364.762,-279.613 354.178,-280.079 362.743,-286.315 364.762,-279.613"/>
</g>
<!-- cleanBnd -->
<g id="node19" class="node"><title>cleanBnd</title>
<polygon fill="cyan" stroke="black" points="632.852,-412 578.852,-412 578.852,-376 632.852,-376 632.852,-412"/>
<text text-anchor="middle" x="605.852" y="-390.3" font-family="Times,serif" font-size="14.00">clean</text>
</g>
<!-- bndproperties -->
<g id="node20" class="node"><title>bndproperties</title>
<polygon fill="cyan" stroke="black" points="560.102,-412 469.602,-412 469.602,-376 560.102,-376 560.102,-412"/>
<text text-anchor="middle" x="514.852" y="-390.3" font-family="Times,serif" font-size="14.00">bndproperties</text>
</g>
<!-- wrapper -->
<g id="node22" class="node"><title>wrapper</title>
<polygon fill="cyan" stroke="black" points="1426.1,-575 1365.6,-575 1365.6,-539 1426.1,-539 1426.1,-575"/>
<text text-anchor="middle" x="1395.85" y="-553.3" font-family="Times,serif" font-size="14.00">wrapper</text>
</g>
<!-- findbugstest -->
<g id="node23" class="node"><title>findbugstest</title>
<polygon fill="cyan" stroke="black" points="1572.1,-230 1489.6,-230 1489.6,-194 1572.1,-194 1572.1,-230"/>
<text text-anchor="middle" x="1530.85" y="-208.3" font-family="Times,serif" font-size="14.00">findbugstest</text>
</g>
<!-- findbugstest&#45;&gt;check -->
<g id="edge30" class="edge"><title>findbugstest&#45;&gt;check</title>
<path fill="none" stroke="green" d="M1519.29,-193.831C1509.42,-180.734 1493.97,-163.536 1475.85,-155 1432.02,-134.356 1291.16,-130.611 1223.21,-130.033"/>
<polygon fill="green" stroke="green" points="1222.98,-126.531 1212.95,-129.965 1222.93,-133.531 1222.98,-126.531"/>
</g>
<!-- findbugsTest&#45;&gt;findbugstest -->
<g id="edge28" class="edge"><title>findbugsTest&#45;&gt;findbugstest</title>
<path fill="none" stroke="black" d="M1531.64,-276.822C1531.51,-266.19 1531.34,-252.306 1531.19,-240.204"/>
<polygon fill="black" stroke="black" points="1534.69,-240.109 1531.06,-230.153 1527.69,-240.196 1534.69,-240.109"/>
</g>
<!-- findbugs -->
<g id="node25" class="node"><title>findbugs</title>
<polygon fill="cyan" stroke="black" points="1440.85,-230 1376.85,-230 1376.85,-194 1440.85,-194 1440.85,-230"/>
<text text-anchor="middle" x="1408.85" y="-208.3" font-family="Times,serif" font-size="14.00">findbugs</text>
</g>
<!-- findbugs&#45;&gt;check -->
<g id="edge29" class="edge"><title>findbugs&#45;&gt;check</title>
<path fill="none" stroke="green" d="M1376.43,-199.222C1335.52,-184.364 1265.36,-158.881 1222.54,-143.326"/>
<polygon fill="green" stroke="green" points="1223.65,-140.006 1213.06,-139.881 1221.26,-146.585 1223.65,-140.006"/>
</g>
<!-- findbugsMain&#45;&gt;findbugs -->
<g id="edge27" class="edge"><title>findbugsMain&#45;&gt;findbugs</title>
<path fill="none" stroke="black" d="M1415.15,-276.822C1414.1,-266.19 1412.73,-252.306 1411.54,-240.204"/>
<polygon fill="black" stroke="black" points="1415.01,-239.761 1410.55,-230.153 1408.05,-240.449 1415.01,-239.761"/>
</g>
<!-- index -->
<g id="node27" class="node"><title>index</title>
<polygon fill="cyan" stroke="black" points="1728.85,-575 1674.85,-575 1674.85,-539 1728.85,-539 1728.85,-575"/>
<text text-anchor="middle" x="1701.85" y="-553.3" font-family="Times,serif" font-size="14.00">index</text>
</g>
<!-- clean -->
<g id="node28" class="node"><title>clean</title>
<polygon fill="lightcyan" stroke="black" points="1588.85,-575 1534.85,-575 1534.85,-539 1588.85,-539 1588.85,-575"/>
<text text-anchor="middle" x="1561.85" y="-553.3" font-family="Times,serif" font-size="14.00">clean</text>
</g>
<!-- cleanNeeded -->
<g id="node29" class="node"><title>cleanNeeded</title>
<polygon fill="cyan" stroke="black" points="1548.85,-484 1462.85,-484 1462.85,-448 1548.85,-448 1548.85,-484"/>
<text text-anchor="middle" x="1505.85" y="-462.3" font-family="Times,serif" font-size="14.00">cleanNeeded</text>
</g>
<!-- clean&#45;&gt;cleanNeeded -->
<g id="edge31" class="edge"><title>clean&#45;&gt;cleanNeeded</title>
<path fill="none" stroke="blue" d="M1551.05,-538.84C1542.84,-525.789 1531.41,-507.615 1522.09,-492.813"/>
<polygon fill="blue" stroke="blue" points="1524.9,-490.707 1516.62,-484.107 1518.98,-494.435 1524.9,-490.707"/>
</g>
<!-- distclean -->
<g id="node30" class="node"><title>distclean</title>
<polygon fill="cyan" stroke="black" points="1650.1,-484 1585.6,-484 1585.6,-448 1650.1,-448 1650.1,-484"/>
<text text-anchor="middle" x="1617.85" y="-462.3" font-family="Times,serif" font-size="14.00">distclean</text>
</g>
<!-- clean&#45;&gt;distclean -->
<g id="edge33" class="edge"><title>clean&#45;&gt;distclean</title>
<path fill="none" stroke="blue" d="M1572.65,-538.84C1580.86,-525.789 1592.3,-507.615 1601.61,-492.813"/>
<polygon fill="blue" stroke="blue" points="1604.72,-494.435 1607.09,-484.107 1598.8,-490.707 1604.72,-494.435"/>
</g>
<!-- cleanNeeded&#45;&gt;cleanNeeded -->
<g id="edge32" class="edge"><title>cleanNeeded&#45;&gt;cleanNeeded</title>
<path fill="none" stroke="red" d="M1548.89,-479.262C1559.21,-478.225 1566.85,-473.805 1566.85,-466 1566.85,-461 1563.71,-457.389 1558.75,-455.167"/>
<polygon fill="red" stroke="red" points="1559.43,-451.732 1548.89,-452.738 1557.76,-458.529 1559.43,-451.732"/>
</g>
<!-- distcleanNeeded -->
<g id="node31" class="node"><title>distcleanNeeded</title>
<polygon fill="cyan" stroke="black" points="1632.85,-412 1526.85,-412 1526.85,-376 1632.85,-376 1632.85,-412"/>
<text text-anchor="middle" x="1579.85" y="-390.3" font-family="Times,serif" font-size="14.00">distcleanNeeded</text>
</g>
<!-- distclean&#45;&gt;distcleanNeeded -->
<g id="edge34" class="edge"><title>distclean&#45;&gt;distcleanNeeded</title>
<path fill="none" stroke="black" d="M1608.46,-447.697C1604.09,-439.644 1598.79,-429.894 1593.96,-420.982"/>
<polygon fill="black" stroke="black" points="1596.98,-419.223 1589.14,-412.104 1590.83,-422.563 1596.98,-419.223"/>
</g>
<!-- distcleanNeeded&#45;&gt;distcleanNeeded -->
<g id="edge35" class="edge"><title>distcleanNeeded&#45;&gt;distcleanNeeded</title>
<path fill="none" stroke="red" d="M1633.11,-406.899C1643.48,-405.401 1650.85,-401.102 1650.85,-394 1650.85,-389.451 1647.83,-386.051 1642.93,-383.801"/>
<polygon fill="red" stroke="red" points="1643.68,-380.378 1633.11,-381.101 1641.82,-387.128 1643.68,-380.378"/>
</g>
<!-- distDist -->
<g id="node33" class="node"><title>distDist</title>
<polygon fill="cyan" stroke="black" points="111.852,-230 57.8515,-230 57.8515,-194 111.852,-194 111.852,-230"/>
<text text-anchor="middle" x="84.8515" y="-208.3" font-family="Times,serif" font-size="14.00">dist</text>
</g>
<!-- distIndex&#45;&gt;distDist -->
<g id="edge37" class="edge"><title>distIndex&#45;&gt;distDist</title>
<path fill="none" stroke="black" d="M84.8515,-276.822C84.8515,-266.19 84.8515,-252.306 84.8515,-240.204"/>
<polygon fill="black" stroke="black" points="88.3516,-240.153 84.8515,-230.153 81.3516,-240.153 88.3516,-240.153"/>
</g>
</g>
</svg>
