<?xml version="1.0" encoding="UTF-8" standalone="no"?>
<!DOCTYPE svg PUBLIC "-//W3C//DTD SVG 1.1//EN"
 "http://www.w3.org/Graphics/SVG/1.1/DTD/svg11.dtd">
<!-- Generated by graphviz version 2.34.0 (20140110.0949)
 -->
<!-- Title: GradleSetup Pages: 1 -->
<svg width="2400pt" height="1077pt"
 viewBox="0.00 0.00 2400.00 1077.00" xmlns="http://www.w3.org/2000/svg" xmlns:xlink="http://www.w3.org/1999/xlink">
<g id="graph0" class="graph" transform="scale(1 1) rotate(0) translate(4 1073)">
<title>GradleSetup</title>
<polygon fill="white" stroke="white" points="-4,4 -4,-1073 2396,-1073 2396,4 -4,4"/>
<text text-anchor="middle" x="61" y="-1053.8" font-family="Times,serif" font-size="14.00">Gradle Build Setup</text>
<g id="clust1" class="cluster"><title>cluster1</title>
<polygon fill="lightgrey" stroke="black" points="1196,-443 1196,-1038 1885,-1038 1885,-443 1196,-443"/>
<text text-anchor="middle" x="1236" y="-450.8" font-family="Times,serif" font-size="14.00">Java Plugin</text>
</g>
<g id="clust2" class="cluster"><title>cluster11</title>
</g>
<g id="clust3" class="cluster"><title>cluster12</title>
</g>
<g id="clust4" class="cluster"><title>cluster13</title>
</g>
<g id="clust5" class="cluster"><title>cluster2</title>
<polygon fill="lightgrey" stroke="black" points="680,-590 680,-947 1188,-947 1188,-590 680,-590"/>
<text text-anchor="middle" x="723" y="-597.8" font-family="Times,serif" font-size="14.00">Bnd Projects</text>
</g>
<g id="clust6" class="cluster"><title>cluster21</title>
</g>
<g id="clust7" class="cluster"><title>cluster22</title>
</g>
<g id="clust8" class="cluster"><title>cluster23</title>
</g>
<g id="clust9" class="cluster"><title>cluster100</title>
<polygon fill="lightgrey" stroke="black" points="767,-864 767,-939 893,-939 893,-864 767,-864"/>
<text text-anchor="middle" x="829.5" y="-923.8" font-family="Times,serif" font-size="14.00">Class Cycle Checks</text>
</g>
<g id="clust10" class="cluster"><title>cluster3</title>
<polygon fill="lightgrey" stroke="black" points="1893,-955 1893,-1030 1978,-1030 1978,-955 1893,-955"/>
<text text-anchor="middle" x="1935.5" y="-962.8" font-family="Times,serif" font-size="14.00">Root Project</text>
</g>
<g id="clust11" class="cluster"><title>cluster4</title>
<polygon fill="lightgrey" stroke="black" points="1893,-590 1893,-753 2131,-753 2131,-590 1893,-590"/>
<text text-anchor="middle" x="1937" y="-597.8" font-family="Times,serif" font-size="14.00">Java Projects</text>
</g>
<g id="clust12" class="cluster"><title>cluster41</title>
</g>
<g id="clust13" class="cluster"><title>cluster42</title>
</g>
<g id="clust14" class="cluster"><title>cluster5</title>
<polygon fill="lightgrey" stroke="black" points="1986,-761 1986,-1038 2384,-1038 2384,-761 1986,-761"/>
<text text-anchor="middle" x="2026.5" y="-768.8" font-family="Times,serif" font-size="14.00">All Projects</text>
</g>
<g id="clust15" class="cluster"><title>cluster21</title>
</g>
<g id="clust16" class="cluster"><title>cluster22</title>
</g>
<g id="clust17" class="cluster"><title>cluster7</title>
<polygon fill="lightgrey" stroke="black" points="8,-8 8,-745 672,-745 672,-8 8,-8"/>
<text text-anchor="middle" x="52.5" y="-15.8" font-family="Times,serif" font-size="14.00">Build Project</text>
</g>
<!-- compileJava -->
<g id="node1" class="node"><title>compileJava</title>
<polygon fill="lightcyan" stroke="black" points="1361.25,-1022 1276.75,-1022 1276.75,-986 1361.25,-986 1361.25,-1022"/>
<text text-anchor="middle" x="1319" y="-1000.3" font-family="Times,serif" font-size="14.00">compileJava</text>
</g>
<!-- classes -->
<g id="node3" class="node"><title>classes</title>
<polygon fill="lightcyan" stroke="black" points="1481,-908 1427,-908 1427,-872 1481,-872 1481,-908"/>
<text text-anchor="middle" x="1454" y="-886.3" font-family="Times,serif" font-size="14.00">classes</text>
</g>
<!-- compileJava&#45;&gt;classes -->
<g id="edge1" class="edge"><title>compileJava&#45;&gt;classes</title>
<path fill="none" stroke="black" d="M1336.52,-985.651C1346.17,-976.315 1358.5,-964.749 1370,-955 1386.64,-940.897 1405.95,-926.08 1421.86,-914.259"/>
<polygon fill="black" stroke="black" points="1424.35,-916.777 1430.31,-908.023 1420.19,-911.144 1424.35,-916.777"/>
</g>
<!-- processResources -->
<g id="node2" class="node"><title>processResources</title>
<polygon fill="lightcyan" stroke="black" points="1492.25,-1022 1379.75,-1022 1379.75,-986 1492.25,-986 1492.25,-1022"/>
<text text-anchor="middle" x="1436" y="-1000.3" font-family="Times,serif" font-size="14.00">processResources</text>
</g>
<!-- processResources&#45;&gt;classes -->
<g id="edge2" class="edge"><title>processResources&#45;&gt;classes</title>
<path fill="none" stroke="black" d="M1438.73,-985.99C1441.63,-967.981 1446.24,-939.293 1449.64,-918.152"/>
<polygon fill="black" stroke="black" points="1453.11,-918.599 1451.24,-908.17 1446.2,-917.488 1453.11,-918.599"/>
</g>
<!-- jar -->
<g id="node4" class="node"><title>jar</title>
<polygon fill="lightcyan" stroke="black" points="1469,-836 1415,-836 1415,-800 1469,-800 1469,-836"/>
<text text-anchor="middle" x="1442" y="-814.3" font-family="Times,serif" font-size="14.00">jar</text>
</g>
<!-- classes&#45;&gt;jar -->
<g id="edge6" class="edge"><title>classes&#45;&gt;jar</title>
<path fill="none" stroke="black" d="M1451.03,-871.697C1449.71,-863.983 1448.12,-854.712 1446.65,-846.112"/>
<polygon fill="black" stroke="black" points="1450.07,-845.369 1444.93,-836.104 1443.17,-846.552 1450.07,-845.369"/>
</g>
<!-- compileTestJava -->
<g id="node5" class="node"><title>compileTestJava</title>
<polygon fill="lightcyan" stroke="black" points="1779,-836 1671,-836 1671,-800 1779,-800 1779,-836"/>
<text text-anchor="middle" x="1725" y="-814.3" font-family="Times,serif" font-size="14.00">compileTestJava</text>
</g>
<!-- classes&#45;&gt;compileTestJava -->
<g id="edge5" class="edge"><title>classes&#45;&gt;compileTestJava</title>
<path fill="none" stroke="black" d="M1481.29,-884.576C1521.39,-877.743 1598.38,-863.362 1662,-844 1666.36,-842.673 1670.84,-841.175 1675.31,-839.589"/>
<polygon fill="black" stroke="black" points="1676.85,-842.752 1685.02,-836.006 1674.43,-836.185 1676.85,-842.752"/>
</g>
<!-- test -->
<g id="node8" class="node"><title>test</title>
<polygon fill="lightcyan" stroke="black" points="1752,-665 1698,-665 1698,-629 1752,-629 1752,-665"/>
<text text-anchor="middle" x="1725" y="-643.3" font-family="Times,serif" font-size="14.00">test</text>
</g>
<!-- classes&#45;&gt;test -->
<g id="edge4" class="edge"><title>classes&#45;&gt;test</title>
<path fill="none" stroke="black" d="M1481.12,-889.687C1553.43,-890.881 1748.04,-889.7 1788,-844 1810.21,-818.597 1788.74,-722.298 1772,-693 1767.65,-685.386 1761.62,-678.252 1755.32,-672.007"/>
<polygon fill="black" stroke="black" points="1757.6,-669.35 1747.89,-665.109 1752.84,-674.479 1757.6,-669.35"/>
</g>
<!-- javadoc -->
<g id="node13" class="node"><title>javadoc</title>
<polygon fill="lightcyan" stroke="black" points="1876.25,-836 1817.75,-836 1817.75,-800 1876.25,-800 1876.25,-836"/>
<text text-anchor="middle" x="1847" y="-814.3" font-family="Times,serif" font-size="14.00">javadoc</text>
</g>
<!-- classes&#45;&gt;javadoc -->
<g id="edge3" class="edge"><title>classes&#45;&gt;javadoc</title>
<path fill="none" stroke="black" d="M1481.05,-889.031C1540.76,-888.348 1687.69,-882.527 1803,-844 1805.91,-843.029 1808.84,-841.859 1811.73,-840.561"/>
<polygon fill="black" stroke="black" points="1813.38,-843.651 1820.78,-836.073 1810.27,-837.38 1813.38,-843.651"/>
</g>
<!-- bundle -->
<g id="node15" class="node"><title>bundle</title>
<polygon fill="cyan" stroke="black" points="774,-836 720,-836 720,-800 774,-800 774,-836"/>
<text text-anchor="middle" x="747" y="-814.3" font-family="Times,serif" font-size="14.00">bundle</text>
</g>
<!-- classes&#45;&gt;bundle -->
<g id="edge17" class="edge"><title>classes&#45;&gt;bundle</title>
<path fill="none" stroke="black" d="M1426.72,-886.299C1317.36,-875.471 910.561,-835.194 784.494,-822.712"/>
<polygon fill="black" stroke="black" points="784.497,-819.196 774.201,-821.693 783.807,-826.161 784.497,-819.196"/>
</g>
<!-- checkClassCycle -->
<g id="node22" class="node"><title>checkClassCycle</title>
<polygon fill="cyan" stroke="black" points="884.25,-908 775.75,-908 775.75,-872 884.25,-872 884.25,-908"/>
<text text-anchor="middle" x="830" y="-886.3" font-family="Times,serif" font-size="14.00">checkClassCycle</text>
</g>
<!-- classes&#45;&gt;checkClassCycle -->
<g id="edge15" class="edge"><title>classes&#45;&gt;checkClassCycle</title>
<path fill="none" stroke="black" d="M1426.75,-890C1249.37,-890 1071.98,-890 894.6,-890"/>
<polygon fill="black" stroke="black" points="894.539,-886.5 884.539,-890 894.539,-893.5 894.539,-886.5"/>
</g>
<!-- findbugsMain -->
<g id="node27" class="node"><title>findbugsMain</title>
<polygon fill="cyan" stroke="black" points="2002.25,-737 1909.75,-737 1909.75,-701 2002.25,-701 2002.25,-737"/>
<text text-anchor="middle" x="1956" y="-715.3" font-family="Times,serif" font-size="14.00">findbugsMain</text>
</g>
<!-- classes&#45;&gt;findbugsMain -->
<g id="edge27" class="edge"><title>classes&#45;&gt;findbugsMain</title>
<path fill="none" stroke="black" d="M1481.01,-889.421C1565.28,-890.248 1821.78,-888.936 1889,-844 1922.7,-821.473 1940.84,-776.178 1949.45,-747.013"/>
<polygon fill="black" stroke="black" points="1952.91,-747.641 1952.2,-737.07 1946.16,-745.775 1952.91,-747.641"/>
</g>
<!-- uploadArchives -->
<g id="node10" class="node"><title>uploadArchives</title>
<polygon fill="lightcyan" stroke="black" points="1493,-737 1391,-737 1391,-701 1493,-701 1493,-737"/>
<text text-anchor="middle" x="1442" y="-715.3" font-family="Times,serif" font-size="14.00">uploadArchives</text>
</g>
<!-- jar&#45;&gt;uploadArchives -->
<g id="edge9" class="edge"><title>jar&#45;&gt;uploadArchives</title>
<path fill="none" stroke="black" d="M1442,-799.658C1442,-785.175 1442,-764.263 1442,-747.499"/>
<polygon fill="black" stroke="black" points="1445.5,-747.191 1442,-737.192 1438.5,-747.192 1445.5,-747.191"/>
</g>
<!-- assemble -->
<g id="node11" class="node"><title>assemble</title>
<polygon fill="lightcyan" stroke="black" points="1372.25,-737 1305.75,-737 1305.75,-701 1372.25,-701 1372.25,-737"/>
<text text-anchor="middle" x="1339" y="-715.3" font-family="Times,serif" font-size="14.00">assemble</text>
</g>
<!-- jar&#45;&gt;assemble -->
<g id="edge10" class="edge"><title>jar&#45;&gt;assemble</title>
<path fill="none" stroke="black" d="M1423.59,-799.658C1407.18,-784.209 1383.01,-761.446 1364.7,-744.205"/>
<polygon fill="black" stroke="black" points="1366.93,-741.499 1357.25,-737.192 1362.14,-746.595 1366.93,-741.499"/>
</g>
<!-- testClasses -->
<g id="node7" class="node"><title>testClasses</title>
<polygon fill="lightcyan" stroke="black" points="1763,-737 1687,-737 1687,-701 1763,-701 1763,-737"/>
<text text-anchor="middle" x="1725" y="-715.3" font-family="Times,serif" font-size="14.00">testClasses</text>
</g>
<!-- compileTestJava&#45;&gt;testClasses -->
<g id="edge7" class="edge"><title>compileTestJava&#45;&gt;testClasses</title>
<path fill="none" stroke="black" d="M1725,-799.658C1725,-785.175 1725,-764.263 1725,-747.499"/>
<polygon fill="black" stroke="black" points="1728.5,-747.191 1725,-737.192 1721.5,-747.192 1728.5,-747.191"/>
</g>
<!-- processTestResources -->
<g id="node6" class="node"><title>processTestResources</title>
<polygon fill="lightcyan" stroke="black" points="1653,-836 1517,-836 1517,-800 1653,-800 1653,-836"/>
<text text-anchor="middle" x="1585" y="-814.3" font-family="Times,serif" font-size="14.00">processTestResources</text>
</g>
<!-- processTestResources&#45;&gt;testClasses -->
<g id="edge8" class="edge"><title>processTestResources&#45;&gt;testClasses</title>
<path fill="none" stroke="black" d="M1608.03,-799.775C1623.21,-788.534 1643.62,-773.653 1662,-761 1670.88,-754.888 1680.59,-748.452 1689.67,-742.537"/>
<polygon fill="black" stroke="black" points="1691.64,-745.428 1698.13,-737.053 1687.83,-739.554 1691.64,-745.428"/>
</g>
<!-- testClasses&#45;&gt;test -->
<g id="edge11" class="edge"><title>testClasses&#45;&gt;test</title>
<path fill="none" stroke="black" d="M1725,-700.697C1725,-692.983 1725,-683.712 1725,-675.112"/>
<polygon fill="black" stroke="black" points="1728.5,-675.104 1725,-665.104 1721.5,-675.104 1728.5,-675.104"/>
</g>
<!-- findbugsTest -->
<g id="node25" class="node"><title>findbugsTest</title>
<polygon fill="cyan" stroke="black" points="2114.25,-737 2027.75,-737 2027.75,-701 2114.25,-701 2114.25,-737"/>
<text text-anchor="middle" x="2071" y="-715.3" font-family="Times,serif" font-size="14.00">findbugsTest</text>
</g>
<!-- testClasses&#45;&gt;findbugsTest -->
<g id="edge28" class="edge"><title>testClasses&#45;&gt;findbugsTest</title>
<path fill="none" stroke="black" d="M1763.12,-729.407C1799.5,-738.764 1856.02,-751.81 1906,-757 1928.1,-759.295 1984.26,-761.613 2006,-757 2017.87,-754.481 2029.67,-748.794 2039.9,-742.567"/>
<polygon fill="black" stroke="black" points="2041.97,-745.401 2048.45,-737.022 2038.15,-739.529 2041.97,-745.401"/>
</g>
<!-- check -->
<g id="node9" class="node"><title>check</title>
<polygon fill="lightcyan" stroke="black" points="1752,-582 1698,-582 1698,-546 1752,-546 1752,-582"/>
<text text-anchor="middle" x="1725" y="-560.3" font-family="Times,serif" font-size="14.00">check</text>
</g>
<!-- test&#45;&gt;check -->
<g id="edge13" class="edge"><title>test&#45;&gt;check</title>
<path fill="none" stroke="black" d="M1725,-628.822C1725,-618.19 1725,-604.306 1725,-592.204"/>
<polygon fill="black" stroke="black" points="1728.5,-592.153 1725,-582.153 1721.5,-592.153 1728.5,-592.153"/>
</g>
<!-- build -->
<g id="node12" class="node"><title>build</title>
<polygon fill="lightcyan" stroke="black" points="1639,-510 1585,-510 1585,-474 1639,-474 1639,-510"/>
<text text-anchor="middle" x="1612" y="-488.3" font-family="Times,serif" font-size="14.00">build</text>
</g>
<!-- check&#45;&gt;build -->
<g id="edge14" class="edge"><title>check&#45;&gt;build</title>
<path fill="none" stroke="black" d="M1704.71,-545.799C1701.22,-543.083 1697.56,-540.386 1694,-538 1679.61,-528.361 1662.98,-518.944 1648.48,-511.237"/>
<polygon fill="black" stroke="black" points="1649.78,-507.967 1639.29,-506.433 1646.53,-514.17 1649.78,-507.967"/>
</g>
<!-- assemble&#45;&gt;build -->
<g id="edge12" class="edge"><title>assemble&#45;&gt;build</title>
<path fill="none" stroke="black" d="M1350.84,-700.86C1375.73,-665.95 1436.8,-585.866 1505,-538 1526.46,-522.941 1553.73,-511.567 1575.38,-504.021"/>
<polygon fill="black" stroke="black" points="1576.52,-507.329 1584.88,-500.824 1574.29,-500.695 1576.52,-507.329"/>
</g>
<!-- cleanJava -->
<g id="node14" class="node"><title>cleanJava</title>
<polygon fill="lightcyan" stroke="black" points="1258,-1022 1204,-1022 1204,-986 1258,-986 1258,-1022"/>
<text text-anchor="middle" x="1231" y="-1000.3" font-family="Times,serif" font-size="14.00">clean</text>
</g>
<!-- bundle&#45;&gt;compileJava -->
<g id="edge18" class="edge"><title>bundle&#45;&gt;compileJava</title>
<path fill="none" stroke="red" d="M742.979,-836.239C737.595,-864.22 731.99,-919.188 763,-947 784.054,-965.883 1246.02,-943.835 1272,-955 1283.44,-959.914 1293.51,-969.075 1301.36,-978.086"/>
<polygon fill="red" stroke="red" points="1298.65,-980.301 1307.67,-985.857 1304.09,-975.888 1298.65,-980.301"/>
</g>
<!-- bundle&#45;&gt;jar -->
<g id="edge19" class="edge"><title>bundle&#45;&gt;jar</title>
<path fill="none" stroke="black" stroke-dasharray="5,2" d="M774.148,-818C984.406,-818 1194.66,-818 1404.92,-818"/>
<polygon fill="black" stroke="black" points="1404.93,-821.5 1414.93,-818 1404.93,-814.5 1404.93,-821.5"/>
</g>
<!-- bundle&#45;&gt;test -->
<g id="edge21" class="edge"><title>bundle&#45;&gt;test</title>
<path fill="none" stroke="black" d="M774.125,-816.364C843.944,-814.024 1034.82,-803.15 1184,-753 1236.42,-735.379 1240.23,-709.526 1293,-693 1366.37,-670.022 1596.97,-655.097 1687.75,-649.976"/>
<polygon fill="black" stroke="black" points="1688.07,-653.464 1697.86,-649.414 1687.68,-646.475 1688.07,-653.464"/>
</g>
<!-- bundleTest -->
<g id="node16" class="node"><title>bundleTest</title>
<polygon fill="cyan" stroke="black" points="773.25,-737 696.75,-737 696.75,-701 773.25,-701 773.25,-737"/>
<text text-anchor="middle" x="735" y="-715.3" font-family="Times,serif" font-size="14.00">bundleTest</text>
</g>
<!-- bundle&#45;&gt;bundleTest -->
<g id="edge20" class="edge"><title>bundle&#45;&gt;bundleTest</title>
<path fill="none" stroke="black" d="M744.855,-799.658C743.063,-785.175 740.476,-764.263 738.402,-747.499"/>
<polygon fill="black" stroke="black" points="741.828,-746.686 737.127,-737.192 734.881,-747.546 741.828,-746.686"/>
</g>
<!-- release -->
<g id="node17" class="node"><title>release</title>
<polygon fill="cyan" stroke="black" points="862,-737 808,-737 808,-701 862,-701 862,-737"/>
<text text-anchor="middle" x="835" y="-715.3" font-family="Times,serif" font-size="14.00">release</text>
</g>
<!-- bundle&#45;&gt;release -->
<g id="edge22" class="edge"><title>bundle&#45;&gt;release</title>
<path fill="none" stroke="black" d="M762.733,-799.658C776.623,-784.347 797.031,-761.852 812.621,-744.668"/>
<polygon fill="black" stroke="black" points="815.277,-746.95 819.404,-737.192 810.092,-742.246 815.277,-746.95"/>
</g>
<!-- export -->
<g id="node21" class="node"><title>export</title>
<polygon fill="cyan" stroke="black" points="990,-737 936,-737 936,-701 990,-701 990,-737"/>
<text text-anchor="middle" x="963" y="-715.3" font-family="Times,serif" font-size="14.00">export</text>
</g>
<!-- bundle&#45;&gt;export -->
<g id="edge23" class="edge"><title>bundle&#45;&gt;export</title>
<path fill="none" stroke="black" d="M774.082,-810.435C809.968,-801.032 874.506,-781.642 924,-753 928.584,-750.347 933.152,-747.136 937.462,-743.772"/>
<polygon fill="black" stroke="black" points="939.901,-746.296 945.367,-737.219 935.435,-740.906 939.901,-746.296"/>
</g>
<!-- p2Entry -->
<g id="node35" class="node"><title>p2Entry</title>
<polygon fill="none" stroke="black" points="583,-737 523,-737 523,-701 583,-701 583,-737"/>
<text text-anchor="middle" x="553" y="-715.3" font-family="Times,serif" font-size="14.00">p2Entry</text>
</g>
<!-- bundle&#45;&gt;p2Entry -->
<g id="edge40" class="edge"><title>bundle&#45;&gt;p2Entry</title>
<path fill="none" stroke="black" d="M719.616,-803.308C686.397,-786.699 630.156,-758.578 592.313,-739.657"/>
<polygon fill="black" stroke="black" points="593.623,-736.399 583.114,-735.057 590.493,-742.66 593.623,-736.399"/>
</g>
<!-- bundleTest&#45;&gt;check -->
<g id="edge24" class="edge"><title>bundleTest&#45;&gt;check</title>
<path fill="none" stroke="black" d="M736.122,-700.694C739.01,-672.096 749.313,-615.594 786,-590 823.523,-563.823 1516.98,-564.33 1687.41,-564.853"/>
<polygon fill="black" stroke="black" points="1687.63,-568.353 1697.64,-564.886 1687.65,-561.353 1687.63,-568.353"/>
</g>
<!-- releaseNeeded -->
<g id="node18" class="node"><title>releaseNeeded</title>
<polygon fill="cyan" stroke="black" points="893.25,-665 798.75,-665 798.75,-629 893.25,-629 893.25,-665"/>
<text text-anchor="middle" x="846" y="-643.3" font-family="Times,serif" font-size="14.00">releaseNeeded</text>
</g>
<!-- release&#45;&gt;releaseNeeded -->
<g id="edge25" class="edge"><title>release&#45;&gt;releaseNeeded</title>
<path fill="none" stroke="black" d="M837.719,-700.697C838.931,-692.983 840.388,-683.712 841.739,-675.112"/>
<polygon fill="black" stroke="black" points="845.217,-675.526 843.312,-665.104 838.302,-674.44 845.217,-675.526"/>
</g>
<!-- releaseNeeded&#45;&gt;releaseNeeded -->
<g id="edge26" class="edge"><title>releaseNeeded&#45;&gt;releaseNeeded</title>
<path fill="none" stroke="red" d="M893.326,-660.101C903.571,-658.82 911,-654.453 911,-647 911,-642.225 907.951,-638.717 903.066,-636.476"/>
<polygon fill="red" stroke="red" points="903.889,-633.073 893.326,-633.899 902.098,-639.84 903.889,-633.073"/>
</g>
<!-- cleanBnd -->
<g id="node19" class="node"><title>cleanBnd</title>
<polygon fill="cyan" stroke="black" points="1172,-737 1118,-737 1118,-701 1172,-701 1172,-737"/>
<text text-anchor="middle" x="1145" y="-715.3" font-family="Times,serif" font-size="14.00">clean</text>
</g>
<!-- bndproperties -->
<g id="node20" class="node"><title>bndproperties</title>
<polygon fill="cyan" stroke="black" points="1099.25,-737 1008.75,-737 1008.75,-701 1099.25,-701 1099.25,-737"/>
<text text-anchor="middle" x="1054" y="-715.3" font-family="Times,serif" font-size="14.00">bndproperties</text>
</g>
<!-- checkClassCycle&#45;&gt;bundle -->
<g id="edge16" class="edge"><title>checkClassCycle&#45;&gt;bundle</title>
<path fill="none" stroke="black" d="M809.483,-871.697C799.131,-862.965 786.414,-852.24 775.161,-842.75"/>
<polygon fill="black" stroke="black" points="777.182,-839.876 767.281,-836.104 772.669,-845.227 777.182,-839.876"/>
</g>
<!-- wrapper -->
<g id="node23" class="node"><title>wrapper</title>
<polygon fill="cyan" stroke="black" points="1965.25,-1022 1904.75,-1022 1904.75,-986 1965.25,-986 1965.25,-1022"/>
<text text-anchor="middle" x="1935" y="-1000.3" font-family="Times,serif" font-size="14.00">wrapper</text>
</g>
<!-- findbugstest -->
<g id="node24" class="node"><title>findbugstest</title>
<polygon fill="cyan" stroke="black" points="2111.25,-665 2028.75,-665 2028.75,-629 2111.25,-629 2111.25,-665"/>
<text text-anchor="middle" x="2070" y="-643.3" font-family="Times,serif" font-size="14.00">findbugstest</text>
</g>
<!-- findbugstest&#45;&gt;check -->
<g id="edge32" class="edge"><title>findbugstest&#45;&gt;check</title>
<path fill="none" stroke="green" d="M2058.43,-628.831C2048.57,-615.734 2033.12,-598.536 2015,-590 1971.17,-569.356 1830.31,-565.611 1762.36,-565.033"/>
<polygon fill="green" stroke="green" points="1762.13,-561.531 1752.1,-564.965 1762.08,-568.531 1762.13,-561.531"/>
</g>
<!-- findbugsTest&#45;&gt;findbugstest -->
<g id="edge30" class="edge"><title>findbugsTest&#45;&gt;findbugstest</title>
<path fill="none" stroke="black" d="M2070.75,-700.697C2070.64,-692.983 2070.51,-683.712 2070.39,-675.112"/>
<polygon fill="black" stroke="black" points="2073.89,-675.053 2070.24,-665.104 2066.89,-675.153 2073.89,-675.053"/>
</g>
<!-- findbugs -->
<g id="node26" class="node"><title>findbugs</title>
<polygon fill="cyan" stroke="black" points="1980,-665 1916,-665 1916,-629 1980,-629 1980,-665"/>
<text text-anchor="middle" x="1948" y="-643.3" font-family="Times,serif" font-size="14.00">findbugs</text>
</g>
<!-- findbugs&#45;&gt;check -->
<g id="edge31" class="edge"><title>findbugs&#45;&gt;check</title>
<path fill="none" stroke="green" d="M1915.57,-634.222C1874.67,-619.364 1804.51,-593.881 1761.69,-578.326"/>
<polygon fill="green" stroke="green" points="1762.8,-575.006 1752.2,-574.881 1760.41,-581.585 1762.8,-575.006"/>
</g>
<!-- findbugsMain&#45;&gt;findbugs -->
<g id="edge29" class="edge"><title>findbugsMain&#45;&gt;findbugs</title>
<path fill="none" stroke="black" d="M1954.02,-700.697C1953.14,-692.983 1952.08,-683.712 1951.1,-675.112"/>
<polygon fill="black" stroke="black" points="1954.57,-674.642 1949.95,-665.104 1947.61,-675.437 1954.57,-674.642"/>
</g>
<!-- indexOBR -->
<g id="node28" class="node"><title>indexOBR</title>
<polygon fill="cyan" stroke="black" points="2368,-1022 2294,-1022 2294,-986 2368,-986 2368,-1022"/>
<text text-anchor="middle" x="2331" y="-1000.3" font-family="Times,serif" font-size="14.00">indexOBR</text>
</g>
<!-- index -->
<g id="node30" class="node"><title>index</title>
<polygon fill="cyan" stroke="black" points="2315,-908 2261,-908 2261,-872 2315,-872 2315,-908"/>
<text text-anchor="middle" x="2288" y="-886.3" font-family="Times,serif" font-size="14.00">index</text>
</g>
<!-- indexOBR&#45;&gt;index -->
<g id="edge33" class="edge"><title>indexOBR&#45;&gt;index</title>
<path fill="none" stroke="black" d="M2324.47,-985.99C2317.49,-967.817 2306.34,-938.769 2298.2,-917.575"/>
<polygon fill="black" stroke="black" points="2301.44,-916.252 2294.59,-908.17 2294.91,-918.761 2301.44,-916.252"/>
</g>
<!-- indexR5 -->
<g id="node29" class="node"><title>indexR5</title>
<polygon fill="cyan" stroke="black" points="2276,-1022 2214,-1022 2214,-986 2276,-986 2276,-1022"/>
<text text-anchor="middle" x="2245" y="-1000.3" font-family="Times,serif" font-size="14.00">indexR5</text>
</g>
<!-- indexR5&#45;&gt;index -->
<g id="edge34" class="edge"><title>indexR5&#45;&gt;index</title>
<path fill="none" stroke="black" d="M2251.53,-985.99C2258.51,-967.817 2269.66,-938.769 2277.8,-917.575"/>
<polygon fill="black" stroke="black" points="2281.09,-918.761 2281.41,-908.17 2274.56,-916.252 2281.09,-918.761"/>
</g>
<!-- clean -->
<g id="node31" class="node"><title>clean</title>
<polygon fill="lightcyan" stroke="black" points="2128,-1022 2074,-1022 2074,-986 2128,-986 2128,-1022"/>
<text text-anchor="middle" x="2101" y="-1000.3" font-family="Times,serif" font-size="14.00">clean</text>
</g>
<!-- cleanNeeded -->
<g id="node32" class="node"><title>cleanNeeded</title>
<polygon fill="cyan" stroke="black" points="2088,-908 2002,-908 2002,-872 2088,-872 2088,-908"/>
<text text-anchor="middle" x="2045" y="-886.3" font-family="Times,serif" font-size="14.00">cleanNeeded</text>
</g>
<!-- clean&#45;&gt;cleanNeeded -->
<g id="edge35" class="edge"><title>clean&#45;&gt;cleanNeeded</title>
<path fill="none" stroke="blue" d="M2092.49,-985.99C2083.37,-967.734 2068.75,-938.506 2058.14,-917.287"/>
<polygon fill="blue" stroke="blue" points="2061.19,-915.549 2053.59,-908.17 2054.93,-918.68 2061.19,-915.549"/>
</g>
<!-- distclean -->
<g id="node33" class="node"><title>distclean</title>
<polygon fill="cyan" stroke="black" points="2189.25,-908 2124.75,-908 2124.75,-872 2189.25,-872 2189.25,-908"/>
<text text-anchor="middle" x="2157" y="-886.3" font-family="Times,serif" font-size="14.00">distclean</text>
</g>
<!-- clean&#45;&gt;distclean -->
<g id="edge37" class="edge"><title>clean&#45;&gt;distclean</title>
<path fill="none" stroke="blue" d="M2109.51,-985.99C2118.63,-967.734 2133.25,-938.506 2143.86,-917.287"/>
<polygon fill="blue" stroke="blue" points="2147.07,-918.68 2148.41,-908.17 2140.81,-915.549 2147.07,-918.68"/>
</g>
<!-- cleanNeeded&#45;&gt;cleanNeeded -->
<g id="edge36" class="edge"><title>cleanNeeded&#45;&gt;cleanNeeded</title>
<path fill="none" stroke="red" d="M2088.04,-903.262C2098.35,-902.225 2106,-897.805 2106,-890 2106,-885 2102.86,-881.389 2097.89,-879.167"/>
<polygon fill="red" stroke="red" points="2098.58,-875.732 2088.04,-876.738 2096.91,-882.529 2098.58,-875.732"/>
</g>
<!-- distcleanNeeded -->
<g id="node34" class="node"><title>distcleanNeeded</title>
<polygon fill="cyan" stroke="black" points="2172,-836 2066,-836 2066,-800 2172,-800 2172,-836"/>
<text text-anchor="middle" x="2119" y="-814.3" font-family="Times,serif" font-size="14.00">distcleanNeeded</text>
</g>
<!-- distclean&#45;&gt;distcleanNeeded -->
<g id="edge38" class="edge"><title>distclean&#45;&gt;distcleanNeeded</title>
<path fill="none" stroke="black" d="M2147.61,-871.697C2143.24,-863.644 2137.94,-853.894 2133.1,-844.982"/>
<polygon fill="black" stroke="black" points="2136.13,-843.223 2128.29,-836.104 2129.98,-846.563 2136.13,-843.223"/>
</g>
<!-- distcleanNeeded&#45;&gt;distcleanNeeded -->
<g id="edge39" class="edge"><title>distcleanNeeded&#45;&gt;distcleanNeeded</title>
<path fill="none" stroke="red" d="M2172.26,-830.899C2182.63,-829.401 2190,-825.102 2190,-818 2190,-813.451 2186.98,-810.051 2182.08,-807.801"/>
<polygon fill="red" stroke="red" points="2182.83,-804.378 2172.26,-805.101 2180.97,-811.128 2182.83,-804.378"/>
</g>
<!-- p2FeaturesTree -->
<g id="node36" class="node"><title>p2FeaturesTree</title>
<polygon fill="none" stroke="black" points="415.25,-665 314.75,-665 314.75,-629 415.25,-629 415.25,-665"/>
<text text-anchor="middle" x="365" y="-643.3" font-family="Times,serif" font-size="14.00">p2FeaturesTree</text>
</g>
<!-- p2Entry&#45;&gt;p2FeaturesTree -->
<g id="edge41" class="edge"><title>p2Entry&#45;&gt;p2FeaturesTree</title>
<path fill="none" stroke="black" d="M522.795,-706.753C495.304,-696.517 454.03,-681.149 420.589,-668.698"/>
<polygon fill="black" stroke="black" points="421.528,-665.313 410.935,-665.104 419.086,-671.873 421.528,-665.313"/>
</g>
<!-- p2PluginsMain -->
<g id="node42" class="node"><title>p2PluginsMain</title>
<polygon fill="none" stroke="black" points="664,-665 564,-665 564,-629 664,-629 664,-665"/>
<text text-anchor="middle" x="614" y="-643.3" font-family="Times,serif" font-size="14.00">p2PluginsMain</text>
</g>
<!-- p2Entry&#45;&gt;p2PluginsMain -->
<g id="edge50" class="edge"><title>p2Entry&#45;&gt;p2PluginsMain</title>
<path fill="none" stroke="black" d="M568.079,-700.697C575.392,-692.305 584.31,-682.07 592.335,-672.861"/>
<polygon fill="black" stroke="black" points="595.164,-674.943 599.095,-665.104 589.886,-670.344 595.164,-674.943"/>
</g>
<!-- p2PluginsExtras -->
<g id="node43" class="node"><title>p2PluginsExtras</title>
<polygon fill="none" stroke="black" points="545.25,-665 440.75,-665 440.75,-629 545.25,-629 545.25,-665"/>
<text text-anchor="middle" x="493" y="-643.3" font-family="Times,serif" font-size="14.00">p2PluginsExtras</text>
</g>
<!-- p2Entry&#45;&gt;p2PluginsExtras -->
<g id="edge51" class="edge"><title>p2Entry&#45;&gt;p2PluginsExtras</title>
<path fill="none" stroke="black" d="M538.169,-700.697C530.975,-692.305 522.203,-682.07 514.31,-672.861"/>
<polygon fill="black" stroke="black" points="516.826,-670.419 507.661,-665.104 511.511,-674.975 516.826,-670.419"/>
</g>
<!-- p2FeatureMain -->
<g id="node37" class="node"><title>p2FeatureMain</title>
<polygon fill="none" stroke="black" points="284,-582 184,-582 184,-546 284,-546 284,-582"/>
<text text-anchor="middle" x="234" y="-560.3" font-family="Times,serif" font-size="14.00">p2FeatureMain</text>
</g>
<!-- p2FeaturesTree&#45;&gt;p2FeatureMain -->
<g id="edge42" class="edge"><title>p2FeaturesTree&#45;&gt;p2FeatureMain</title>
<path fill="none" stroke="black" d="M337.218,-628.822C317.766,-616.794 291.581,-600.604 270.453,-587.539"/>
<polygon fill="black" stroke="black" points="272.088,-584.435 261.742,-582.153 268.406,-590.389 272.088,-584.435"/>
</g>
<!-- p2FeatureJarViewer -->
<g id="node38" class="node"><title>p2FeatureJarViewer</title>
<polygon fill="none" stroke="black" points="428,-582 302,-582 302,-546 428,-546 428,-582"/>
<text text-anchor="middle" x="365" y="-560.3" font-family="Times,serif" font-size="14.00">p2FeatureJarViewer</text>
</g>
<!-- p2FeaturesTree&#45;&gt;p2FeatureJarViewer -->
<g id="edge43" class="edge"><title>p2FeaturesTree&#45;&gt;p2FeatureJarViewer</title>
<path fill="none" stroke="black" d="M365,-628.822C365,-618.19 365,-604.306 365,-592.204"/>
<polygon fill="black" stroke="black" points="368.5,-592.153 365,-582.153 361.5,-592.153 368.5,-592.153"/>
</g>
<!-- p2FeatureDMPlugin -->
<g id="node39" class="node"><title>p2FeatureDMPlugin</title>
<polygon fill="none" stroke="black" points="574,-582 446,-582 446,-546 574,-546 574,-582"/>
<text text-anchor="middle" x="510" y="-560.3" font-family="Times,serif" font-size="14.00">p2FeatureDMPlugin</text>
</g>
<!-- p2FeaturesTree&#45;&gt;p2FeatureDMPlugin -->
<g id="edge44" class="edge"><title>p2FeaturesTree&#45;&gt;p2FeatureDMPlugin</title>
<path fill="none" stroke="black" d="M381.233,-628.977C393.804,-616.652 412.194,-600.397 431,-590 433.396,-588.675 435.872,-587.409 438.404,-586.201"/>
<polygon fill="black" stroke="black" points="440.028,-589.31 447.766,-582.073 437.204,-582.905 440.028,-589.31"/>
</g>
<!-- p2FeatureAmdatuPlugin -->
<g id="node40" class="node"><title>p2FeatureAmdatuPlugin</title>
<polygon fill="none" stroke="black" points="166,-582 16,-582 16,-546 166,-546 166,-582"/>
<text text-anchor="middle" x="91" y="-560.3" font-family="Times,serif" font-size="14.00">p2FeatureAmdatuPlugin</text>
</g>
<!-- p2FeaturesTree&#45;&gt;p2FeatureAmdatuPlugin -->
<g id="edge45" class="edge"><title>p2FeaturesTree&#45;&gt;p2FeatureAmdatuPlugin</title>
<path fill="none" stroke="black" d="M314.744,-631.143C270.805,-618.154 206.642,-599.186 158.281,-584.89"/>
<polygon fill="black" stroke="black" points="159.105,-581.484 148.523,-582.005 157.12,-588.196 159.105,-581.484"/>
</g>
<!-- p2Features -->
<g id="node41" class="node"><title>p2Features</title>
<polygon fill="none" stroke="black" points="403,-510 327,-510 327,-474 403,-474 403,-510"/>
<text text-anchor="middle" x="365" y="-488.3" font-family="Times,serif" font-size="14.00">p2Features</text>
</g>
<!-- p2FeatureMain&#45;&gt;p2Features -->
<g id="edge46" class="edge"><title>p2FeatureMain&#45;&gt;p2Features</title>
<path fill="none" stroke="black" d="M266.046,-545.876C283.492,-536.554 305.265,-524.919 323.943,-514.939"/>
<polygon fill="black" stroke="black" points="325.66,-517.99 332.831,-510.19 322.361,-511.816 325.66,-517.99"/>
</g>
<!-- p2FeatureJarViewer&#45;&gt;p2Features -->
<g id="edge47" class="edge"><title>p2FeatureJarViewer&#45;&gt;p2Features</title>
<path fill="none" stroke="black" d="M365,-545.697C365,-537.983 365,-528.712 365,-520.112"/>
<polygon fill="black" stroke="black" points="368.5,-520.104 365,-510.104 361.5,-520.104 368.5,-520.104"/>
</g>
<!-- p2FeatureDMPlugin&#45;&gt;p2Features -->
<g id="edge48" class="edge"><title>p2FeatureDMPlugin&#45;&gt;p2Features</title>
<path fill="none" stroke="black" d="M474.529,-545.876C454.883,-536.392 430.278,-524.513 409.368,-514.419"/>
<polygon fill="black" stroke="black" points="410.883,-511.264 400.356,-510.068 407.84,-517.568 410.883,-511.264"/>
</g>
<!-- p2FeatureAmdatuPlugin&#45;&gt;p2Features -->
<g id="edge49" class="edge"><title>p2FeatureAmdatuPlugin&#45;&gt;p2Features</title>
<path fill="none" stroke="black" d="M146.903,-545.881C156.259,-543.155 165.886,-540.434 175,-538 223.104,-525.156 278.552,-512.238 317.083,-503.558"/>
<polygon fill="black" stroke="black" points="317.999,-506.94 326.99,-501.336 316.466,-500.109 317.999,-506.94"/>
</g>
<!-- p2 -->
<g id="node45" class="node"><title>p2</title>
<polygon fill="cyan" stroke="black" points="472,-435 418,-435 418,-399 472,-399 472,-435"/>
<text text-anchor="middle" x="445" y="-413.3" font-family="Times,serif" font-size="14.00">p2</text>
</g>
<!-- p2Features&#45;&gt;p2 -->
<g id="edge54" class="edge"><title>p2Features&#45;&gt;p2</title>
<path fill="none" stroke="black" d="M383.959,-473.7C394.32,-464.245 407.315,-452.387 418.649,-442.045"/>
<polygon fill="black" stroke="black" points="421.15,-444.502 426.177,-435.176 416.431,-439.331 421.15,-444.502"/>
</g>
<!-- p2Plugins -->
<g id="node44" class="node"><title>p2Plugins</title>
<polygon fill="none" stroke="black" points="663.25,-582 592.75,-582 592.75,-546 663.25,-546 663.25,-582"/>
<text text-anchor="middle" x="628" y="-560.3" font-family="Times,serif" font-size="14.00">p2Plugins</text>
</g>
<!-- p2PluginsMain&#45;&gt;p2Plugins -->
<g id="edge52" class="edge"><title>p2PluginsMain&#45;&gt;p2Plugins</title>
<path fill="none" stroke="black" d="M616.969,-628.822C618.807,-618.19 621.206,-604.306 623.298,-592.204"/>
<polygon fill="black" stroke="black" points="626.781,-592.603 625.035,-582.153 619.883,-591.411 626.781,-592.603"/>
</g>
<!-- p2PluginsExtras&#45;&gt;p2Plugins -->
<g id="edge53" class="edge"><title>p2PluginsExtras&#45;&gt;p2Plugins</title>
<path fill="none" stroke="black" d="M507.974,-628.78C519.642,-616.356 536.862,-600.061 555,-590 566.318,-583.722 570.714,-586.068 583,-582 583.099,-581.967 583.198,-581.934 583.298,-581.901"/>
<polygon fill="black" stroke="black" points="584.418,-585.217 592.726,-578.642 582.131,-578.602 584.418,-585.217"/>
</g>
<!-- p2Plugins&#45;&gt;p2 -->
<g id="edge55" class="edge"><title>p2Plugins&#45;&gt;p2</title>
<path fill="none" stroke="black" d="M606.289,-545.797C573.545,-519.853 511.446,-470.648 474.589,-441.445"/>
<polygon fill="black" stroke="black" points="476.694,-438.648 466.683,-435.18 472.347,-444.134 476.694,-438.648"/>
</g>
<!-- indexOBRBuild -->
<g id="node46" class="node"><title>indexOBRBuild</title>
<polygon fill="cyan" stroke="black" points="439,-363 365,-363 365,-327 439,-327 439,-363"/>
<text text-anchor="middle" x="402" y="-341.3" font-family="Times,serif" font-size="14.00">indexOBR</text>
</g>
<!-- p2&#45;&gt;indexOBRBuild -->
<g id="edge56" class="edge"><title>p2&#45;&gt;indexOBRBuild</title>
<path fill="none" stroke="black" d="M434.371,-398.697C429.372,-390.559 423.309,-380.689 417.788,-371.701"/>
<polygon fill="black" stroke="black" points="420.723,-369.793 412.507,-363.104 414.759,-373.457 420.723,-369.793"/>
</g>
<!-- indexR5Build -->
<g id="node47" class="node"><title>indexR5Build</title>
<polygon fill="cyan" stroke="black" points="519,-363 457,-363 457,-327 519,-327 519,-363"/>
<text text-anchor="middle" x="488" y="-341.3" font-family="Times,serif" font-size="14.00">indexR5</text>
</g>
<!-- p2&#45;&gt;indexR5Build -->
<g id="edge57" class="edge"><title>p2&#45;&gt;indexR5Build</title>
<path fill="none" stroke="black" d="M455.629,-398.697C460.628,-390.559 466.691,-380.689 472.212,-371.701"/>
<polygon fill="black" stroke="black" points="475.241,-373.457 477.493,-363.104 469.277,-369.793 475.241,-373.457"/>
</g>
<!-- indexBuild -->
<g id="node48" class="node"><title>indexBuild</title>
<polygon fill="cyan" stroke="black" points="472,-291 418,-291 418,-255 472,-255 472,-291"/>
<text text-anchor="middle" x="445" y="-269.3" font-family="Times,serif" font-size="14.00">index</text>
</g>
<!-- indexOBRBuild&#45;&gt;indexBuild -->
<g id="edge58" class="edge"><title>indexOBRBuild&#45;&gt;indexBuild</title>
<path fill="none" stroke="black" d="M412.629,-326.697C417.628,-318.559 423.691,-308.689 429.212,-299.701"/>
<polygon fill="black" stroke="black" points="432.241,-301.457 434.493,-291.104 426.277,-297.793 432.241,-301.457"/>
</g>
<!-- indexR5Build&#45;&gt;indexBuild -->
<g id="edge59" class="edge"><title>indexR5Build&#45;&gt;indexBuild</title>
<path fill="none" stroke="black" d="M477.371,-326.697C472.372,-318.559 466.309,-308.689 460.788,-299.701"/>
<polygon fill="black" stroke="black" points="463.723,-297.793 455.507,-291.104 457.759,-301.457 463.723,-297.793"/>
</g>
<!-- distZipMain -->
<g id="node49" class="node"><title>distZipMain</title>
<polygon fill="none" stroke="black" points="403,-147 319,-147 319,-111 403,-111 403,-147"/>
<text text-anchor="middle" x="361" y="-125.3" font-family="Times,serif" font-size="14.00">distZipMain</text>
</g>
<!-- indexBuild&#45;&gt;distZipMain -->
<g id="edge60" class="edge"><title>indexBuild&#45;&gt;distZipMain</title>
<path fill="none" stroke="black" d="M417.9,-259.806C401.488,-250.929 381.715,-237.264 371,-219 360.082,-200.39 358.062,-175.805 358.502,-157.191"/>
<polygon fill="black" stroke="black" points="362.007,-157.169 358.996,-147.011 355.015,-156.83 362.007,-157.169"/>
</g>
<!-- distCompositeExtras -->
<g id="node50" class="node"><title>distCompositeExtras</title>
<polygon fill="none" stroke="black" points="510,-219 380,-219 380,-183 510,-183 510,-219"/>
<text text-anchor="middle" x="445" y="-197.3" font-family="Times,serif" font-size="14.00">distCompositeExtras</text>
</g>
<!-- indexBuild&#45;&gt;distCompositeExtras -->
<g id="edge61" class="edge"><title>indexBuild&#45;&gt;distCompositeExtras</title>
<path fill="none" stroke="black" d="M445,-254.697C445,-246.983 445,-237.712 445,-229.112"/>
<polygon fill="black" stroke="black" points="448.5,-229.104 445,-219.104 441.5,-229.104 448.5,-229.104"/>
</g>
<!-- distZipExtras -->
<g id="node51" class="node"><title>distZipExtras</title>
<polygon fill="none" stroke="black" points="510.25,-147 421.75,-147 421.75,-111 510.25,-111 510.25,-147"/>
<text text-anchor="middle" x="466" y="-125.3" font-family="Times,serif" font-size="14.00">distZipExtras</text>
</g>
<!-- indexBuild&#45;&gt;distZipExtras -->
<g id="edge62" class="edge"><title>indexBuild&#45;&gt;distZipExtras</title>
<path fill="none" stroke="black" d="M472.061,-260.582C488.907,-251.879 509.178,-238.116 519,-219 526.312,-204.769 525.123,-197.782 519,-183 514.455,-172.028 506.415,-162.143 497.949,-153.964"/>
<polygon fill="black" stroke="black" points="500.249,-151.326 490.477,-147.232 495.563,-156.526 500.249,-151.326"/>
</g>
<!-- dist -->
<g id="node52" class="node"><title>dist</title>
<polygon fill="cyan" stroke="black" points="440,-75 386,-75 386,-39 440,-39 440,-75"/>
<text text-anchor="middle" x="413" y="-53.3" font-family="Times,serif" font-size="14.00">dist</text>
</g>
<!-- distZipMain&#45;&gt;dist -->
<g id="edge64" class="edge"><title>distZipMain&#45;&gt;dist</title>
<path fill="none" stroke="black" d="M373.854,-110.697C380.025,-102.389 387.537,-92.2771 394.324,-83.1407"/>
<polygon fill="black" stroke="black" points="397.14,-85.2189 400.294,-75.1043 391.521,-81.0446 397.14,-85.2189"/>
</g>
<!-- distCompositeExtras&#45;&gt;distZipExtras -->
<g id="edge63" class="edge"><title>distCompositeExtras&#45;&gt;distZipExtras</title>
<path fill="none" stroke="black" d="M450.191,-182.697C452.531,-174.898 455.347,-165.509 457.951,-156.829"/>
<polygon fill="black" stroke="black" points="461.348,-157.688 460.869,-147.104 454.643,-155.677 461.348,-157.688"/>
</g>
<!-- distZipExtras&#45;&gt;dist -->
<g id="edge65" class="edge"><title>distZipExtras&#45;&gt;dist</title>
<path fill="none" stroke="black" d="M452.899,-110.697C446.609,-102.389 438.953,-92.2771 432.035,-83.1407"/>
<polygon fill="black" stroke="black" points="434.777,-80.9642 425.95,-75.1043 429.196,-85.1897 434.777,-80.9642"/>
</g>
</g>
</svg>
