<?xml version="1.0" encoding="UTF-8" standalone="no"?>
<!DOCTYPE svg PUBLIC "-//W3C//DTD SVG 1.1//EN"
 "http://www.w3.org/Graphics/SVG/1.1/DTD/svg11.dtd">
<!-- Generated by graphviz version 2.34.0 (20140110.0949)
 -->
<!-- Title: GradleSetup Pages: 1 -->
<svg width="2300pt" height="1005pt"
 viewBox="0.00 0.00 2300.00 1005.00" xmlns="http://www.w3.org/2000/svg" xmlns:xlink="http://www.w3.org/1999/xlink">
<g id="graph0" class="graph" transform="scale(1 1) rotate(0) translate(4 1001)">
<title>GradleSetup</title>
<polygon fill="white" stroke="white" points="-4,4 -4,-1001 2296,-1001 2296,4 -4,4"/>
<text text-anchor="middle" x="61" y="-981.8" font-family="Times,serif" font-size="14.00">Gradle Build Setup</text>
<g id="clust1" class="cluster"><title>cluster1</title>
<polygon fill="lightgrey" stroke="black" points="1196,-371 1196,-966 1885,-966 1885,-371 1196,-371"/>
<text text-anchor="middle" x="1236" y="-378.8" font-family="Times,serif" font-size="14.00">Java Plugin</text>
</g>
<g id="clust2" class="cluster"><title>cluster11</title>
</g>
<g id="clust3" class="cluster"><title>cluster12</title>
</g>
<g id="clust4" class="cluster"><title>cluster13</title>
</g>
<g id="clust5" class="cluster"><title>cluster2</title>
<polygon fill="lightgrey" stroke="black" points="680,-518 680,-875 1188,-875 1188,-518 680,-518"/>
<text text-anchor="middle" x="723" y="-525.8" font-family="Times,serif" font-size="14.00">Bnd Projects</text>
</g>
<g id="clust6" class="cluster"><title>cluster21</title>
</g>
<g id="clust7" class="cluster"><title>cluster22</title>
</g>
<g id="clust8" class="cluster"><title>cluster23</title>
</g>
<g id="clust9" class="cluster"><title>cluster100</title>
<polygon fill="lightgrey" stroke="black" points="767,-792 767,-867 893,-867 893,-792 767,-792"/>
<text text-anchor="middle" x="829.5" y="-851.8" font-family="Times,serif" font-size="14.00">Class Cycle Checks</text>
</g>
<g id="clust10" class="cluster"><title>cluster3</title>
<polygon fill="lightgrey" stroke="black" points="1893,-883 1893,-958 1978,-958 1978,-883 1893,-883"/>
<text text-anchor="middle" x="1935.5" y="-890.8" font-family="Times,serif" font-size="14.00">Root Project</text>
</g>
<g id="clust11" class="cluster"><title>cluster4</title>
<polygon fill="lightgrey" stroke="black" points="1893,-518 1893,-681 2131,-681 2131,-518 1893,-518"/>
<text text-anchor="middle" x="1937" y="-525.8" font-family="Times,serif" font-size="14.00">Java Projects</text>
</g>
<g id="clust12" class="cluster"><title>cluster41</title>
</g>
<g id="clust13" class="cluster"><title>cluster42</title>
</g>
<g id="clust14" class="cluster"><title>cluster5</title>
<polygon fill="lightgrey" stroke="black" points="1986,-689 1986,-966 2284,-966 2284,-689 1986,-689"/>
<text text-anchor="middle" x="2026.5" y="-696.8" font-family="Times,serif" font-size="14.00">All Projects</text>
</g>
<g id="clust15" class="cluster"><title>cluster21</title>
</g>
<g id="clust16" class="cluster"><title>cluster22</title>
</g>
<g id="clust17" class="cluster"><title>cluster7</title>
<polygon fill="lightgrey" stroke="black" points="8,-8 8,-673 672,-673 672,-8 8,-8"/>
<text text-anchor="middle" x="52.5" y="-15.8" font-family="Times,serif" font-size="14.00">Build Project</text>
</g>
<!-- compileJava -->
<g id="node1" class="node"><title>compileJava</title>
<polygon fill="lightcyan" stroke="black" points="1361.25,-950 1276.75,-950 1276.75,-914 1361.25,-914 1361.25,-950"/>
<text text-anchor="middle" x="1319" y="-928.3" font-family="Times,serif" font-size="14.00">compileJava</text>
</g>
<!-- classes -->
<g id="node3" class="node"><title>classes</title>
<polygon fill="lightcyan" stroke="black" points="1481,-836 1427,-836 1427,-800 1481,-800 1481,-836"/>
<text text-anchor="middle" x="1454" y="-814.3" font-family="Times,serif" font-size="14.00">classes</text>
</g>
<!-- compileJava&#45;&gt;classes -->
<g id="edge1" class="edge"><title>compileJava&#45;&gt;classes</title>
<path fill="none" stroke="black" d="M1336.52,-913.651C1346.17,-904.315 1358.5,-892.749 1370,-883 1386.64,-868.897 1405.95,-854.08 1421.86,-842.259"/>
<polygon fill="black" stroke="black" points="1424.35,-844.777 1430.31,-836.023 1420.19,-839.144 1424.35,-844.777"/>
</g>
<!-- processResources -->
<g id="node2" class="node"><title>processResources</title>
<polygon fill="lightcyan" stroke="black" points="1492.25,-950 1379.75,-950 1379.75,-914 1492.25,-914 1492.25,-950"/>
<text text-anchor="middle" x="1436" y="-928.3" font-family="Times,serif" font-size="14.00">processResources</text>
</g>
<!-- processResources&#45;&gt;classes -->
<g id="edge2" class="edge"><title>processResources&#45;&gt;classes</title>
<path fill="none" stroke="black" d="M1438.73,-913.99C1441.63,-895.981 1446.24,-867.293 1449.64,-846.152"/>
<polygon fill="black" stroke="black" points="1453.11,-846.599 1451.24,-836.17 1446.2,-845.488 1453.11,-846.599"/>
</g>
<!-- jar -->
<g id="node4" class="node"><title>jar</title>
<polygon fill="lightcyan" stroke="black" points="1469,-764 1415,-764 1415,-728 1469,-728 1469,-764"/>
<text text-anchor="middle" x="1442" y="-742.3" font-family="Times,serif" font-size="14.00">jar</text>
</g>
<!-- classes&#45;&gt;jar -->
<g id="edge6" class="edge"><title>classes&#45;&gt;jar</title>
<path fill="none" stroke="black" d="M1451.03,-799.697C1449.71,-791.983 1448.12,-782.712 1446.65,-774.112"/>
<polygon fill="black" stroke="black" points="1450.07,-773.369 1444.93,-764.104 1443.17,-774.552 1450.07,-773.369"/>
</g>
<!-- compileTestJava -->
<g id="node5" class="node"><title>compileTestJava</title>
<polygon fill="lightcyan" stroke="black" points="1779,-764 1671,-764 1671,-728 1779,-728 1779,-764"/>
<text text-anchor="middle" x="1725" y="-742.3" font-family="Times,serif" font-size="14.00">compileTestJava</text>
</g>
<!-- classes&#45;&gt;compileTestJava -->
<g id="edge5" class="edge"><title>classes&#45;&gt;compileTestJava</title>
<path fill="none" stroke="black" d="M1481.29,-812.576C1521.39,-805.743 1598.38,-791.362 1662,-772 1666.36,-770.673 1670.84,-769.175 1675.31,-767.589"/>
<polygon fill="black" stroke="black" points="1676.85,-770.752 1685.02,-764.006 1674.43,-764.185 1676.85,-770.752"/>
</g>
<!-- test -->
<g id="node8" class="node"><title>test</title>
<polygon fill="lightcyan" stroke="black" points="1752,-593 1698,-593 1698,-557 1752,-557 1752,-593"/>
<text text-anchor="middle" x="1725" y="-571.3" font-family="Times,serif" font-size="14.00">test</text>
</g>
<!-- classes&#45;&gt;test -->
<g id="edge4" class="edge"><title>classes&#45;&gt;test</title>
<path fill="none" stroke="black" d="M1481.12,-817.687C1553.43,-818.881 1748.04,-817.7 1788,-772 1810.21,-746.597 1788.74,-650.298 1772,-621 1767.65,-613.386 1761.62,-606.252 1755.32,-600.007"/>
<polygon fill="black" stroke="black" points="1757.6,-597.35 1747.89,-593.109 1752.84,-602.479 1757.6,-597.35"/>
</g>
<!-- javadoc -->
<g id="node13" class="node"><title>javadoc</title>
<polygon fill="lightcyan" stroke="black" points="1876.25,-764 1817.75,-764 1817.75,-728 1876.25,-728 1876.25,-764"/>
<text text-anchor="middle" x="1847" y="-742.3" font-family="Times,serif" font-size="14.00">javadoc</text>
</g>
<!-- classes&#45;&gt;javadoc -->
<g id="edge3" class="edge"><title>classes&#45;&gt;javadoc</title>
<path fill="none" stroke="black" d="M1481.05,-817.031C1540.76,-816.348 1687.69,-810.527 1803,-772 1805.91,-771.029 1808.84,-769.859 1811.73,-768.561"/>
<polygon fill="black" stroke="black" points="1813.38,-771.651 1820.78,-764.073 1810.27,-765.38 1813.38,-771.651"/>
</g>
<!-- bundle -->
<g id="node15" class="node"><title>bundle</title>
<polygon fill="cyan" stroke="black" points="774,-764 720,-764 720,-728 774,-728 774,-764"/>
<text text-anchor="middle" x="747" y="-742.3" font-family="Times,serif" font-size="14.00">bundle</text>
</g>
<!-- classes&#45;&gt;bundle -->
<g id="edge17" class="edge"><title>classes&#45;&gt;bundle</title>
<path fill="none" stroke="black" d="M1426.72,-814.299C1317.36,-803.471 910.561,-763.194 784.494,-750.712"/>
<polygon fill="black" stroke="black" points="784.497,-747.196 774.201,-749.693 783.807,-754.161 784.497,-747.196"/>
</g>
<!-- checkClassCycle -->
<g id="node22" class="node"><title>checkClassCycle</title>
<polygon fill="cyan" stroke="black" points="884.25,-836 775.75,-836 775.75,-800 884.25,-800 884.25,-836"/>
<text text-anchor="middle" x="830" y="-814.3" font-family="Times,serif" font-size="14.00">checkClassCycle</text>
</g>
<!-- classes&#45;&gt;checkClassCycle -->
<g id="edge15" class="edge"><title>classes&#45;&gt;checkClassCycle</title>
<path fill="none" stroke="black" d="M1426.75,-818C1249.37,-818 1071.98,-818 894.6,-818"/>
<polygon fill="black" stroke="black" points="894.539,-814.5 884.539,-818 894.539,-821.5 894.539,-814.5"/>
</g>
<!-- findbugsMain -->
<g id="node27" class="node"><title>findbugsMain</title>
<polygon fill="cyan" stroke="black" points="2002.25,-665 1909.75,-665 1909.75,-629 2002.25,-629 2002.25,-665"/>
<text text-anchor="middle" x="1956" y="-643.3" font-family="Times,serif" font-size="14.00">findbugsMain</text>
</g>
<!-- classes&#45;&gt;findbugsMain -->
<g id="edge27" class="edge"><title>classes&#45;&gt;findbugsMain</title>
<path fill="none" stroke="black" d="M1481.01,-817.421C1565.28,-818.248 1821.78,-816.936 1889,-772 1922.7,-749.473 1940.84,-704.178 1949.45,-675.013"/>
<polygon fill="black" stroke="black" points="1952.91,-675.641 1952.2,-665.07 1946.16,-673.775 1952.91,-675.641"/>
</g>
<!-- uploadArchives -->
<g id="node10" class="node"><title>uploadArchives</title>
<polygon fill="lightcyan" stroke="black" points="1493,-665 1391,-665 1391,-629 1493,-629 1493,-665"/>
<text text-anchor="middle" x="1442" y="-643.3" font-family="Times,serif" font-size="14.00">uploadArchives</text>
</g>
<!-- jar&#45;&gt;uploadArchives -->
<g id="edge9" class="edge"><title>jar&#45;&gt;uploadArchives</title>
<path fill="none" stroke="black" d="M1442,-727.658C1442,-713.175 1442,-692.263 1442,-675.499"/>
<polygon fill="black" stroke="black" points="1445.5,-675.191 1442,-665.192 1438.5,-675.192 1445.5,-675.191"/>
</g>
<!-- assemble -->
<g id="node11" class="node"><title>assemble</title>
<polygon fill="lightcyan" stroke="black" points="1372.25,-665 1305.75,-665 1305.75,-629 1372.25,-629 1372.25,-665"/>
<text text-anchor="middle" x="1339" y="-643.3" font-family="Times,serif" font-size="14.00">assemble</text>
</g>
<!-- jar&#45;&gt;assemble -->
<g id="edge10" class="edge"><title>jar&#45;&gt;assemble</title>
<path fill="none" stroke="black" d="M1423.59,-727.658C1407.18,-712.209 1383.01,-689.446 1364.7,-672.205"/>
<polygon fill="black" stroke="black" points="1366.93,-669.499 1357.25,-665.192 1362.14,-674.595 1366.93,-669.499"/>
</g>
<!-- testClasses -->
<g id="node7" class="node"><title>testClasses</title>
<polygon fill="lightcyan" stroke="black" points="1763,-665 1687,-665 1687,-629 1763,-629 1763,-665"/>
<text text-anchor="middle" x="1725" y="-643.3" font-family="Times,serif" font-size="14.00">testClasses</text>
</g>
<!-- compileTestJava&#45;&gt;testClasses -->
<g id="edge7" class="edge"><title>compileTestJava&#45;&gt;testClasses</title>
<path fill="none" stroke="black" d="M1725,-727.658C1725,-713.175 1725,-692.263 1725,-675.499"/>
<polygon fill="black" stroke="black" points="1728.5,-675.191 1725,-665.192 1721.5,-675.192 1728.5,-675.191"/>
</g>
<!-- processTestResources -->
<g id="node6" class="node"><title>processTestResources</title>
<polygon fill="lightcyan" stroke="black" points="1653,-764 1517,-764 1517,-728 1653,-728 1653,-764"/>
<text text-anchor="middle" x="1585" y="-742.3" font-family="Times,serif" font-size="14.00">processTestResources</text>
</g>
<!-- processTestResources&#45;&gt;testClasses -->
<g id="edge8" class="edge"><title>processTestResources&#45;&gt;testClasses</title>
<path fill="none" stroke="black" d="M1608.03,-727.775C1623.21,-716.534 1643.62,-701.653 1662,-689 1670.88,-682.888 1680.59,-676.452 1689.67,-670.537"/>
<polygon fill="black" stroke="black" points="1691.64,-673.428 1698.13,-665.053 1687.83,-667.554 1691.64,-673.428"/>
</g>
<!-- testClasses&#45;&gt;test -->
<g id="edge11" class="edge"><title>testClasses&#45;&gt;test</title>
<path fill="none" stroke="black" d="M1725,-628.697C1725,-620.983 1725,-611.712 1725,-603.112"/>
<polygon fill="black" stroke="black" points="1728.5,-603.104 1725,-593.104 1721.5,-603.104 1728.5,-603.104"/>
</g>
<!-- findbugsTest -->
<g id="node25" class="node"><title>findbugsTest</title>
<polygon fill="cyan" stroke="black" points="2114.25,-665 2027.75,-665 2027.75,-629 2114.25,-629 2114.25,-665"/>
<text text-anchor="middle" x="2071" y="-643.3" font-family="Times,serif" font-size="14.00">findbugsTest</text>
</g>
<!-- testClasses&#45;&gt;findbugsTest -->
<g id="edge28" class="edge"><title>testClasses&#45;&gt;findbugsTest</title>
<path fill="none" stroke="black" d="M1763.12,-657.407C1799.5,-666.764 1856.02,-679.81 1906,-685 1928.1,-687.295 1984.26,-689.613 2006,-685 2017.87,-682.481 2029.67,-676.794 2039.9,-670.567"/>
<polygon fill="black" stroke="black" points="2041.97,-673.401 2048.45,-665.022 2038.15,-667.529 2041.97,-673.401"/>
</g>
<!-- check -->
<g id="node9" class="node"><title>check</title>
<polygon fill="lightcyan" stroke="black" points="1752,-510 1698,-510 1698,-474 1752,-474 1752,-510"/>
<text text-anchor="middle" x="1725" y="-488.3" font-family="Times,serif" font-size="14.00">check</text>
</g>
<!-- test&#45;&gt;check -->
<g id="edge13" class="edge"><title>test&#45;&gt;check</title>
<path fill="none" stroke="black" d="M1725,-556.822C1725,-546.19 1725,-532.306 1725,-520.204"/>
<polygon fill="black" stroke="black" points="1728.5,-520.153 1725,-510.153 1721.5,-520.153 1728.5,-520.153"/>
</g>
<!-- build -->
<g id="node12" class="node"><title>build</title>
<polygon fill="lightcyan" stroke="black" points="1639,-438 1585,-438 1585,-402 1639,-402 1639,-438"/>
<text text-anchor="middle" x="1612" y="-416.3" font-family="Times,serif" font-size="14.00">build</text>
</g>
<!-- check&#45;&gt;build -->
<g id="edge14" class="edge"><title>check&#45;&gt;build</title>
<path fill="none" stroke="black" d="M1704.71,-473.799C1701.22,-471.083 1697.56,-468.386 1694,-466 1679.61,-456.361 1662.98,-446.944 1648.48,-439.237"/>
<polygon fill="black" stroke="black" points="1649.78,-435.967 1639.29,-434.433 1646.53,-442.17 1649.78,-435.967"/>
</g>
<!-- assemble&#45;&gt;build -->
<g id="edge12" class="edge"><title>assemble&#45;&gt;build</title>
<path fill="none" stroke="black" d="M1350.84,-628.86C1375.73,-593.95 1436.8,-513.866 1505,-466 1526.46,-450.941 1553.73,-439.567 1575.38,-432.021"/>
<polygon fill="black" stroke="black" points="1576.52,-435.329 1584.88,-428.824 1574.29,-428.695 1576.52,-435.329"/>
</g>
<!-- cleanJava -->
<g id="node14" class="node"><title>cleanJava</title>
<polygon fill="lightcyan" stroke="black" points="1258,-950 1204,-950 1204,-914 1258,-914 1258,-950"/>
<text text-anchor="middle" x="1231" y="-928.3" font-family="Times,serif" font-size="14.00">clean</text>
</g>
<!-- bundle&#45;&gt;compileJava -->
<g id="edge18" class="edge"><title>bundle&#45;&gt;compileJava</title>
<path fill="none" stroke="red" d="M742.979,-764.239C737.595,-792.22 731.99,-847.188 763,-875 784.054,-893.883 1246.02,-871.835 1272,-883 1283.44,-887.914 1293.51,-897.075 1301.36,-906.086"/>
<polygon fill="red" stroke="red" points="1298.65,-908.301 1307.67,-913.857 1304.09,-903.888 1298.65,-908.301"/>
</g>
<!-- bundle&#45;&gt;jar -->
<g id="edge19" class="edge"><title>bundle&#45;&gt;jar</title>
<path fill="none" stroke="black" stroke-dasharray="5,2" d="M774.148,-746C984.406,-746 1194.66,-746 1404.92,-746"/>
<polygon fill="black" stroke="black" points="1404.93,-749.5 1414.93,-746 1404.93,-742.5 1404.93,-749.5"/>
</g>
<!-- bundle&#45;&gt;test -->
<g id="edge21" class="edge"><title>bundle&#45;&gt;test</title>
<path fill="none" stroke="black" d="M774.125,-744.364C843.944,-742.024 1034.82,-731.15 1184,-681 1236.42,-663.379 1240.23,-637.526 1293,-621 1366.37,-598.022 1596.97,-583.097 1687.75,-577.976"/>
<polygon fill="black" stroke="black" points="1688.07,-581.464 1697.86,-577.414 1687.68,-574.475 1688.07,-581.464"/>
</g>
<!-- bundleTest -->
<g id="node16" class="node"><title>bundleTest</title>
<polygon fill="cyan" stroke="black" points="773.25,-665 696.75,-665 696.75,-629 773.25,-629 773.25,-665"/>
<text text-anchor="middle" x="735" y="-643.3" font-family="Times,serif" font-size="14.00">bundleTest</text>
</g>
<!-- bundle&#45;&gt;bundleTest -->
<g id="edge20" class="edge"><title>bundle&#45;&gt;bundleTest</title>
<path fill="none" stroke="black" d="M744.855,-727.658C743.063,-713.175 740.476,-692.263 738.402,-675.499"/>
<polygon fill="black" stroke="black" points="741.828,-674.686 737.127,-665.192 734.881,-675.546 741.828,-674.686"/>
</g>
<!-- release -->
<g id="node17" class="node"><title>release</title>
<polygon fill="cyan" stroke="black" points="862,-665 808,-665 808,-629 862,-629 862,-665"/>
<text text-anchor="middle" x="835" y="-643.3" font-family="Times,serif" font-size="14.00">release</text>
</g>
<!-- bundle&#45;&gt;release -->
<g id="edge22" class="edge"><title>bundle&#45;&gt;release</title>
<path fill="none" stroke="black" d="M762.733,-727.658C776.623,-712.347 797.031,-689.852 812.621,-672.668"/>
<polygon fill="black" stroke="black" points="815.277,-674.95 819.404,-665.192 810.092,-670.246 815.277,-674.95"/>
</g>
<!-- export -->
<g id="node21" class="node"><title>export</title>
<polygon fill="cyan" stroke="black" points="990,-665 936,-665 936,-629 990,-629 990,-665"/>
<text text-anchor="middle" x="963" y="-643.3" font-family="Times,serif" font-size="14.00">export</text>
</g>
<!-- bundle&#45;&gt;export -->
<g id="edge23" class="edge"><title>bundle&#45;&gt;export</title>
<path fill="none" stroke="black" d="M774.082,-738.435C809.968,-729.032 874.506,-709.642 924,-681 928.584,-678.347 933.152,-675.136 937.462,-671.772"/>
<polygon fill="black" stroke="black" points="939.901,-674.296 945.367,-665.219 935.435,-668.906 939.901,-674.296"/>
</g>
<!-- p2Entry -->
<g id="node33" class="node"><title>p2Entry</title>
<polygon fill="none" stroke="black" points="583,-665 523,-665 523,-629 583,-629 583,-665"/>
<text text-anchor="middle" x="553" y="-643.3" font-family="Times,serif" font-size="14.00">p2Entry</text>
</g>
<!-- bundle&#45;&gt;p2Entry -->
<g id="edge38" class="edge"><title>bundle&#45;&gt;p2Entry</title>
<path fill="none" stroke="red" d="M719.616,-731.308C686.397,-714.699 630.156,-686.578 592.313,-667.657"/>
<polygon fill="red" stroke="red" points="593.623,-664.399 583.114,-663.057 590.493,-670.66 593.623,-664.399"/>
</g>
<!-- bundleTest&#45;&gt;check -->
<g id="edge24" class="edge"><title>bundleTest&#45;&gt;check</title>
<path fill="none" stroke="black" d="M736.122,-628.694C739.01,-600.096 749.313,-543.594 786,-518 823.523,-491.823 1516.98,-492.33 1687.41,-492.853"/>
<polygon fill="black" stroke="black" points="1687.63,-496.353 1697.64,-492.886 1687.65,-489.353 1687.63,-496.353"/>
</g>
<!-- releaseNeeded -->
<g id="node18" class="node"><title>releaseNeeded</title>
<polygon fill="cyan" stroke="black" points="893.25,-593 798.75,-593 798.75,-557 893.25,-557 893.25,-593"/>
<text text-anchor="middle" x="846" y="-571.3" font-family="Times,serif" font-size="14.00">releaseNeeded</text>
</g>
<!-- release&#45;&gt;releaseNeeded -->
<g id="edge25" class="edge"><title>release&#45;&gt;releaseNeeded</title>
<path fill="none" stroke="black" d="M837.719,-628.697C838.931,-620.983 840.388,-611.712 841.739,-603.112"/>
<polygon fill="black" stroke="black" points="845.217,-603.526 843.312,-593.104 838.302,-602.44 845.217,-603.526"/>
</g>
<!-- releaseNeeded&#45;&gt;releaseNeeded -->
<g id="edge26" class="edge"><title>releaseNeeded&#45;&gt;releaseNeeded</title>
<path fill="none" stroke="red" d="M893.326,-588.101C903.571,-586.82 911,-582.453 911,-575 911,-570.225 907.951,-566.717 903.066,-564.476"/>
<polygon fill="red" stroke="red" points="903.889,-561.073 893.326,-561.899 902.098,-567.84 903.889,-561.073"/>
</g>
<!-- cleanBnd -->
<g id="node19" class="node"><title>cleanBnd</title>
<polygon fill="cyan" stroke="black" points="1172,-665 1118,-665 1118,-629 1172,-629 1172,-665"/>
<text text-anchor="middle" x="1145" y="-643.3" font-family="Times,serif" font-size="14.00">clean</text>
</g>
<!-- bndproperties -->
<g id="node20" class="node"><title>bndproperties</title>
<polygon fill="cyan" stroke="black" points="1099.25,-665 1008.75,-665 1008.75,-629 1099.25,-629 1099.25,-665"/>
<text text-anchor="middle" x="1054" y="-643.3" font-family="Times,serif" font-size="14.00">bndproperties</text>
</g>
<!-- checkClassCycle&#45;&gt;bundle -->
<g id="edge16" class="edge"><title>checkClassCycle&#45;&gt;bundle</title>
<path fill="none" stroke="black" d="M809.483,-799.697C799.131,-790.965 786.414,-780.24 775.161,-770.75"/>
<polygon fill="black" stroke="black" points="777.182,-767.876 767.281,-764.104 772.669,-773.227 777.182,-767.876"/>
</g>
<!-- wrapper -->
<g id="node23" class="node"><title>wrapper</title>
<polygon fill="cyan" stroke="black" points="1965.25,-950 1904.75,-950 1904.75,-914 1965.25,-914 1965.25,-950"/>
<text text-anchor="middle" x="1935" y="-928.3" font-family="Times,serif" font-size="14.00">wrapper</text>
</g>
<!-- findbugstest -->
<g id="node24" class="node"><title>findbugstest</title>
<polygon fill="cyan" stroke="black" points="2111.25,-593 2028.75,-593 2028.75,-557 2111.25,-557 2111.25,-593"/>
<text text-anchor="middle" x="2070" y="-571.3" font-family="Times,serif" font-size="14.00">findbugstest</text>
</g>
<!-- findbugstest&#45;&gt;check -->
<g id="edge32" class="edge"><title>findbugstest&#45;&gt;check</title>
<path fill="none" stroke="green" d="M2058.43,-556.831C2048.57,-543.734 2033.12,-526.536 2015,-518 1971.17,-497.356 1830.31,-493.611 1762.36,-493.033"/>
<polygon fill="green" stroke="green" points="1762.13,-489.531 1752.1,-492.965 1762.08,-496.531 1762.13,-489.531"/>
</g>
<!-- findbugsTest&#45;&gt;findbugstest -->
<g id="edge30" class="edge"><title>findbugsTest&#45;&gt;findbugstest</title>
<path fill="none" stroke="black" d="M2070.75,-628.697C2070.64,-620.983 2070.51,-611.712 2070.39,-603.112"/>
<polygon fill="black" stroke="black" points="2073.89,-603.053 2070.24,-593.104 2066.89,-603.153 2073.89,-603.053"/>
</g>
<!-- findbugs -->
<g id="node26" class="node"><title>findbugs</title>
<polygon fill="cyan" stroke="black" points="1980,-593 1916,-593 1916,-557 1980,-557 1980,-593"/>
<text text-anchor="middle" x="1948" y="-571.3" font-family="Times,serif" font-size="14.00">findbugs</text>
</g>
<!-- findbugs&#45;&gt;check -->
<g id="edge31" class="edge"><title>findbugs&#45;&gt;check</title>
<path fill="none" stroke="green" d="M1915.57,-562.222C1874.67,-547.364 1804.51,-521.881 1761.69,-506.326"/>
<polygon fill="green" stroke="green" points="1762.8,-503.006 1752.2,-502.881 1760.41,-509.585 1762.8,-503.006"/>
</g>
<!-- findbugsMain&#45;&gt;findbugs -->
<g id="edge29" class="edge"><title>findbugsMain&#45;&gt;findbugs</title>
<path fill="none" stroke="black" d="M1954.02,-628.697C1953.14,-620.983 1952.08,-611.712 1951.1,-603.112"/>
<polygon fill="black" stroke="black" points="1954.57,-602.642 1949.95,-593.104 1947.61,-603.437 1954.57,-602.642"/>
</g>
<!-- index -->
<g id="node28" class="node"><title>index</title>
<polygon fill="cyan" stroke="black" points="2268,-950 2214,-950 2214,-914 2268,-914 2268,-950"/>
<text text-anchor="middle" x="2241" y="-928.3" font-family="Times,serif" font-size="14.00">index</text>
</g>
<!-- clean -->
<g id="node29" class="node"><title>clean</title>
<polygon fill="lightcyan" stroke="black" points="2128,-950 2074,-950 2074,-914 2128,-914 2128,-950"/>
<text text-anchor="middle" x="2101" y="-928.3" font-family="Times,serif" font-size="14.00">clean</text>
</g>
<!-- cleanNeeded -->
<g id="node30" class="node"><title>cleanNeeded</title>
<polygon fill="cyan" stroke="black" points="2088,-836 2002,-836 2002,-800 2088,-800 2088,-836"/>
<text text-anchor="middle" x="2045" y="-814.3" font-family="Times,serif" font-size="14.00">cleanNeeded</text>
</g>
<!-- clean&#45;&gt;cleanNeeded -->
<g id="edge33" class="edge"><title>clean&#45;&gt;cleanNeeded</title>
<path fill="none" stroke="blue" d="M2092.49,-913.99C2083.37,-895.734 2068.75,-866.506 2058.14,-845.287"/>
<polygon fill="blue" stroke="blue" points="2061.19,-843.549 2053.59,-836.17 2054.93,-846.68 2061.19,-843.549"/>
</g>
<!-- distclean -->
<g id="node31" class="node"><title>distclean</title>
<polygon fill="cyan" stroke="black" points="2189.25,-836 2124.75,-836 2124.75,-800 2189.25,-800 2189.25,-836"/>
<text text-anchor="middle" x="2157" y="-814.3" font-family="Times,serif" font-size="14.00">distclean</text>
</g>
<!-- clean&#45;&gt;distclean -->
<g id="edge35" class="edge"><title>clean&#45;&gt;distclean</title>
<path fill="none" stroke="blue" d="M2109.51,-913.99C2118.63,-895.734 2133.25,-866.506 2143.86,-845.287"/>
<polygon fill="blue" stroke="blue" points="2147.07,-846.68 2148.41,-836.17 2140.81,-843.549 2147.07,-846.68"/>
</g>
<!-- cleanNeeded&#45;&gt;cleanNeeded -->
<g id="edge34" class="edge"><title>cleanNeeded&#45;&gt;cleanNeeded</title>
<path fill="none" stroke="red" d="M2088.04,-831.262C2098.35,-830.225 2106,-825.805 2106,-818 2106,-813 2102.86,-809.389 2097.89,-807.167"/>
<polygon fill="red" stroke="red" points="2098.58,-803.732 2088.04,-804.738 2096.91,-810.529 2098.58,-803.732"/>
</g>
<!-- distcleanNeeded -->
<g id="node32" class="node"><title>distcleanNeeded</title>
<polygon fill="cyan" stroke="black" points="2172,-764 2066,-764 2066,-728 2172,-728 2172,-764"/>
<text text-anchor="middle" x="2119" y="-742.3" font-family="Times,serif" font-size="14.00">distcleanNeeded</text>
</g>
<!-- distclean&#45;&gt;distcleanNeeded -->
<g id="edge36" class="edge"><title>distclean&#45;&gt;distcleanNeeded</title>
<path fill="none" stroke="black" d="M2147.61,-799.697C2143.24,-791.644 2137.94,-781.894 2133.1,-772.982"/>
<polygon fill="black" stroke="black" points="2136.13,-771.223 2128.29,-764.104 2129.98,-774.563 2136.13,-771.223"/>
</g>
<!-- distcleanNeeded&#45;&gt;distcleanNeeded -->
<g id="edge37" class="edge"><title>distcleanNeeded&#45;&gt;distcleanNeeded</title>
<path fill="none" stroke="red" d="M2172.26,-758.899C2182.63,-757.401 2190,-753.102 2190,-746 2190,-741.451 2186.98,-738.051 2182.08,-735.801"/>
<polygon fill="red" stroke="red" points="2182.83,-732.378 2172.26,-733.101 2180.97,-739.128 2182.83,-732.378"/>
</g>
<!-- p2FeaturesTree -->
<g id="node34" class="node"><title>p2FeaturesTree</title>
<polygon fill="none" stroke="black" points="415.25,-593 314.75,-593 314.75,-557 415.25,-557 415.25,-593"/>
<text text-anchor="middle" x="365" y="-571.3" font-family="Times,serif" font-size="14.00">p2FeaturesTree</text>
</g>
<!-- p2Entry&#45;&gt;p2FeaturesTree -->
<g id="edge39" class="edge"><title>p2Entry&#45;&gt;p2FeaturesTree</title>
<path fill="none" stroke="black" d="M522.795,-634.753C495.304,-624.517 454.03,-609.149 420.589,-596.698"/>
<polygon fill="black" stroke="black" points="421.528,-593.313 410.935,-593.104 419.086,-599.873 421.528,-593.313"/>
</g>
<!-- p2PluginsMain -->
<g id="node40" class="node"><title>p2PluginsMain</title>
<polygon fill="none" stroke="black" points="664,-593 564,-593 564,-557 664,-557 664,-593"/>
<text text-anchor="middle" x="614" y="-571.3" font-family="Times,serif" font-size="14.00">p2PluginsMain</text>
</g>
<!-- p2Entry&#45;&gt;p2PluginsMain -->
<g id="edge48" class="edge"><title>p2Entry&#45;&gt;p2PluginsMain</title>
<path fill="none" stroke="black" d="M568.079,-628.697C575.392,-620.305 584.31,-610.07 592.335,-600.861"/>
<polygon fill="black" stroke="black" points="595.164,-602.943 599.095,-593.104 589.886,-598.344 595.164,-602.943"/>
</g>
<!-- p2PluginsExtras -->
<g id="node41" class="node"><title>p2PluginsExtras</title>
<polygon fill="none" stroke="black" points="545.25,-593 440.75,-593 440.75,-557 545.25,-557 545.25,-593"/>
<text text-anchor="middle" x="493" y="-571.3" font-family="Times,serif" font-size="14.00">p2PluginsExtras</text>
</g>
<!-- p2Entry&#45;&gt;p2PluginsExtras -->
<g id="edge49" class="edge"><title>p2Entry&#45;&gt;p2PluginsExtras</title>
<path fill="none" stroke="black" d="M538.169,-628.697C530.975,-620.305 522.203,-610.07 514.31,-600.861"/>
<polygon fill="black" stroke="black" points="516.826,-598.419 507.661,-593.104 511.511,-602.975 516.826,-598.419"/>
</g>
<!-- p2FeatureMain -->
<g id="node35" class="node"><title>p2FeatureMain</title>
<polygon fill="none" stroke="black" points="284,-510 184,-510 184,-474 284,-474 284,-510"/>
<text text-anchor="middle" x="234" y="-488.3" font-family="Times,serif" font-size="14.00">p2FeatureMain</text>
</g>
<!-- p2FeaturesTree&#45;&gt;p2FeatureMain -->
<g id="edge40" class="edge"><title>p2FeaturesTree&#45;&gt;p2FeatureMain</title>
<path fill="none" stroke="black" d="M337.218,-556.822C317.766,-544.794 291.581,-528.604 270.453,-515.539"/>
<polygon fill="black" stroke="black" points="272.088,-512.435 261.742,-510.153 268.406,-518.389 272.088,-512.435"/>
</g>
<!-- p2FeatureJarViewer -->
<g id="node36" class="node"><title>p2FeatureJarViewer</title>
<polygon fill="none" stroke="black" points="428,-510 302,-510 302,-474 428,-474 428,-510"/>
<text text-anchor="middle" x="365" y="-488.3" font-family="Times,serif" font-size="14.00">p2FeatureJarViewer</text>
</g>
<!-- p2FeaturesTree&#45;&gt;p2FeatureJarViewer -->
<g id="edge41" class="edge"><title>p2FeaturesTree&#45;&gt;p2FeatureJarViewer</title>
<path fill="none" stroke="black" d="M365,-556.822C365,-546.19 365,-532.306 365,-520.204"/>
<polygon fill="black" stroke="black" points="368.5,-520.153 365,-510.153 361.5,-520.153 368.5,-520.153"/>
</g>
<!-- p2FeatureDMPlugin -->
<g id="node37" class="node"><title>p2FeatureDMPlugin</title>
<polygon fill="none" stroke="black" points="574,-510 446,-510 446,-474 574,-474 574,-510"/>
<text text-anchor="middle" x="510" y="-488.3" font-family="Times,serif" font-size="14.00">p2FeatureDMPlugin</text>
</g>
<!-- p2FeaturesTree&#45;&gt;p2FeatureDMPlugin -->
<g id="edge42" class="edge"><title>p2FeaturesTree&#45;&gt;p2FeatureDMPlugin</title>
<path fill="none" stroke="black" d="M381.233,-556.977C393.804,-544.652 412.194,-528.397 431,-518 433.396,-516.675 435.872,-515.409 438.404,-514.201"/>
<polygon fill="black" stroke="black" points="440.028,-517.31 447.766,-510.073 437.204,-510.905 440.028,-517.31"/>
</g>
<!-- p2FeatureAmdatuPlugin -->
<g id="node38" class="node"><title>p2FeatureAmdatuPlugin</title>
<polygon fill="none" stroke="black" points="166,-510 16,-510 16,-474 166,-474 166,-510"/>
<text text-anchor="middle" x="91" y="-488.3" font-family="Times,serif" font-size="14.00">p2FeatureAmdatuPlugin</text>
</g>
<!-- p2FeaturesTree&#45;&gt;p2FeatureAmdatuPlugin -->
<g id="edge43" class="edge"><title>p2FeaturesTree&#45;&gt;p2FeatureAmdatuPlugin</title>
<path fill="none" stroke="black" d="M314.744,-559.143C270.805,-546.154 206.642,-527.186 158.281,-512.89"/>
<polygon fill="black" stroke="black" points="159.105,-509.484 148.523,-510.005 157.12,-516.196 159.105,-509.484"/>
</g>
<!-- p2Features -->
<g id="node39" class="node"><title>p2Features</title>
<polygon fill="none" stroke="black" points="403,-438 327,-438 327,-402 403,-402 403,-438"/>
<text text-anchor="middle" x="365" y="-416.3" font-family="Times,serif" font-size="14.00">p2Features</text>
</g>
<!-- p2FeatureMain&#45;&gt;p2Features -->
<g id="edge44" class="edge"><title>p2FeatureMain&#45;&gt;p2Features</title>
<path fill="none" stroke="black" d="M266.046,-473.876C283.492,-464.554 305.265,-452.919 323.943,-442.939"/>
<polygon fill="black" stroke="black" points="325.66,-445.99 332.831,-438.19 322.361,-439.816 325.66,-445.99"/>
</g>
<!-- p2FeatureJarViewer&#45;&gt;p2Features -->
<g id="edge45" class="edge"><title>p2FeatureJarViewer&#45;&gt;p2Features</title>
<path fill="none" stroke="black" d="M365,-473.697C365,-465.983 365,-456.712 365,-448.112"/>
<polygon fill="black" stroke="black" points="368.5,-448.104 365,-438.104 361.5,-448.104 368.5,-448.104"/>
</g>
<!-- p2FeatureDMPlugin&#45;&gt;p2Features -->
<g id="edge46" class="edge"><title>p2FeatureDMPlugin&#45;&gt;p2Features</title>
<path fill="none" stroke="black" d="M474.529,-473.876C454.883,-464.392 430.278,-452.513 409.368,-442.419"/>
<polygon fill="black" stroke="black" points="410.883,-439.264 400.356,-438.068 407.84,-445.568 410.883,-439.264"/>
</g>
<!-- p2FeatureAmdatuPlugin&#45;&gt;p2Features -->
<g id="edge47" class="edge"><title>p2FeatureAmdatuPlugin&#45;&gt;p2Features</title>
<path fill="none" stroke="black" d="M146.903,-473.881C156.259,-471.155 165.886,-468.434 175,-466 223.104,-453.156 278.552,-440.238 317.083,-431.558"/>
<polygon fill="black" stroke="black" points="317.999,-434.94 326.99,-429.336 316.466,-428.109 317.999,-434.94"/>
</g>
<!-- p2 -->
<g id="node43" class="node"><title>p2</title>
<polygon fill="cyan" stroke="black" points="472,-363 418,-363 418,-327 472,-327 472,-363"/>
<text text-anchor="middle" x="445" y="-341.3" font-family="Times,serif" font-size="14.00">p2</text>
</g>
<!-- p2Features&#45;&gt;p2 -->
<g id="edge52" class="edge"><title>p2Features&#45;&gt;p2</title>
<path fill="none" stroke="black" d="M383.959,-401.7C394.32,-392.245 407.315,-380.387 418.649,-370.045"/>
<polygon fill="black" stroke="black" points="421.15,-372.502 426.177,-363.176 416.431,-367.331 421.15,-372.502"/>
</g>
<!-- p2Plugins -->
<g id="node42" class="node"><title>p2Plugins</title>
<polygon fill="none" stroke="black" points="663.25,-510 592.75,-510 592.75,-474 663.25,-474 663.25,-510"/>
<text text-anchor="middle" x="628" y="-488.3" font-family="Times,serif" font-size="14.00">p2Plugins</text>
</g>
<!-- p2PluginsMain&#45;&gt;p2Plugins -->
<g id="edge50" class="edge"><title>p2PluginsMain&#45;&gt;p2Plugins</title>
<path fill="none" stroke="black" d="M616.969,-556.822C618.807,-546.19 621.206,-532.306 623.298,-520.204"/>
<polygon fill="black" stroke="black" points="626.781,-520.603 625.035,-510.153 619.883,-519.411 626.781,-520.603"/>
</g>
<!-- p2PluginsExtras&#45;&gt;p2Plugins -->
<g id="edge51" class="edge"><title>p2PluginsExtras&#45;&gt;p2Plugins</title>
<path fill="none" stroke="black" d="M507.974,-556.78C519.642,-544.356 536.862,-528.061 555,-518 566.318,-511.722 570.714,-514.068 583,-510 583.099,-509.967 583.198,-509.934 583.298,-509.901"/>
<polygon fill="black" stroke="black" points="584.418,-513.217 592.726,-506.642 582.131,-506.602 584.418,-513.217"/>
</g>
<!-- p2Plugins&#45;&gt;p2 -->
<g id="edge53" class="edge"><title>p2Plugins&#45;&gt;p2</title>
<path fill="none" stroke="black" d="M606.289,-473.797C573.545,-447.853 511.446,-398.648 474.589,-369.445"/>
<polygon fill="black" stroke="black" points="476.694,-366.648 466.683,-363.18 472.347,-372.134 476.694,-366.648"/>
</g>
<!-- indexBuild -->
<g id="node44" class="node"><title>indexBuild</title>
<polygon fill="cyan" stroke="black" points="472,-291 418,-291 418,-255 472,-255 472,-291"/>
<text text-anchor="middle" x="445" y="-269.3" font-family="Times,serif" font-size="14.00">index</text>
</g>
<!-- p2&#45;&gt;indexBuild -->
<g id="edge54" class="edge"><title>p2&#45;&gt;indexBuild</title>
<path fill="none" stroke="black" d="M445,-326.697C445,-318.983 445,-309.712 445,-301.112"/>
<polygon fill="black" stroke="black" points="448.5,-301.104 445,-291.104 441.5,-301.104 448.5,-301.104"/>
</g>
<!-- distZipMain -->
<g id="node45" class="node"><title>distZipMain</title>
<polygon fill="none" stroke="black" points="403,-147 319,-147 319,-111 403,-111 403,-147"/>
<text text-anchor="middle" x="361" y="-125.3" font-family="Times,serif" font-size="14.00">distZipMain</text>
</g>
<!-- indexBuild&#45;&gt;distZipMain -->
<g id="edge55" class="edge"><title>indexBuild&#45;&gt;distZipMain</title>
<path fill="none" stroke="black" d="M417.9,-259.806C401.488,-250.929 381.715,-237.264 371,-219 360.082,-200.39 358.062,-175.805 358.502,-157.191"/>
<polygon fill="black" stroke="black" points="362.007,-157.169 358.996,-147.011 355.015,-156.83 362.007,-157.169"/>
</g>
<!-- distCompositeExtras -->
<g id="node46" class="node"><title>distCompositeExtras</title>
<polygon fill="none" stroke="black" points="510,-219 380,-219 380,-183 510,-183 510,-219"/>
<text text-anchor="middle" x="445" y="-197.3" font-family="Times,serif" font-size="14.00">distCompositeExtras</text>
</g>
<!-- indexBuild&#45;&gt;distCompositeExtras -->
<g id="edge56" class="edge"><title>indexBuild&#45;&gt;distCompositeExtras</title>
<path fill="none" stroke="black" d="M445,-254.697C445,-246.983 445,-237.712 445,-229.112"/>
<polygon fill="black" stroke="black" points="448.5,-229.104 445,-219.104 441.5,-229.104 448.5,-229.104"/>
</g>
<!-- distZipExtras -->
<g id="node47" class="node"><title>distZipExtras</title>
<polygon fill="none" stroke="black" points="510.25,-147 421.75,-147 421.75,-111 510.25,-111 510.25,-147"/>
<text text-anchor="middle" x="466" y="-125.3" font-family="Times,serif" font-size="14.00">distZipExtras</text>
</g>
<!-- indexBuild&#45;&gt;distZipExtras -->
<g id="edge57" class="edge"><title>indexBuild&#45;&gt;distZipExtras</title>
<path fill="none" stroke="black" d="M472.061,-260.582C488.907,-251.879 509.178,-238.116 519,-219 526.312,-204.769 525.123,-197.782 519,-183 514.455,-172.028 506.415,-162.143 497.949,-153.964"/>
<polygon fill="black" stroke="black" points="500.249,-151.326 490.477,-147.232 495.563,-156.526 500.249,-151.326"/>
</g>
<!-- dist -->
<g id="node48" class="node"><title>dist</title>
<polygon fill="cyan" stroke="black" points="440,-75 386,-75 386,-39 440,-39 440,-75"/>
<text text-anchor="middle" x="413" y="-53.3" font-family="Times,serif" font-size="14.00">dist</text>
</g>
<!-- distZipMain&#45;&gt;dist -->
<g id="edge59" class="edge"><title>distZipMain&#45;&gt;dist</title>
<path fill="none" stroke="black" d="M373.854,-110.697C380.025,-102.389 387.537,-92.2771 394.324,-83.1407"/>
<polygon fill="black" stroke="black" points="397.14,-85.2189 400.294,-75.1043 391.521,-81.0446 397.14,-85.2189"/>
</g>
<!-- distCompositeExtras&#45;&gt;distZipExtras -->
<g id="edge58" class="edge"><title>distCompositeExtras&#45;&gt;distZipExtras</title>
<path fill="none" stroke="black" d="M450.191,-182.697C452.531,-174.898 455.347,-165.509 457.951,-156.829"/>
<polygon fill="black" stroke="black" points="461.348,-157.688 460.869,-147.104 454.643,-155.677 461.348,-157.688"/>
</g>
<!-- distZipExtras&#45;&gt;dist -->
<g id="edge60" class="edge"><title>distZipExtras&#45;&gt;dist</title>
<path fill="none" stroke="black" d="M452.899,-110.697C446.609,-102.389 438.953,-92.2771 432.035,-83.1407"/>
<polygon fill="black" stroke="black" points="434.777,-80.9642 425.95,-75.1043 429.196,-85.1897 434.777,-80.9642"/>
</g>
</g>
</svg>
