<?xml version="1.0" encoding="UTF-8" standalone="no"?>
<!DOCTYPE svg PUBLIC "-//W3C//DTD SVG 1.1//EN"
 "http://www.w3.org/Graphics/SVG/1.1/DTD/svg11.dtd">
<!-- Generated by graphviz version 2.34.0 (20140110.0949)
 -->
<!-- Title: GradleSetup Pages: 1 -->
<svg width="1728pt" height="642pt"
 viewBox="0.00 0.00 1728.00 642.00" xmlns="http://www.w3.org/2000/svg" xmlns:xlink="http://www.w3.org/1999/xlink">
<g id="graph0" class="graph" transform="scale(1 1) rotate(0) translate(4 638)">
<title>GradleSetup</title>
<polygon fill="white" stroke="white" points="-4,4 -4,-638 1724,-638 1724,4 -4,4"/>
<text text-anchor="middle" x="61" y="-618.8" font-family="Times,serif" font-size="14.00">Gradle Build Setup</text>
<g id="clust1" class="cluster"><title>cluster1</title>
<polygon fill="lightgrey" stroke="black" points="524,-8 524,-603 1213,-603 1213,-8 524,-8"/>
<text text-anchor="middle" x="564" y="-15.8" font-family="Times,serif" font-size="14.00">Java Plugin</text>
</g>
<g id="clust2" class="cluster"><title>cluster11</title>
</g>
<g id="clust3" class="cluster"><title>cluster12</title>
</g>
<g id="clust4" class="cluster"><title>cluster13</title>
</g>
<g id="clust5" class="cluster"><title>cluster2</title>
<polygon fill="lightgrey" stroke="black" points="8,-155 8,-512 516,-512 516,-155 8,-155"/>
<text text-anchor="middle" x="51" y="-162.8" font-family="Times,serif" font-size="14.00">Bnd Projects</text>
</g>
<g id="clust6" class="cluster"><title>cluster21</title>
</g>
<g id="clust7" class="cluster"><title>cluster22</title>
</g>
<g id="clust8" class="cluster"><title>cluster23</title>
</g>
<g id="clust9" class="cluster"><title>cluster100</title>
<polygon fill="lightgrey" stroke="black" points="95,-429 95,-504 221,-504 221,-429 95,-429"/>
<text text-anchor="middle" x="157.5" y="-488.8" font-family="Times,serif" font-size="14.00">Class Cycle Checks</text>
</g>
<g id="clust10" class="cluster"><title>cluster3</title>
<polygon fill="lightgrey" stroke="black" points="1221,-520 1221,-595 1306,-595 1306,-520 1221,-520"/>
<text text-anchor="middle" x="1263.5" y="-527.8" font-family="Times,serif" font-size="14.00">Root Project</text>
</g>
<g id="clust11" class="cluster"><title>cluster4</title>
<polygon fill="lightgrey" stroke="black" points="1221,-155 1221,-318 1459,-318 1459,-155 1221,-155"/>
<text text-anchor="middle" x="1265" y="-162.8" font-family="Times,serif" font-size="14.00">Java Projects</text>
</g>
<g id="clust12" class="cluster"><title>cluster41</title>
</g>
<g id="clust13" class="cluster"><title>cluster42</title>
</g>
<g id="clust14" class="cluster"><title>cluster5</title>
<polygon fill="lightgrey" stroke="black" points="1314,-326 1314,-603 1712,-603 1712,-326 1314,-326"/>
<text text-anchor="middle" x="1354.5" y="-333.8" font-family="Times,serif" font-size="14.00">All Projects</text>
</g>
<g id="clust15" class="cluster"><title>cluster21</title>
</g>
<g id="clust16" class="cluster"><title>cluster22</title>
</g>
<!-- compileJava -->
<g id="node1" class="node"><title>compileJava</title>
<polygon fill="lightcyan" stroke="black" points="689.25,-587 604.75,-587 604.75,-551 689.25,-551 689.25,-587"/>
<text text-anchor="middle" x="647" y="-565.3" font-family="Times,serif" font-size="14.00">compileJava</text>
</g>
<!-- classes -->
<g id="node3" class="node"><title>classes</title>
<polygon fill="lightcyan" stroke="black" points="809,-473 755,-473 755,-437 809,-437 809,-473"/>
<text text-anchor="middle" x="782" y="-451.3" font-family="Times,serif" font-size="14.00">classes</text>
</g>
<!-- compileJava&#45;&gt;classes -->
<g id="edge1" class="edge"><title>compileJava&#45;&gt;classes</title>
<path fill="none" stroke="black" d="M664.521,-550.651C674.173,-541.315 686.498,-529.749 698,-520 714.639,-505.897 733.954,-491.08 749.865,-479.259"/>
<polygon fill="black" stroke="black" points="752.347,-481.777 758.315,-473.023 748.19,-476.144 752.347,-481.777"/>
</g>
<!-- processResources -->
<g id="node2" class="node"><title>processResources</title>
<polygon fill="lightcyan" stroke="black" points="820.25,-587 707.75,-587 707.75,-551 820.25,-551 820.25,-587"/>
<text text-anchor="middle" x="764" y="-565.3" font-family="Times,serif" font-size="14.00">processResources</text>
</g>
<!-- processResources&#45;&gt;classes -->
<g id="edge2" class="edge"><title>processResources&#45;&gt;classes</title>
<path fill="none" stroke="black" d="M766.734,-550.99C769.628,-532.981 774.239,-504.293 777.636,-483.152"/>
<polygon fill="black" stroke="black" points="781.109,-483.599 779.24,-473.17 774.198,-482.488 781.109,-483.599"/>
</g>
<!-- jar -->
<g id="node4" class="node"><title>jar</title>
<polygon fill="lightcyan" stroke="black" points="797,-401 743,-401 743,-365 797,-365 797,-401"/>
<text text-anchor="middle" x="770" y="-379.3" font-family="Times,serif" font-size="14.00">jar</text>
</g>
<!-- classes&#45;&gt;jar -->
<g id="edge6" class="edge"><title>classes&#45;&gt;jar</title>
<path fill="none" stroke="black" d="M779.034,-436.697C777.711,-428.983 776.122,-419.712 774.648,-411.112"/>
<polygon fill="black" stroke="black" points="778.072,-410.369 772.932,-401.104 771.172,-411.552 778.072,-410.369"/>
</g>
<!-- compileTestJava -->
<g id="node5" class="node"><title>compileTestJava</title>
<polygon fill="lightcyan" stroke="black" points="1107,-401 999,-401 999,-365 1107,-365 1107,-401"/>
<text text-anchor="middle" x="1053" y="-379.3" font-family="Times,serif" font-size="14.00">compileTestJava</text>
</g>
<!-- classes&#45;&gt;compileTestJava -->
<g id="edge5" class="edge"><title>classes&#45;&gt;compileTestJava</title>
<path fill="none" stroke="black" d="M809.289,-449.576C849.392,-442.743 926.377,-428.362 990,-409 994.361,-407.673 998.844,-406.175 1003.31,-404.589"/>
<polygon fill="black" stroke="black" points="1004.85,-407.752 1013.02,-401.006 1002.43,-401.185 1004.85,-407.752"/>
</g>
<!-- test -->
<g id="node8" class="node"><title>test</title>
<polygon fill="lightcyan" stroke="black" points="1080,-230 1026,-230 1026,-194 1080,-194 1080,-230"/>
<text text-anchor="middle" x="1053" y="-208.3" font-family="Times,serif" font-size="14.00">test</text>
</g>
<!-- classes&#45;&gt;test -->
<g id="edge4" class="edge"><title>classes&#45;&gt;test</title>
<path fill="none" stroke="black" d="M809.12,-454.687C881.427,-455.881 1076.04,-454.7 1116,-409 1138.21,-383.597 1116.74,-287.298 1100,-258 1095.65,-250.386 1089.62,-243.252 1083.32,-237.007"/>
<polygon fill="black" stroke="black" points="1085.6,-234.35 1075.89,-230.109 1080.84,-239.479 1085.6,-234.35"/>
</g>
<!-- javadoc -->
<g id="node13" class="node"><title>javadoc</title>
<polygon fill="lightcyan" stroke="black" points="1204.25,-401 1145.75,-401 1145.75,-365 1204.25,-365 1204.25,-401"/>
<text text-anchor="middle" x="1175" y="-379.3" font-family="Times,serif" font-size="14.00">javadoc</text>
</g>
<!-- classes&#45;&gt;javadoc -->
<g id="edge3" class="edge"><title>classes&#45;&gt;javadoc</title>
<path fill="none" stroke="black" d="M809.052,-454.031C868.765,-453.348 1015.69,-447.527 1131,-409 1133.91,-408.029 1136.84,-406.859 1139.73,-405.561"/>
<polygon fill="black" stroke="black" points="1141.38,-408.651 1148.78,-401.073 1138.27,-402.38 1141.38,-408.651"/>
</g>
<!-- bundle -->
<g id="node15" class="node"><title>bundle</title>
<polygon fill="cyan" stroke="black" points="102,-401 48,-401 48,-365 102,-365 102,-401"/>
<text text-anchor="middle" x="75" y="-379.3" font-family="Times,serif" font-size="14.00">bundle</text>
</g>
<!-- classes&#45;&gt;bundle -->
<g id="edge17" class="edge"><title>classes&#45;&gt;bundle</title>
<path fill="none" stroke="black" d="M754.718,-451.299C645.358,-440.471 238.561,-400.194 112.494,-387.712"/>
<polygon fill="black" stroke="black" points="112.497,-384.196 102.201,-386.693 111.807,-391.161 112.497,-384.196"/>
</g>
<!-- checkClassCycle -->
<g id="node22" class="node"><title>checkClassCycle</title>
<polygon fill="cyan" stroke="black" points="212.25,-473 103.75,-473 103.75,-437 212.25,-437 212.25,-473"/>
<text text-anchor="middle" x="158" y="-451.3" font-family="Times,serif" font-size="14.00">checkClassCycle</text>
</g>
<!-- classes&#45;&gt;checkClassCycle -->
<g id="edge15" class="edge"><title>classes&#45;&gt;checkClassCycle</title>
<path fill="none" stroke="black" d="M754.75,-455C577.367,-455 399.983,-455 222.6,-455"/>
<polygon fill="black" stroke="black" points="222.539,-451.5 212.539,-455 222.539,-458.5 222.539,-451.5"/>
</g>
<!-- findbugsMain -->
<g id="node27" class="node"><title>findbugsMain</title>
<polygon fill="cyan" stroke="black" points="1330.25,-302 1237.75,-302 1237.75,-266 1330.25,-266 1330.25,-302"/>
<text text-anchor="middle" x="1284" y="-280.3" font-family="Times,serif" font-size="14.00">findbugsMain</text>
</g>
<!-- classes&#45;&gt;findbugsMain -->
<g id="edge27" class="edge"><title>classes&#45;&gt;findbugsMain</title>
<path fill="none" stroke="black" d="M809.006,-454.421C893.277,-455.248 1149.78,-453.936 1217,-409 1250.7,-386.473 1268.84,-341.178 1277.45,-312.013"/>
<polygon fill="black" stroke="black" points="1280.91,-312.641 1280.2,-302.07 1274.16,-310.775 1280.91,-312.641"/>
</g>
<!-- uploadArchives -->
<g id="node10" class="node"><title>uploadArchives</title>
<polygon fill="lightcyan" stroke="black" points="821,-302 719,-302 719,-266 821,-266 821,-302"/>
<text text-anchor="middle" x="770" y="-280.3" font-family="Times,serif" font-size="14.00">uploadArchives</text>
</g>
<!-- jar&#45;&gt;uploadArchives -->
<g id="edge9" class="edge"><title>jar&#45;&gt;uploadArchives</title>
<path fill="none" stroke="black" d="M770,-364.658C770,-350.175 770,-329.263 770,-312.499"/>
<polygon fill="black" stroke="black" points="773.5,-312.191 770,-302.192 766.5,-312.192 773.5,-312.191"/>
</g>
<!-- assemble -->
<g id="node11" class="node"><title>assemble</title>
<polygon fill="lightcyan" stroke="black" points="700.25,-302 633.75,-302 633.75,-266 700.25,-266 700.25,-302"/>
<text text-anchor="middle" x="667" y="-280.3" font-family="Times,serif" font-size="14.00">assemble</text>
</g>
<!-- jar&#45;&gt;assemble -->
<g id="edge10" class="edge"><title>jar&#45;&gt;assemble</title>
<path fill="none" stroke="black" d="M751.586,-364.658C735.181,-349.209 711.01,-326.446 692.702,-309.205"/>
<polygon fill="black" stroke="black" points="694.934,-306.499 685.255,-302.192 690.135,-311.595 694.934,-306.499"/>
</g>
<!-- testClasses -->
<g id="node7" class="node"><title>testClasses</title>
<polygon fill="lightcyan" stroke="black" points="1091,-302 1015,-302 1015,-266 1091,-266 1091,-302"/>
<text text-anchor="middle" x="1053" y="-280.3" font-family="Times,serif" font-size="14.00">testClasses</text>
</g>
<!-- compileTestJava&#45;&gt;testClasses -->
<g id="edge7" class="edge"><title>compileTestJava&#45;&gt;testClasses</title>
<path fill="none" stroke="black" d="M1053,-364.658C1053,-350.175 1053,-329.263 1053,-312.499"/>
<polygon fill="black" stroke="black" points="1056.5,-312.191 1053,-302.192 1049.5,-312.192 1056.5,-312.191"/>
</g>
<!-- processTestResources -->
<g id="node6" class="node"><title>processTestResources</title>
<polygon fill="lightcyan" stroke="black" points="981,-401 845,-401 845,-365 981,-365 981,-401"/>
<text text-anchor="middle" x="913" y="-379.3" font-family="Times,serif" font-size="14.00">processTestResources</text>
</g>
<!-- processTestResources&#45;&gt;testClasses -->
<g id="edge8" class="edge"><title>processTestResources&#45;&gt;testClasses</title>
<path fill="none" stroke="black" d="M936.026,-364.775C951.211,-353.534 971.619,-338.653 990,-326 998.879,-319.888 1008.59,-313.452 1017.67,-307.537"/>
<polygon fill="black" stroke="black" points="1019.64,-310.428 1026.13,-302.053 1015.83,-304.554 1019.64,-310.428"/>
</g>
<!-- testClasses&#45;&gt;test -->
<g id="edge11" class="edge"><title>testClasses&#45;&gt;test</title>
<path fill="none" stroke="black" d="M1053,-265.697C1053,-257.983 1053,-248.712 1053,-240.112"/>
<polygon fill="black" stroke="black" points="1056.5,-240.104 1053,-230.104 1049.5,-240.104 1056.5,-240.104"/>
</g>
<!-- findbugsTest -->
<g id="node25" class="node"><title>findbugsTest</title>
<polygon fill="cyan" stroke="black" points="1442.25,-302 1355.75,-302 1355.75,-266 1442.25,-266 1442.25,-302"/>
<text text-anchor="middle" x="1399" y="-280.3" font-family="Times,serif" font-size="14.00">findbugsTest</text>
</g>
<!-- testClasses&#45;&gt;findbugsTest -->
<g id="edge28" class="edge"><title>testClasses&#45;&gt;findbugsTest</title>
<path fill="none" stroke="black" d="M1091.12,-294.407C1127.5,-303.764 1184.02,-316.81 1234,-322 1256.1,-324.295 1312.26,-326.613 1334,-322 1345.87,-319.481 1357.67,-313.794 1367.9,-307.567"/>
<polygon fill="black" stroke="black" points="1369.97,-310.401 1376.45,-302.022 1366.15,-304.529 1369.97,-310.401"/>
</g>
<!-- check -->
<g id="node9" class="node"><title>check</title>
<polygon fill="lightcyan" stroke="black" points="1080,-147 1026,-147 1026,-111 1080,-111 1080,-147"/>
<text text-anchor="middle" x="1053" y="-125.3" font-family="Times,serif" font-size="14.00">check</text>
</g>
<!-- test&#45;&gt;check -->
<g id="edge13" class="edge"><title>test&#45;&gt;check</title>
<path fill="none" stroke="black" d="M1053,-193.822C1053,-183.19 1053,-169.306 1053,-157.204"/>
<polygon fill="black" stroke="black" points="1056.5,-157.153 1053,-147.153 1049.5,-157.153 1056.5,-157.153"/>
</g>
<!-- build -->
<g id="node12" class="node"><title>build</title>
<polygon fill="lightcyan" stroke="black" points="967,-75 913,-75 913,-39 967,-39 967,-75"/>
<text text-anchor="middle" x="940" y="-53.3" font-family="Times,serif" font-size="14.00">build</text>
</g>
<!-- check&#45;&gt;build -->
<g id="edge14" class="edge"><title>check&#45;&gt;build</title>
<path fill="none" stroke="black" d="M1032.71,-110.799C1029.22,-108.083 1025.56,-105.386 1022,-103 1007.61,-93.3613 990.983,-83.9441 976.476,-76.2366"/>
<polygon fill="black" stroke="black" points="977.776,-72.9672 967.293,-71.4334 974.532,-79.1699 977.776,-72.9672"/>
</g>
<!-- assemble&#45;&gt;build -->
<g id="edge12" class="edge"><title>assemble&#45;&gt;build</title>
<path fill="none" stroke="black" d="M678.843,-265.86C703.726,-230.95 764.801,-150.866 833,-103 854.456,-87.9406 881.734,-76.5669 903.377,-69.0213"/>
<polygon fill="black" stroke="black" points="904.521,-72.3294 912.883,-65.8244 902.289,-65.6945 904.521,-72.3294"/>
</g>
<!-- cleanJava -->
<g id="node14" class="node"><title>cleanJava</title>
<polygon fill="lightcyan" stroke="black" points="586,-587 532,-587 532,-551 586,-551 586,-587"/>
<text text-anchor="middle" x="559" y="-565.3" font-family="Times,serif" font-size="14.00">clean</text>
</g>
<!-- bundle&#45;&gt;compileJava -->
<g id="edge18" class="edge"><title>bundle&#45;&gt;compileJava</title>
<path fill="none" stroke="red" d="M70.9789,-401.239C65.595,-429.22 59.9897,-484.188 91,-512 112.054,-530.883 574.016,-508.835 600,-520 611.437,-524.914 621.508,-534.075 629.363,-543.086"/>
<polygon fill="red" stroke="red" points="626.652,-545.301 635.674,-550.857 632.086,-540.888 626.652,-545.301"/>
</g>
<!-- bundle&#45;&gt;jar -->
<g id="edge19" class="edge"><title>bundle&#45;&gt;jar</title>
<path fill="none" stroke="black" stroke-dasharray="5,2" d="M102.148,-383C312.406,-383 522.664,-383 732.921,-383"/>
<polygon fill="black" stroke="black" points="732.934,-386.5 742.934,-383 732.934,-379.5 732.934,-386.5"/>
</g>
<!-- bundle&#45;&gt;test -->
<g id="edge21" class="edge"><title>bundle&#45;&gt;test</title>
<path fill="none" stroke="black" d="M102.125,-381.364C171.944,-379.024 362.824,-368.15 512,-318 564.416,-300.379 568.228,-274.526 621,-258 694.372,-235.022 924.975,-220.097 1015.75,-214.976"/>
<polygon fill="black" stroke="black" points="1016.07,-218.464 1025.86,-214.414 1015.68,-211.475 1016.07,-218.464"/>
</g>
<!-- bundleTest -->
<g id="node16" class="node"><title>bundleTest</title>
<polygon fill="cyan" stroke="black" points="101.25,-302 24.75,-302 24.75,-266 101.25,-266 101.25,-302"/>
<text text-anchor="middle" x="63" y="-280.3" font-family="Times,serif" font-size="14.00">bundleTest</text>
</g>
<!-- bundle&#45;&gt;bundleTest -->
<g id="edge20" class="edge"><title>bundle&#45;&gt;bundleTest</title>
<path fill="none" stroke="black" d="M72.8546,-364.658C71.0629,-350.175 68.4758,-329.263 66.402,-312.499"/>
<polygon fill="black" stroke="black" points="69.8281,-311.686 65.1268,-302.192 62.8811,-312.546 69.8281,-311.686"/>
</g>
<!-- release -->
<g id="node17" class="node"><title>release</title>
<polygon fill="cyan" stroke="black" points="190,-302 136,-302 136,-266 190,-266 190,-302"/>
<text text-anchor="middle" x="163" y="-280.3" font-family="Times,serif" font-size="14.00">release</text>
</g>
<!-- bundle&#45;&gt;release -->
<g id="edge22" class="edge"><title>bundle&#45;&gt;release</title>
<path fill="none" stroke="black" d="M90.7326,-364.658C104.623,-349.347 125.031,-326.852 140.621,-309.668"/>
<polygon fill="black" stroke="black" points="143.277,-311.95 147.404,-302.192 138.092,-307.246 143.277,-311.95"/>
</g>
<!-- export -->
<g id="node21" class="node"><title>export</title>
<polygon fill="cyan" stroke="black" points="318,-302 264,-302 264,-266 318,-266 318,-302"/>
<text text-anchor="middle" x="291" y="-280.3" font-family="Times,serif" font-size="14.00">export</text>
</g>
<!-- bundle&#45;&gt;export -->
<g id="edge23" class="edge"><title>bundle&#45;&gt;export</title>
<path fill="none" stroke="black" d="M102.082,-375.435C137.968,-366.032 202.506,-346.642 252,-318 256.584,-315.347 261.152,-312.136 265.462,-308.772"/>
<polygon fill="black" stroke="black" points="267.901,-311.296 273.367,-302.219 263.435,-305.906 267.901,-311.296"/>
</g>
<!-- bundleTest&#45;&gt;check -->
<g id="edge24" class="edge"><title>bundleTest&#45;&gt;check</title>
<path fill="none" stroke="black" d="M64.1221,-265.694C67.0104,-237.096 77.3127,-180.594 114,-155 151.523,-128.823 844.98,-129.33 1015.41,-129.853"/>
<polygon fill="black" stroke="black" points="1015.63,-133.353 1025.64,-129.886 1015.65,-126.353 1015.63,-133.353"/>
</g>
<!-- releaseNeeded -->
<g id="node18" class="node"><title>releaseNeeded</title>
<polygon fill="cyan" stroke="black" points="221.25,-230 126.75,-230 126.75,-194 221.25,-194 221.25,-230"/>
<text text-anchor="middle" x="174" y="-208.3" font-family="Times,serif" font-size="14.00">releaseNeeded</text>
</g>
<!-- release&#45;&gt;releaseNeeded -->
<g id="edge25" class="edge"><title>release&#45;&gt;releaseNeeded</title>
<path fill="none" stroke="black" d="M165.719,-265.697C166.931,-257.983 168.388,-248.712 169.739,-240.112"/>
<polygon fill="black" stroke="black" points="173.217,-240.526 171.312,-230.104 166.302,-239.44 173.217,-240.526"/>
</g>
<!-- releaseNeeded&#45;&gt;releaseNeeded -->
<g id="edge26" class="edge"><title>releaseNeeded&#45;&gt;releaseNeeded</title>
<path fill="none" stroke="red" d="M221.326,-225.101C231.571,-223.82 239,-219.453 239,-212 239,-207.225 235.951,-203.717 231.066,-201.476"/>
<polygon fill="red" stroke="red" points="231.889,-198.073 221.326,-198.899 230.098,-204.84 231.889,-198.073"/>
</g>
<!-- cleanBnd -->
<g id="node19" class="node"><title>cleanBnd</title>
<polygon fill="cyan" stroke="black" points="500,-302 446,-302 446,-266 500,-266 500,-302"/>
<text text-anchor="middle" x="473" y="-280.3" font-family="Times,serif" font-size="14.00">clean</text>
</g>
<!-- bndproperties -->
<g id="node20" class="node"><title>bndproperties</title>
<polygon fill="cyan" stroke="black" points="427.25,-302 336.75,-302 336.75,-266 427.25,-266 427.25,-302"/>
<text text-anchor="middle" x="382" y="-280.3" font-family="Times,serif" font-size="14.00">bndproperties</text>
</g>
<!-- checkClassCycle&#45;&gt;bundle -->
<g id="edge16" class="edge"><title>checkClassCycle&#45;&gt;bundle</title>
<path fill="none" stroke="black" d="M137.483,-436.697C127.131,-427.965 114.414,-417.24 103.161,-407.75"/>
<polygon fill="black" stroke="black" points="105.182,-404.876 95.2809,-401.104 100.669,-410.227 105.182,-404.876"/>
</g>
<!-- wrapper -->
<g id="node23" class="node"><title>wrapper</title>
<polygon fill="cyan" stroke="black" points="1293.25,-587 1232.75,-587 1232.75,-551 1293.25,-551 1293.25,-587"/>
<text text-anchor="middle" x="1263" y="-565.3" font-family="Times,serif" font-size="14.00">wrapper</text>
</g>
<!-- findbugstest -->
<g id="node24" class="node"><title>findbugstest</title>
<polygon fill="cyan" stroke="black" points="1439.25,-230 1356.75,-230 1356.75,-194 1439.25,-194 1439.25,-230"/>
<text text-anchor="middle" x="1398" y="-208.3" font-family="Times,serif" font-size="14.00">findbugstest</text>
</g>
<!-- findbugstest&#45;&gt;check -->
<g id="edge32" class="edge"><title>findbugstest&#45;&gt;check</title>
<path fill="none" stroke="green" d="M1386.43,-193.831C1376.57,-180.734 1361.12,-163.536 1343,-155 1299.17,-134.356 1158.31,-130.611 1090.36,-130.033"/>
<polygon fill="green" stroke="green" points="1090.13,-126.531 1080.1,-129.965 1090.08,-133.531 1090.13,-126.531"/>
</g>
<!-- findbugsTest&#45;&gt;findbugstest -->
<g id="edge30" class="edge"><title>findbugsTest&#45;&gt;findbugstest</title>
<path fill="none" stroke="black" d="M1398.75,-265.697C1398.64,-257.983 1398.51,-248.712 1398.39,-240.112"/>
<polygon fill="black" stroke="black" points="1401.89,-240.053 1398.24,-230.104 1394.89,-240.153 1401.89,-240.053"/>
</g>
<!-- findbugs -->
<g id="node26" class="node"><title>findbugs</title>
<polygon fill="cyan" stroke="black" points="1308,-230 1244,-230 1244,-194 1308,-194 1308,-230"/>
<text text-anchor="middle" x="1276" y="-208.3" font-family="Times,serif" font-size="14.00">findbugs</text>
</g>
<!-- findbugs&#45;&gt;check -->
<g id="edge31" class="edge"><title>findbugs&#45;&gt;check</title>
<path fill="none" stroke="green" d="M1243.57,-199.222C1202.67,-184.364 1132.51,-158.881 1089.69,-143.326"/>
<polygon fill="green" stroke="green" points="1090.8,-140.006 1080.2,-139.881 1088.41,-146.585 1090.8,-140.006"/>
</g>
<!-- findbugsMain&#45;&gt;findbugs -->
<g id="edge29" class="edge"><title>findbugsMain&#45;&gt;findbugs</title>
<path fill="none" stroke="black" d="M1282.02,-265.697C1281.14,-257.983 1280.08,-248.712 1279.1,-240.112"/>
<polygon fill="black" stroke="black" points="1282.57,-239.642 1277.95,-230.104 1275.61,-240.437 1282.57,-239.642"/>
</g>
<!-- indexOBR -->
<g id="node28" class="node"><title>indexOBR</title>
<polygon fill="cyan" stroke="black" points="1696,-587 1622,-587 1622,-551 1696,-551 1696,-587"/>
<text text-anchor="middle" x="1659" y="-565.3" font-family="Times,serif" font-size="14.00">indexOBR</text>
</g>
<!-- index -->
<g id="node30" class="node"><title>index</title>
<polygon fill="cyan" stroke="black" points="1643,-473 1589,-473 1589,-437 1643,-437 1643,-473"/>
<text text-anchor="middle" x="1616" y="-451.3" font-family="Times,serif" font-size="14.00">index</text>
</g>
<!-- indexOBR&#45;&gt;index -->
<g id="edge33" class="edge"><title>indexOBR&#45;&gt;index</title>
<path fill="none" stroke="black" d="M1652.47,-550.99C1645.49,-532.817 1634.34,-503.769 1626.2,-482.575"/>
<polygon fill="black" stroke="black" points="1629.44,-481.252 1622.59,-473.17 1622.91,-483.761 1629.44,-481.252"/>
</g>
<!-- indexR5 -->
<g id="node29" class="node"><title>indexR5</title>
<polygon fill="cyan" stroke="black" points="1604,-587 1542,-587 1542,-551 1604,-551 1604,-587"/>
<text text-anchor="middle" x="1573" y="-565.3" font-family="Times,serif" font-size="14.00">indexR5</text>
</g>
<!-- indexR5&#45;&gt;index -->
<g id="edge34" class="edge"><title>indexR5&#45;&gt;index</title>
<path fill="none" stroke="black" d="M1579.53,-550.99C1586.51,-532.817 1597.66,-503.769 1605.8,-482.575"/>
<polygon fill="black" stroke="black" points="1609.09,-483.761 1609.41,-473.17 1602.56,-481.252 1609.09,-483.761"/>
</g>
<!-- clean -->
<g id="node31" class="node"><title>clean</title>
<polygon fill="lightcyan" stroke="black" points="1456,-587 1402,-587 1402,-551 1456,-551 1456,-587"/>
<text text-anchor="middle" x="1429" y="-565.3" font-family="Times,serif" font-size="14.00">clean</text>
</g>
<!-- cleanNeeded -->
<g id="node32" class="node"><title>cleanNeeded</title>
<polygon fill="cyan" stroke="black" points="1416,-473 1330,-473 1330,-437 1416,-437 1416,-473"/>
<text text-anchor="middle" x="1373" y="-451.3" font-family="Times,serif" font-size="14.00">cleanNeeded</text>
</g>
<!-- clean&#45;&gt;cleanNeeded -->
<g id="edge35" class="edge"><title>clean&#45;&gt;cleanNeeded</title>
<path fill="none" stroke="blue" d="M1420.49,-550.99C1411.37,-532.734 1396.75,-503.506 1386.14,-482.287"/>
<polygon fill="blue" stroke="blue" points="1389.19,-480.549 1381.59,-473.17 1382.93,-483.68 1389.19,-480.549"/>
</g>
<!-- distclean -->
<g id="node33" class="node"><title>distclean</title>
<polygon fill="cyan" stroke="black" points="1517.25,-473 1452.75,-473 1452.75,-437 1517.25,-437 1517.25,-473"/>
<text text-anchor="middle" x="1485" y="-451.3" font-family="Times,serif" font-size="14.00">distclean</text>
</g>
<!-- clean&#45;&gt;distclean -->
<g id="edge37" class="edge"><title>clean&#45;&gt;distclean</title>
<path fill="none" stroke="blue" d="M1437.51,-550.99C1446.63,-532.734 1461.25,-503.506 1471.86,-482.287"/>
<polygon fill="blue" stroke="blue" points="1475.07,-483.68 1476.41,-473.17 1468.81,-480.549 1475.07,-483.68"/>
</g>
<!-- cleanNeeded&#45;&gt;cleanNeeded -->
<g id="edge36" class="edge"><title>cleanNeeded&#45;&gt;cleanNeeded</title>
<path fill="none" stroke="red" d="M1416.04,-468.262C1426.35,-467.225 1434,-462.805 1434,-455 1434,-450 1430.86,-446.389 1425.89,-444.167"/>
<polygon fill="red" stroke="red" points="1426.58,-440.732 1416.04,-441.738 1424.91,-447.529 1426.58,-440.732"/>
</g>
<!-- distcleanNeeded -->
<g id="node34" class="node"><title>distcleanNeeded</title>
<polygon fill="cyan" stroke="black" points="1500,-401 1394,-401 1394,-365 1500,-365 1500,-401"/>
<text text-anchor="middle" x="1447" y="-379.3" font-family="Times,serif" font-size="14.00">distcleanNeeded</text>
</g>
<!-- distclean&#45;&gt;distcleanNeeded -->
<g id="edge38" class="edge"><title>distclean&#45;&gt;distcleanNeeded</title>
<path fill="none" stroke="black" d="M1475.61,-436.697C1471.24,-428.644 1465.94,-418.894 1461.1,-409.982"/>
<polygon fill="black" stroke="black" points="1464.13,-408.223 1456.29,-401.104 1457.98,-411.563 1464.13,-408.223"/>
</g>
<!-- distcleanNeeded&#45;&gt;distcleanNeeded -->
<g id="edge39" class="edge"><title>distcleanNeeded&#45;&gt;distcleanNeeded</title>
<path fill="none" stroke="red" d="M1500.26,-395.899C1510.63,-394.401 1518,-390.102 1518,-383 1518,-378.451 1514.98,-375.051 1510.08,-372.801"/>
<polygon fill="red" stroke="red" points="1510.83,-369.378 1500.26,-370.101 1508.97,-376.128 1510.83,-369.378"/>
</g>
</g>
</svg>
