<?xml version="1.0" encoding="UTF-8" standalone="no"?>
<!-- Created with Inkscape (http://www.inkscape.org/) -->
<svg
   xmlns:svg="http://www.w3.org/2000/svg"
   xmlns="http://www.w3.org/2000/svg"
   version="1.0"
   width="900"
   height="600"
   id="svg2">
  <defs
     id="defs5" />
  <rect
     width="900"
     height="600"
     x="0"
     y="0"
     id="rect2407"
     style="fill:none;stroke:none" />
  <g
     id="g2403">
    <path
       d="M 508.625,119.875 C 409.33174,119.875 328.75001,200.45673 328.75,299.75 C 328.75,325.03396 350.42053,357 386,357 C 425.23735,357 444,324.99367 444,300.34375 C 443.99999,262.55865 474.68364,231.90625 512.46875,231.90625 C 550.25385,231.90625 580.90625,262.55864 580.90625,300.34375 C 580.90625,429.81204 467.96875,475.03125 467.96875,475.03125 C 481.0378,478.05511 494.64082,479.625 508.625,479.625 C 607.91826,479.625 688.49999,399.04325 688.5,299.75 C 688.5,200.45674 607.91828,119.875 508.625,119.875 z"
       id="path2392"
       style="fill:#400080;stroke:none" />
    <path
       d="M 391.57537,479.625 C 490.86863,479.625 571.45036,399.04327 571.45037,299.75 C 571.45037,274.46604 549.77984,242.5 514.20037,242.5 C 474.96302,242.5 456.20037,274.50633 456.20037,299.15625 C 456.20038,336.94135 425.51673,367.59375 387.73162,367.59375 C 349.94652,367.59375 319.29412,336.94136 319.29412,299.15625 C 319.29412,169.68796 432.23162,124.46875 432.23162,124.46875 C 419.16257,121.44489 405.55955,119.875 391.57537,119.875 C 292.28211,119.875 211.70038,200.45675 211.70037,299.75 C 211.70037,399.04326 292.28209,479.625 391.57537,479.625 z"
       id="path2401"
       style="fill:#FFFF00;stroke:none" />
  </g>
</svg>
